G75*
%MOIN*%
%OFA0B0*%
%FSLAX25Y25*%
%IPPOS*%
%LPD*%
%AMOC8*
5,1,8,0,0,1.08239X$1,22.5*
%
%ADD10C,0.00500*%
%ADD11C,0.00600*%
%ADD12C,0.00300*%
D10*
X0101793Y0095965D02*
X0101793Y0102070D01*
X0098740Y0102070D01*
X0097723Y0101053D01*
X0097723Y0099018D01*
X0098740Y0098000D01*
X0101793Y0098000D01*
X0103800Y0098000D02*
X0107870Y0102070D01*
X0109877Y0101053D02*
X0110895Y0102070D01*
X0112930Y0102070D01*
X0113947Y0101053D01*
X0113947Y0099018D01*
X0112930Y0098000D01*
X0110895Y0098000D01*
X0109877Y0099018D01*
X0109877Y0101053D01*
X0107870Y0098000D02*
X0103800Y0102070D01*
X0095716Y0101053D02*
X0095716Y0099018D01*
X0094698Y0098000D01*
X0092663Y0098000D01*
X0089639Y0099018D02*
X0089639Y0101053D01*
X0088621Y0102070D01*
X0085568Y0102070D01*
X0085568Y0104105D02*
X0085568Y0098000D01*
X0088621Y0098000D01*
X0089639Y0099018D01*
X0091646Y0100035D02*
X0095716Y0100035D01*
X0095716Y0101053D02*
X0094698Y0102070D01*
X0092663Y0102070D01*
X0091646Y0101053D01*
X0091646Y0100035D01*
X0083561Y0099018D02*
X0082544Y0100035D01*
X0079491Y0100035D01*
X0079491Y0101053D02*
X0079491Y0098000D01*
X0082544Y0098000D01*
X0083561Y0099018D01*
X0082544Y0102070D02*
X0080509Y0102070D01*
X0079491Y0101053D01*
X0077484Y0104105D02*
X0076467Y0104105D01*
X0076467Y0098000D01*
X0077484Y0098000D02*
X0075449Y0098000D01*
X0073433Y0098000D02*
X0073433Y0099018D01*
X0072415Y0099018D01*
X0072415Y0098000D01*
X0073433Y0098000D01*
X0070394Y0099018D02*
X0069377Y0098000D01*
X0066324Y0098000D01*
X0064317Y0099018D02*
X0063299Y0098000D01*
X0061264Y0098000D01*
X0060247Y0099018D01*
X0060247Y0101053D01*
X0061264Y0102070D01*
X0063299Y0102070D01*
X0064317Y0101053D01*
X0064317Y0099018D01*
X0066324Y0102070D02*
X0069377Y0102070D01*
X0070394Y0101053D01*
X0070394Y0099018D01*
X0058240Y0098000D02*
X0058240Y0102070D01*
X0057222Y0102070D01*
X0056205Y0101053D01*
X0055187Y0102070D01*
X0054170Y0101053D01*
X0054170Y0098000D01*
X0056205Y0098000D02*
X0056205Y0101053D01*
X0115954Y0101053D02*
X0115954Y0099018D01*
X0116972Y0098000D01*
X0120025Y0098000D01*
X0120025Y0104105D01*
X0122032Y0104105D02*
X0122032Y0098000D01*
X0125084Y0098000D01*
X0126102Y0099018D01*
X0126102Y0101053D01*
X0125084Y0102070D01*
X0122032Y0102070D01*
X0120025Y0102070D02*
X0116972Y0102070D01*
X0115954Y0101053D01*
X0128109Y0101053D02*
X0128109Y0098000D01*
X0132179Y0098000D02*
X0132179Y0102070D01*
X0129126Y0102070D01*
X0128109Y0101053D01*
X0134186Y0101053D02*
X0134186Y0098000D01*
X0137239Y0098000D01*
X0138256Y0099018D01*
X0137239Y0100035D01*
X0134186Y0100035D01*
X0134186Y0101053D02*
X0135204Y0102070D01*
X0137239Y0102070D01*
X0140263Y0102070D02*
X0143316Y0102070D01*
X0144333Y0101053D01*
X0143316Y0100035D01*
X0141281Y0100035D01*
X0140263Y0099018D01*
X0141281Y0098000D01*
X0144333Y0098000D01*
D11*
X0034075Y0011800D02*
X0030872Y0011800D01*
X0034075Y0011800D02*
X0035142Y0012868D01*
X0035142Y0015003D01*
X0034075Y0016070D01*
X0030872Y0016070D01*
X0037318Y0016070D02*
X0037318Y0017138D01*
X0038385Y0018205D01*
X0040520Y0018205D01*
X0041588Y0017138D01*
X0043763Y0016070D02*
X0045898Y0011800D01*
X0048033Y0016070D01*
X0041588Y0011800D02*
X0037318Y0016070D01*
X0037318Y0011800D02*
X0041588Y0011800D01*
D12*
X0074284Y0021650D02*
X0075252Y0022617D01*
X0074768Y0022617D02*
X0076219Y0022617D01*
X0076219Y0021650D02*
X0076219Y0024552D01*
X0074768Y0024552D01*
X0074284Y0024069D01*
X0074284Y0023101D01*
X0074768Y0022617D01*
X0077216Y0021650D02*
X0078183Y0021650D01*
X0077700Y0021650D02*
X0077700Y0024552D01*
X0078183Y0024552D02*
X0077216Y0024552D01*
X0084284Y0021650D02*
X0086219Y0021650D01*
X0086219Y0024552D01*
X0087216Y0024552D02*
X0088183Y0024552D01*
X0087700Y0024552D02*
X0087700Y0021650D01*
X0088183Y0021650D02*
X0087216Y0021650D01*
X0096248Y0021650D02*
X0098183Y0021650D01*
X0098183Y0024552D01*
X0106248Y0024069D02*
X0106248Y0023101D01*
X0106732Y0022617D01*
X0108183Y0022617D01*
X0108183Y0021650D02*
X0108183Y0024552D01*
X0106732Y0024552D01*
X0106248Y0024069D01*
X0107216Y0022617D02*
X0106248Y0021650D01*
X0116248Y0022134D02*
X0116248Y0024069D01*
X0116732Y0024552D01*
X0117700Y0024552D01*
X0118183Y0024069D01*
X0118183Y0023585D01*
X0117700Y0023101D01*
X0116248Y0023101D01*
X0116248Y0022134D02*
X0116732Y0021650D01*
X0117700Y0021650D01*
X0118183Y0022134D01*
X0126248Y0022134D02*
X0126248Y0023101D01*
X0127216Y0023101D01*
X0128183Y0022134D02*
X0127700Y0021650D01*
X0126732Y0021650D01*
X0126248Y0022134D01*
X0128183Y0022134D02*
X0128183Y0024069D01*
X0127700Y0024552D01*
X0126732Y0024552D01*
X0126248Y0024069D01*
X0132855Y0024069D02*
X0132855Y0023101D01*
X0133339Y0022617D01*
X0134790Y0022617D01*
X0134790Y0021650D02*
X0134790Y0024552D01*
X0133339Y0024552D01*
X0132855Y0024069D01*
X0135802Y0024069D02*
X0135802Y0024552D01*
X0135802Y0024069D02*
X0136769Y0023101D01*
X0136769Y0021650D01*
X0136769Y0023101D02*
X0137737Y0024069D01*
X0137737Y0024552D01*
X0138748Y0024069D02*
X0138748Y0023585D01*
X0139232Y0023101D01*
X0140683Y0023101D01*
X0139232Y0023101D02*
X0138748Y0022617D01*
X0138748Y0022134D01*
X0139232Y0021650D01*
X0140683Y0021650D01*
X0140683Y0024552D01*
X0139232Y0024552D01*
X0138748Y0024069D01*
M02*
