G75*
%MOIN*%
%OFA0B0*%
%FSLAX25Y25*%
%IPPOS*%
%LPD*%
%AMOC8*
5,1,8,0,0,1.08239X$1,22.5*
%
%ADD10C,0.00400*%
%ADD11C,0.01000*%
%ADD12C,0.00394*%
%ADD13C,0.00600*%
%ADD14C,0.00800*%
%ADD15C,0.00700*%
D10*
X0112283Y0024967D02*
X0113051Y0024200D01*
X0114585Y0024200D01*
X0115353Y0024967D01*
X0115353Y0026502D01*
X0113818Y0026502D01*
X0115353Y0028037D02*
X0114585Y0028804D01*
X0113051Y0028804D01*
X0112283Y0028037D01*
X0112283Y0024967D01*
D11*
X0113333Y0022750D02*
X0113333Y0021500D01*
X0114583Y0020250D01*
X0122083Y0020250D01*
X0123333Y0019000D01*
X0123333Y0011500D01*
D12*
X0119833Y0051000D02*
X0113333Y0051000D01*
X0119833Y0051000D02*
X0119833Y0058000D01*
X0092333Y0058000D01*
X0086833Y0054000D02*
X0086833Y0051000D01*
X0093333Y0051000D01*
X0119833Y0058000D02*
X0120833Y0058000D01*
X0120833Y0092000D01*
X0120833Y0106000D01*
X0085833Y0106000D01*
X0085833Y0092000D01*
X0085833Y0074000D01*
X0085833Y0092000D02*
X0120833Y0092000D01*
D13*
X0105689Y0039704D02*
X0104221Y0039704D01*
X0103487Y0038970D01*
X0101819Y0039704D02*
X0100351Y0039704D01*
X0101085Y0039704D02*
X0101085Y0036034D01*
X0100351Y0035300D01*
X0099617Y0035300D01*
X0098883Y0036034D01*
X0103487Y0035300D02*
X0106423Y0038236D01*
X0106423Y0038970D01*
X0105689Y0039704D01*
X0106423Y0035300D02*
X0103487Y0035300D01*
X0105833Y0016500D02*
X0100833Y0016500D01*
X0098333Y0014000D01*
X0095833Y0016500D01*
X0090833Y0016500D01*
X0088333Y0014000D01*
X0088333Y0009000D01*
X0090833Y0006500D01*
X0095833Y0006500D01*
X0098333Y0009000D01*
X0098333Y0014000D01*
X0098333Y0009000D02*
X0100833Y0006500D01*
X0105833Y0006500D01*
X0108333Y0009000D01*
X0108333Y0014000D01*
X0105833Y0016500D01*
X0108333Y0014000D02*
X0110833Y0016500D01*
X0115833Y0016500D01*
X0118333Y0014000D01*
X0120833Y0016500D01*
X0125833Y0016500D01*
X0128333Y0014000D01*
X0130833Y0016500D01*
X0135833Y0016500D01*
X0138333Y0014000D01*
X0138333Y0009000D01*
X0135833Y0006500D01*
X0130833Y0006500D01*
X0128333Y0009000D01*
X0125833Y0006500D01*
X0120833Y0006500D01*
X0118333Y0009000D01*
X0118333Y0014000D01*
X0118333Y0009000D02*
X0115833Y0006500D01*
X0110833Y0006500D01*
X0108333Y0009000D01*
X0128333Y0009000D02*
X0128333Y0014000D01*
X0088333Y0014000D02*
X0085833Y0016500D01*
X0080833Y0016500D01*
X0078333Y0014000D01*
X0075833Y0016500D01*
X0070833Y0016500D01*
X0068333Y0014000D01*
X0068333Y0009000D01*
X0070833Y0006500D01*
X0075833Y0006500D01*
X0078333Y0009000D01*
X0078333Y0014000D01*
X0078333Y0009000D02*
X0080833Y0006500D01*
X0085833Y0006500D01*
X0088333Y0009000D01*
D14*
X0073648Y0022406D02*
X0011640Y0022406D01*
X0011640Y0106500D01*
X0026286Y0106500D01*
X0070381Y0106500D01*
X0073648Y0106500D01*
X0073648Y0022406D01*
X0121640Y0022406D02*
X0121640Y0106500D01*
X0136286Y0106500D01*
X0180381Y0106500D01*
X0183648Y0106500D01*
X0183648Y0022406D01*
X0121640Y0022406D01*
D15*
X0013484Y0010728D02*
X0012433Y0011779D01*
X0013484Y0010728D02*
X0014535Y0010728D01*
X0015586Y0011779D01*
X0015586Y0017033D01*
X0014535Y0017033D02*
X0016637Y0017033D01*
X0018879Y0015982D02*
X0019930Y0017033D01*
X0022032Y0017033D01*
X0023082Y0015982D01*
X0023082Y0014932D01*
X0022032Y0013881D01*
X0023082Y0012830D01*
X0023082Y0011779D01*
X0022032Y0010728D01*
X0019930Y0010728D01*
X0018879Y0011779D01*
X0020981Y0013881D02*
X0022032Y0013881D01*
X0173683Y0013029D02*
X0174734Y0011978D01*
X0175785Y0011978D01*
X0176836Y0013029D01*
X0176836Y0018283D01*
X0175785Y0018283D02*
X0177887Y0018283D01*
X0180129Y0016182D02*
X0182231Y0018283D01*
X0182231Y0011978D01*
X0184332Y0011978D02*
X0180129Y0011978D01*
M02*
