G75*
%MOIN*%
%OFA0B0*%
%FSLAX25Y25*%
%IPPOS*%
%LPD*%
%AMOC8*
5,1,8,0,0,1.08239X$1,22.5*
%
%ADD10C,0.00000*%
D10*
X0082233Y0060500D02*
X0082233Y0067500D01*
X0082235Y0067579D01*
X0082241Y0067657D01*
X0082250Y0067735D01*
X0082264Y0067812D01*
X0082281Y0067889D01*
X0082302Y0067964D01*
X0082327Y0068039D01*
X0082355Y0068112D01*
X0082387Y0068184D01*
X0082422Y0068254D01*
X0082461Y0068323D01*
X0082503Y0068389D01*
X0082548Y0068453D01*
X0082596Y0068515D01*
X0082647Y0068574D01*
X0082702Y0068631D01*
X0082759Y0068686D01*
X0082818Y0068737D01*
X0082880Y0068785D01*
X0082944Y0068830D01*
X0083010Y0068872D01*
X0083079Y0068911D01*
X0083149Y0068946D01*
X0083221Y0068978D01*
X0083294Y0069006D01*
X0083369Y0069031D01*
X0083444Y0069052D01*
X0083521Y0069069D01*
X0083598Y0069083D01*
X0083676Y0069092D01*
X0083754Y0069098D01*
X0083833Y0069100D01*
X0083912Y0069098D01*
X0083990Y0069092D01*
X0084068Y0069083D01*
X0084145Y0069069D01*
X0084222Y0069052D01*
X0084297Y0069031D01*
X0084372Y0069006D01*
X0084445Y0068978D01*
X0084517Y0068946D01*
X0084587Y0068911D01*
X0084656Y0068872D01*
X0084722Y0068830D01*
X0084786Y0068785D01*
X0084848Y0068737D01*
X0084907Y0068686D01*
X0084964Y0068631D01*
X0085019Y0068574D01*
X0085070Y0068515D01*
X0085118Y0068453D01*
X0085163Y0068389D01*
X0085205Y0068323D01*
X0085244Y0068254D01*
X0085279Y0068184D01*
X0085311Y0068112D01*
X0085339Y0068039D01*
X0085364Y0067964D01*
X0085385Y0067889D01*
X0085402Y0067812D01*
X0085416Y0067735D01*
X0085425Y0067657D01*
X0085431Y0067579D01*
X0085433Y0067500D01*
X0085433Y0060500D01*
X0085431Y0060421D01*
X0085425Y0060343D01*
X0085416Y0060265D01*
X0085402Y0060188D01*
X0085385Y0060111D01*
X0085364Y0060036D01*
X0085339Y0059961D01*
X0085311Y0059888D01*
X0085279Y0059816D01*
X0085244Y0059746D01*
X0085205Y0059677D01*
X0085163Y0059611D01*
X0085118Y0059547D01*
X0085070Y0059485D01*
X0085019Y0059426D01*
X0084964Y0059369D01*
X0084907Y0059314D01*
X0084848Y0059263D01*
X0084786Y0059215D01*
X0084722Y0059170D01*
X0084656Y0059128D01*
X0084587Y0059089D01*
X0084517Y0059054D01*
X0084445Y0059022D01*
X0084372Y0058994D01*
X0084297Y0058969D01*
X0084222Y0058948D01*
X0084145Y0058931D01*
X0084068Y0058917D01*
X0083990Y0058908D01*
X0083912Y0058902D01*
X0083833Y0058900D01*
X0083754Y0058902D01*
X0083676Y0058908D01*
X0083598Y0058917D01*
X0083521Y0058931D01*
X0083444Y0058948D01*
X0083369Y0058969D01*
X0083294Y0058994D01*
X0083221Y0059022D01*
X0083149Y0059054D01*
X0083079Y0059089D01*
X0083010Y0059128D01*
X0082944Y0059170D01*
X0082880Y0059215D01*
X0082818Y0059263D01*
X0082759Y0059314D01*
X0082702Y0059369D01*
X0082647Y0059426D01*
X0082596Y0059485D01*
X0082548Y0059547D01*
X0082503Y0059611D01*
X0082461Y0059677D01*
X0082422Y0059746D01*
X0082387Y0059816D01*
X0082355Y0059888D01*
X0082327Y0059961D01*
X0082302Y0060036D01*
X0082281Y0060111D01*
X0082264Y0060188D01*
X0082250Y0060265D01*
X0082241Y0060343D01*
X0082235Y0060421D01*
X0082233Y0060500D01*
X0099333Y0055000D02*
X0107333Y0055000D01*
X0107421Y0054998D01*
X0107510Y0054992D01*
X0107598Y0054982D01*
X0107685Y0054969D01*
X0107772Y0054951D01*
X0107858Y0054930D01*
X0107943Y0054905D01*
X0108026Y0054876D01*
X0108109Y0054843D01*
X0108189Y0054807D01*
X0108268Y0054768D01*
X0108346Y0054725D01*
X0108421Y0054678D01*
X0108494Y0054628D01*
X0108565Y0054575D01*
X0108634Y0054519D01*
X0108700Y0054460D01*
X0108763Y0054398D01*
X0108823Y0054334D01*
X0108881Y0054267D01*
X0108935Y0054197D01*
X0108987Y0054125D01*
X0109035Y0054051D01*
X0109080Y0053974D01*
X0109121Y0053896D01*
X0109159Y0053816D01*
X0109193Y0053735D01*
X0109224Y0053652D01*
X0109251Y0053567D01*
X0109274Y0053482D01*
X0109293Y0053396D01*
X0109309Y0053308D01*
X0109321Y0053221D01*
X0109329Y0053133D01*
X0109333Y0053044D01*
X0109333Y0052956D01*
X0109329Y0052867D01*
X0109321Y0052779D01*
X0109309Y0052692D01*
X0109293Y0052604D01*
X0109274Y0052518D01*
X0109251Y0052433D01*
X0109224Y0052348D01*
X0109193Y0052265D01*
X0109159Y0052184D01*
X0109121Y0052104D01*
X0109080Y0052026D01*
X0109035Y0051949D01*
X0108987Y0051875D01*
X0108935Y0051803D01*
X0108881Y0051733D01*
X0108823Y0051666D01*
X0108763Y0051602D01*
X0108700Y0051540D01*
X0108634Y0051481D01*
X0108565Y0051425D01*
X0108494Y0051372D01*
X0108421Y0051322D01*
X0108346Y0051275D01*
X0108268Y0051232D01*
X0108189Y0051193D01*
X0108109Y0051157D01*
X0108026Y0051124D01*
X0107943Y0051095D01*
X0107858Y0051070D01*
X0107772Y0051049D01*
X0107685Y0051031D01*
X0107598Y0051018D01*
X0107510Y0051008D01*
X0107421Y0051002D01*
X0107333Y0051000D01*
X0099333Y0051000D01*
X0099245Y0051002D01*
X0099156Y0051008D01*
X0099068Y0051018D01*
X0098981Y0051031D01*
X0098894Y0051049D01*
X0098808Y0051070D01*
X0098723Y0051095D01*
X0098640Y0051124D01*
X0098557Y0051157D01*
X0098477Y0051193D01*
X0098398Y0051232D01*
X0098320Y0051275D01*
X0098245Y0051322D01*
X0098172Y0051372D01*
X0098101Y0051425D01*
X0098032Y0051481D01*
X0097966Y0051540D01*
X0097903Y0051602D01*
X0097843Y0051666D01*
X0097785Y0051733D01*
X0097731Y0051803D01*
X0097679Y0051875D01*
X0097631Y0051949D01*
X0097586Y0052026D01*
X0097545Y0052104D01*
X0097507Y0052184D01*
X0097473Y0052265D01*
X0097442Y0052348D01*
X0097415Y0052433D01*
X0097392Y0052518D01*
X0097373Y0052604D01*
X0097357Y0052692D01*
X0097345Y0052779D01*
X0097337Y0052867D01*
X0097333Y0052956D01*
X0097333Y0053044D01*
X0097337Y0053133D01*
X0097345Y0053221D01*
X0097357Y0053308D01*
X0097373Y0053396D01*
X0097392Y0053482D01*
X0097415Y0053567D01*
X0097442Y0053652D01*
X0097473Y0053735D01*
X0097507Y0053816D01*
X0097545Y0053896D01*
X0097586Y0053974D01*
X0097631Y0054051D01*
X0097679Y0054125D01*
X0097731Y0054197D01*
X0097785Y0054267D01*
X0097843Y0054334D01*
X0097903Y0054398D01*
X0097966Y0054460D01*
X0098032Y0054519D01*
X0098101Y0054575D01*
X0098172Y0054628D01*
X0098245Y0054678D01*
X0098320Y0054725D01*
X0098398Y0054768D01*
X0098477Y0054807D01*
X0098557Y0054843D01*
X0098640Y0054876D01*
X0098723Y0054905D01*
X0098808Y0054930D01*
X0098894Y0054951D01*
X0098981Y0054969D01*
X0099068Y0054982D01*
X0099156Y0054992D01*
X0099245Y0054998D01*
X0099333Y0055000D01*
X0100083Y0075900D02*
X0106583Y0075900D01*
X0106662Y0075902D01*
X0106740Y0075908D01*
X0106818Y0075917D01*
X0106895Y0075931D01*
X0106972Y0075948D01*
X0107047Y0075969D01*
X0107122Y0075994D01*
X0107195Y0076022D01*
X0107267Y0076054D01*
X0107337Y0076089D01*
X0107406Y0076128D01*
X0107472Y0076170D01*
X0107536Y0076215D01*
X0107598Y0076263D01*
X0107657Y0076314D01*
X0107714Y0076369D01*
X0107769Y0076426D01*
X0107820Y0076485D01*
X0107868Y0076547D01*
X0107913Y0076611D01*
X0107955Y0076677D01*
X0107994Y0076746D01*
X0108029Y0076816D01*
X0108061Y0076888D01*
X0108089Y0076961D01*
X0108114Y0077036D01*
X0108135Y0077111D01*
X0108152Y0077188D01*
X0108166Y0077265D01*
X0108175Y0077343D01*
X0108181Y0077421D01*
X0108183Y0077500D01*
X0108181Y0077579D01*
X0108175Y0077657D01*
X0108166Y0077735D01*
X0108152Y0077812D01*
X0108135Y0077889D01*
X0108114Y0077964D01*
X0108089Y0078039D01*
X0108061Y0078112D01*
X0108029Y0078184D01*
X0107994Y0078254D01*
X0107955Y0078323D01*
X0107913Y0078389D01*
X0107868Y0078453D01*
X0107820Y0078515D01*
X0107769Y0078574D01*
X0107714Y0078631D01*
X0107657Y0078686D01*
X0107598Y0078737D01*
X0107536Y0078785D01*
X0107472Y0078830D01*
X0107406Y0078872D01*
X0107337Y0078911D01*
X0107267Y0078946D01*
X0107195Y0078978D01*
X0107122Y0079006D01*
X0107047Y0079031D01*
X0106972Y0079052D01*
X0106895Y0079069D01*
X0106818Y0079083D01*
X0106740Y0079092D01*
X0106662Y0079098D01*
X0106583Y0079100D01*
X0100083Y0079100D01*
X0100004Y0079098D01*
X0099926Y0079092D01*
X0099848Y0079083D01*
X0099771Y0079069D01*
X0099694Y0079052D01*
X0099619Y0079031D01*
X0099544Y0079006D01*
X0099471Y0078978D01*
X0099399Y0078946D01*
X0099329Y0078911D01*
X0099260Y0078872D01*
X0099194Y0078830D01*
X0099130Y0078785D01*
X0099068Y0078737D01*
X0099009Y0078686D01*
X0098952Y0078631D01*
X0098897Y0078574D01*
X0098846Y0078515D01*
X0098798Y0078453D01*
X0098753Y0078389D01*
X0098711Y0078323D01*
X0098672Y0078254D01*
X0098637Y0078184D01*
X0098605Y0078112D01*
X0098577Y0078039D01*
X0098552Y0077964D01*
X0098531Y0077889D01*
X0098514Y0077812D01*
X0098500Y0077735D01*
X0098491Y0077657D01*
X0098485Y0077579D01*
X0098483Y0077500D01*
X0098485Y0077421D01*
X0098491Y0077343D01*
X0098500Y0077265D01*
X0098514Y0077188D01*
X0098531Y0077111D01*
X0098552Y0077036D01*
X0098577Y0076961D01*
X0098605Y0076888D01*
X0098637Y0076816D01*
X0098672Y0076746D01*
X0098711Y0076677D01*
X0098753Y0076611D01*
X0098798Y0076547D01*
X0098846Y0076485D01*
X0098897Y0076426D01*
X0098952Y0076369D01*
X0099009Y0076314D01*
X0099068Y0076263D01*
X0099130Y0076215D01*
X0099194Y0076170D01*
X0099260Y0076128D01*
X0099329Y0076089D01*
X0099399Y0076054D01*
X0099471Y0076022D01*
X0099544Y0075994D01*
X0099619Y0075969D01*
X0099694Y0075948D01*
X0099771Y0075931D01*
X0099848Y0075917D01*
X0099926Y0075908D01*
X0100004Y0075902D01*
X0100083Y0075900D01*
M02*
