%
M48
M72
T01C0.0315
T02C0.0394
T03C0.0400
T04C0.0591
T05C0.0787
%
T01
X8383Y6400
X10333Y7750
T02
X10333Y5300
T03
X10333Y1150
X9333Y1150
X8333Y1150
X7333Y1150
X11333Y1150
X12333Y1150
X13333Y1150
T04
X1987Y3977
X1987Y6477
X1987Y8977
X6487Y8977
X6487Y6477
X6487Y3977
X12987Y3977
X12987Y6477
X12987Y8977
X17487Y8977
X17487Y6477
X17487Y3977
T05
X17487Y7717
X12987Y7717
X6487Y7717
X1987Y7717
M30
