G75*
%MOIN*%
%OFA0B0*%
%FSLAX25Y25*%
%IPPOS*%
%LPD*%
%AMOC8*
5,1,8,0,0,1.08239X$1,22.5*
%
%ADD10C,0.10670*%
%ADD11C,0.09500*%
%ADD12C,0.05800*%
%ADD13C,0.08274*%
%ADD14C,0.08589*%
%ADD15C,0.03900*%
%ADD16C,0.05000*%
%ADD17C,0.03943*%
D10*
X0033633Y0198950D02*
X0043903Y0198950D01*
X0043903Y0214750D02*
X0033633Y0214750D01*
X0033633Y0230550D02*
X0043903Y0230550D01*
X0198633Y0230550D02*
X0208903Y0230550D01*
X0208903Y0214750D02*
X0198633Y0214750D01*
X0198633Y0198950D02*
X0208903Y0198950D01*
D11*
X0220018Y0046000D03*
X0231818Y0027750D03*
X0220018Y0009500D03*
D12*
X0018768Y0013300D02*
X0018768Y0018700D01*
X0028768Y0018700D02*
X0028768Y0013300D01*
X0093768Y0013300D02*
X0093768Y0018700D01*
X0103768Y0018700D02*
X0103768Y0013300D01*
X0113768Y0013300D02*
X0113768Y0018700D01*
X0123768Y0018700D02*
X0123768Y0013300D01*
X0133768Y0013300D02*
X0133768Y0018700D01*
X0143768Y0018700D02*
X0143768Y0013300D01*
X0153768Y0013300D02*
X0153768Y0018700D01*
X0035018Y0182050D02*
X0035018Y0187450D01*
X0025018Y0187450D02*
X0025018Y0182050D01*
X0015018Y0182050D02*
X0015018Y0187450D01*
X0015018Y0242050D02*
X0015018Y0247450D01*
X0025018Y0247450D02*
X0025018Y0242050D01*
X0035018Y0242050D02*
X0035018Y0247450D01*
X0045018Y0247450D02*
X0045018Y0242050D01*
D13*
X0048768Y0266500D03*
X0038768Y0266500D03*
X0028768Y0266500D03*
X0111268Y0266500D03*
X0121268Y0266500D03*
X0131268Y0266500D03*
X0193768Y0266500D03*
X0203768Y0266500D03*
X0213768Y0266500D03*
D14*
X0223768Y0296000D03*
X0183768Y0296000D03*
X0141268Y0296000D03*
X0101268Y0296000D03*
X0058768Y0296000D03*
X0018768Y0296000D03*
D15*
X0067518Y0229750D03*
X0071518Y0209750D03*
X0063518Y0209750D03*
D16*
X0118768Y0049550D02*
X0118768Y0044950D01*
X0128768Y0044950D02*
X0128768Y0049550D01*
X0138768Y0049550D02*
X0138768Y0044950D01*
D17*
X0010018Y0073500D03*
M02*
