G75*
%MOIN*%
%OFA0B0*%
%FSLAX25Y25*%
%IPPOS*%
%LPD*%
%AMOC8*
5,1,8,0,0,1.08239X$1,22.5*
%
%ADD10C,0.00000*%
D10*
X0008333Y0001500D02*
X0188333Y0001500D01*
X0188333Y0106500D01*
X0008333Y0106500D01*
X0008333Y0001500D01*
X0082233Y0060500D02*
X0082233Y0067500D01*
X0082235Y0067579D01*
X0082241Y0067657D01*
X0082250Y0067735D01*
X0082264Y0067812D01*
X0082281Y0067889D01*
X0082302Y0067964D01*
X0082327Y0068039D01*
X0082355Y0068112D01*
X0082387Y0068184D01*
X0082422Y0068254D01*
X0082461Y0068323D01*
X0082503Y0068389D01*
X0082548Y0068453D01*
X0082596Y0068515D01*
X0082647Y0068574D01*
X0082702Y0068631D01*
X0082759Y0068686D01*
X0082818Y0068737D01*
X0082880Y0068785D01*
X0082944Y0068830D01*
X0083010Y0068872D01*
X0083079Y0068911D01*
X0083149Y0068946D01*
X0083221Y0068978D01*
X0083294Y0069006D01*
X0083369Y0069031D01*
X0083444Y0069052D01*
X0083521Y0069069D01*
X0083598Y0069083D01*
X0083676Y0069092D01*
X0083754Y0069098D01*
X0083833Y0069100D01*
X0083912Y0069098D01*
X0083990Y0069092D01*
X0084068Y0069083D01*
X0084145Y0069069D01*
X0084222Y0069052D01*
X0084297Y0069031D01*
X0084372Y0069006D01*
X0084445Y0068978D01*
X0084517Y0068946D01*
X0084587Y0068911D01*
X0084656Y0068872D01*
X0084722Y0068830D01*
X0084786Y0068785D01*
X0084848Y0068737D01*
X0084907Y0068686D01*
X0084964Y0068631D01*
X0085019Y0068574D01*
X0085070Y0068515D01*
X0085118Y0068453D01*
X0085163Y0068389D01*
X0085205Y0068323D01*
X0085244Y0068254D01*
X0085279Y0068184D01*
X0085311Y0068112D01*
X0085339Y0068039D01*
X0085364Y0067964D01*
X0085385Y0067889D01*
X0085402Y0067812D01*
X0085416Y0067735D01*
X0085425Y0067657D01*
X0085431Y0067579D01*
X0085433Y0067500D01*
X0085433Y0060500D01*
X0085431Y0060421D01*
X0085425Y0060343D01*
X0085416Y0060265D01*
X0085402Y0060188D01*
X0085385Y0060111D01*
X0085364Y0060036D01*
X0085339Y0059961D01*
X0085311Y0059888D01*
X0085279Y0059816D01*
X0085244Y0059746D01*
X0085205Y0059677D01*
X0085163Y0059611D01*
X0085118Y0059547D01*
X0085070Y0059485D01*
X0085019Y0059426D01*
X0084964Y0059369D01*
X0084907Y0059314D01*
X0084848Y0059263D01*
X0084786Y0059215D01*
X0084722Y0059170D01*
X0084656Y0059128D01*
X0084587Y0059089D01*
X0084517Y0059054D01*
X0084445Y0059022D01*
X0084372Y0058994D01*
X0084297Y0058969D01*
X0084222Y0058948D01*
X0084145Y0058931D01*
X0084068Y0058917D01*
X0083990Y0058908D01*
X0083912Y0058902D01*
X0083833Y0058900D01*
X0083754Y0058902D01*
X0083676Y0058908D01*
X0083598Y0058917D01*
X0083521Y0058931D01*
X0083444Y0058948D01*
X0083369Y0058969D01*
X0083294Y0058994D01*
X0083221Y0059022D01*
X0083149Y0059054D01*
X0083079Y0059089D01*
X0083010Y0059128D01*
X0082944Y0059170D01*
X0082880Y0059215D01*
X0082818Y0059263D01*
X0082759Y0059314D01*
X0082702Y0059369D01*
X0082647Y0059426D01*
X0082596Y0059485D01*
X0082548Y0059547D01*
X0082503Y0059611D01*
X0082461Y0059677D01*
X0082422Y0059746D01*
X0082387Y0059816D01*
X0082355Y0059888D01*
X0082327Y0059961D01*
X0082302Y0060036D01*
X0082281Y0060111D01*
X0082264Y0060188D01*
X0082250Y0060265D01*
X0082241Y0060343D01*
X0082235Y0060421D01*
X0082233Y0060500D01*
X0099333Y0055000D02*
X0107333Y0055000D01*
X0107421Y0054998D01*
X0107510Y0054992D01*
X0107598Y0054982D01*
X0107685Y0054969D01*
X0107772Y0054951D01*
X0107858Y0054930D01*
X0107943Y0054905D01*
X0108026Y0054876D01*
X0108109Y0054843D01*
X0108189Y0054807D01*
X0108268Y0054768D01*
X0108346Y0054725D01*
X0108421Y0054678D01*
X0108494Y0054628D01*
X0108565Y0054575D01*
X0108634Y0054519D01*
X0108700Y0054460D01*
X0108763Y0054398D01*
X0108823Y0054334D01*
X0108881Y0054267D01*
X0108935Y0054197D01*
X0108987Y0054125D01*
X0109035Y0054051D01*
X0109080Y0053974D01*
X0109121Y0053896D01*
X0109159Y0053816D01*
X0109193Y0053735D01*
X0109224Y0053652D01*
X0109251Y0053567D01*
X0109274Y0053482D01*
X0109293Y0053396D01*
X0109309Y0053308D01*
X0109321Y0053221D01*
X0109329Y0053133D01*
X0109333Y0053044D01*
X0109333Y0052956D01*
X0109329Y0052867D01*
X0109321Y0052779D01*
X0109309Y0052692D01*
X0109293Y0052604D01*
X0109274Y0052518D01*
X0109251Y0052433D01*
X0109224Y0052348D01*
X0109193Y0052265D01*
X0109159Y0052184D01*
X0109121Y0052104D01*
X0109080Y0052026D01*
X0109035Y0051949D01*
X0108987Y0051875D01*
X0108935Y0051803D01*
X0108881Y0051733D01*
X0108823Y0051666D01*
X0108763Y0051602D01*
X0108700Y0051540D01*
X0108634Y0051481D01*
X0108565Y0051425D01*
X0108494Y0051372D01*
X0108421Y0051322D01*
X0108346Y0051275D01*
X0108268Y0051232D01*
X0108189Y0051193D01*
X0108109Y0051157D01*
X0108026Y0051124D01*
X0107943Y0051095D01*
X0107858Y0051070D01*
X0107772Y0051049D01*
X0107685Y0051031D01*
X0107598Y0051018D01*
X0107510Y0051008D01*
X0107421Y0051002D01*
X0107333Y0051000D01*
X0099333Y0051000D01*
X0099245Y0051002D01*
X0099156Y0051008D01*
X0099068Y0051018D01*
X0098981Y0051031D01*
X0098894Y0051049D01*
X0098808Y0051070D01*
X0098723Y0051095D01*
X0098640Y0051124D01*
X0098557Y0051157D01*
X0098477Y0051193D01*
X0098398Y0051232D01*
X0098320Y0051275D01*
X0098245Y0051322D01*
X0098172Y0051372D01*
X0098101Y0051425D01*
X0098032Y0051481D01*
X0097966Y0051540D01*
X0097903Y0051602D01*
X0097843Y0051666D01*
X0097785Y0051733D01*
X0097731Y0051803D01*
X0097679Y0051875D01*
X0097631Y0051949D01*
X0097586Y0052026D01*
X0097545Y0052104D01*
X0097507Y0052184D01*
X0097473Y0052265D01*
X0097442Y0052348D01*
X0097415Y0052433D01*
X0097392Y0052518D01*
X0097373Y0052604D01*
X0097357Y0052692D01*
X0097345Y0052779D01*
X0097337Y0052867D01*
X0097333Y0052956D01*
X0097333Y0053044D01*
X0097337Y0053133D01*
X0097345Y0053221D01*
X0097357Y0053308D01*
X0097373Y0053396D01*
X0097392Y0053482D01*
X0097415Y0053567D01*
X0097442Y0053652D01*
X0097473Y0053735D01*
X0097507Y0053816D01*
X0097545Y0053896D01*
X0097586Y0053974D01*
X0097631Y0054051D01*
X0097679Y0054125D01*
X0097731Y0054197D01*
X0097785Y0054267D01*
X0097843Y0054334D01*
X0097903Y0054398D01*
X0097966Y0054460D01*
X0098032Y0054519D01*
X0098101Y0054575D01*
X0098172Y0054628D01*
X0098245Y0054678D01*
X0098320Y0054725D01*
X0098398Y0054768D01*
X0098477Y0054807D01*
X0098557Y0054843D01*
X0098640Y0054876D01*
X0098723Y0054905D01*
X0098808Y0054930D01*
X0098894Y0054951D01*
X0098981Y0054969D01*
X0099068Y0054982D01*
X0099156Y0054992D01*
X0099245Y0054998D01*
X0099333Y0055000D01*
X0100083Y0075900D02*
X0106583Y0075900D01*
X0106662Y0075902D01*
X0106740Y0075908D01*
X0106818Y0075917D01*
X0106895Y0075931D01*
X0106972Y0075948D01*
X0107047Y0075969D01*
X0107122Y0075994D01*
X0107195Y0076022D01*
X0107267Y0076054D01*
X0107337Y0076089D01*
X0107406Y0076128D01*
X0107472Y0076170D01*
X0107536Y0076215D01*
X0107598Y0076263D01*
X0107657Y0076314D01*
X0107714Y0076369D01*
X0107769Y0076426D01*
X0107820Y0076485D01*
X0107868Y0076547D01*
X0107913Y0076611D01*
X0107955Y0076677D01*
X0107994Y0076746D01*
X0108029Y0076816D01*
X0108061Y0076888D01*
X0108089Y0076961D01*
X0108114Y0077036D01*
X0108135Y0077111D01*
X0108152Y0077188D01*
X0108166Y0077265D01*
X0108175Y0077343D01*
X0108181Y0077421D01*
X0108183Y0077500D01*
X0108181Y0077579D01*
X0108175Y0077657D01*
X0108166Y0077735D01*
X0108152Y0077812D01*
X0108135Y0077889D01*
X0108114Y0077964D01*
X0108089Y0078039D01*
X0108061Y0078112D01*
X0108029Y0078184D01*
X0107994Y0078254D01*
X0107955Y0078323D01*
X0107913Y0078389D01*
X0107868Y0078453D01*
X0107820Y0078515D01*
X0107769Y0078574D01*
X0107714Y0078631D01*
X0107657Y0078686D01*
X0107598Y0078737D01*
X0107536Y0078785D01*
X0107472Y0078830D01*
X0107406Y0078872D01*
X0107337Y0078911D01*
X0107267Y0078946D01*
X0107195Y0078978D01*
X0107122Y0079006D01*
X0107047Y0079031D01*
X0106972Y0079052D01*
X0106895Y0079069D01*
X0106818Y0079083D01*
X0106740Y0079092D01*
X0106662Y0079098D01*
X0106583Y0079100D01*
X0100083Y0079100D01*
X0100004Y0079098D01*
X0099926Y0079092D01*
X0099848Y0079083D01*
X0099771Y0079069D01*
X0099694Y0079052D01*
X0099619Y0079031D01*
X0099544Y0079006D01*
X0099471Y0078978D01*
X0099399Y0078946D01*
X0099329Y0078911D01*
X0099260Y0078872D01*
X0099194Y0078830D01*
X0099130Y0078785D01*
X0099068Y0078737D01*
X0099009Y0078686D01*
X0098952Y0078631D01*
X0098897Y0078574D01*
X0098846Y0078515D01*
X0098798Y0078453D01*
X0098753Y0078389D01*
X0098711Y0078323D01*
X0098672Y0078254D01*
X0098637Y0078184D01*
X0098605Y0078112D01*
X0098577Y0078039D01*
X0098552Y0077964D01*
X0098531Y0077889D01*
X0098514Y0077812D01*
X0098500Y0077735D01*
X0098491Y0077657D01*
X0098485Y0077579D01*
X0098483Y0077500D01*
X0098485Y0077421D01*
X0098491Y0077343D01*
X0098500Y0077265D01*
X0098514Y0077188D01*
X0098531Y0077111D01*
X0098552Y0077036D01*
X0098577Y0076961D01*
X0098605Y0076888D01*
X0098637Y0076816D01*
X0098672Y0076746D01*
X0098711Y0076677D01*
X0098753Y0076611D01*
X0098798Y0076547D01*
X0098846Y0076485D01*
X0098897Y0076426D01*
X0098952Y0076369D01*
X0099009Y0076314D01*
X0099068Y0076263D01*
X0099130Y0076215D01*
X0099194Y0076170D01*
X0099260Y0076128D01*
X0099329Y0076089D01*
X0099399Y0076054D01*
X0099471Y0076022D01*
X0099544Y0075994D01*
X0099619Y0075969D01*
X0099694Y0075948D01*
X0099771Y0075931D01*
X0099848Y0075917D01*
X0099926Y0075908D01*
X0100004Y0075902D01*
X0100083Y0075900D01*
X0125932Y0077169D02*
X0125934Y0077294D01*
X0125940Y0077419D01*
X0125950Y0077543D01*
X0125964Y0077667D01*
X0125981Y0077791D01*
X0126003Y0077914D01*
X0126029Y0078036D01*
X0126058Y0078158D01*
X0126091Y0078278D01*
X0126129Y0078397D01*
X0126169Y0078516D01*
X0126214Y0078632D01*
X0126262Y0078747D01*
X0126314Y0078861D01*
X0126370Y0078973D01*
X0126429Y0079083D01*
X0126491Y0079191D01*
X0126557Y0079298D01*
X0126626Y0079402D01*
X0126699Y0079503D01*
X0126774Y0079603D01*
X0126853Y0079700D01*
X0126935Y0079794D01*
X0127020Y0079886D01*
X0127107Y0079975D01*
X0127198Y0080061D01*
X0127291Y0080144D01*
X0127387Y0080225D01*
X0127485Y0080302D01*
X0127585Y0080376D01*
X0127688Y0080447D01*
X0127793Y0080514D01*
X0127901Y0080579D01*
X0128010Y0080639D01*
X0128121Y0080697D01*
X0128234Y0080750D01*
X0128348Y0080800D01*
X0128464Y0080847D01*
X0128581Y0080889D01*
X0128700Y0080928D01*
X0128820Y0080964D01*
X0128941Y0080995D01*
X0129063Y0081023D01*
X0129185Y0081046D01*
X0129309Y0081066D01*
X0129433Y0081082D01*
X0129557Y0081094D01*
X0129682Y0081102D01*
X0129807Y0081106D01*
X0129931Y0081106D01*
X0130056Y0081102D01*
X0130181Y0081094D01*
X0130305Y0081082D01*
X0130429Y0081066D01*
X0130553Y0081046D01*
X0130675Y0081023D01*
X0130797Y0080995D01*
X0130918Y0080964D01*
X0131038Y0080928D01*
X0131157Y0080889D01*
X0131274Y0080847D01*
X0131390Y0080800D01*
X0131504Y0080750D01*
X0131617Y0080697D01*
X0131728Y0080639D01*
X0131838Y0080579D01*
X0131945Y0080514D01*
X0132050Y0080447D01*
X0132153Y0080376D01*
X0132253Y0080302D01*
X0132351Y0080225D01*
X0132447Y0080144D01*
X0132540Y0080061D01*
X0132631Y0079975D01*
X0132718Y0079886D01*
X0132803Y0079794D01*
X0132885Y0079700D01*
X0132964Y0079603D01*
X0133039Y0079503D01*
X0133112Y0079402D01*
X0133181Y0079298D01*
X0133247Y0079191D01*
X0133309Y0079083D01*
X0133368Y0078973D01*
X0133424Y0078861D01*
X0133476Y0078747D01*
X0133524Y0078632D01*
X0133569Y0078516D01*
X0133609Y0078397D01*
X0133647Y0078278D01*
X0133680Y0078158D01*
X0133709Y0078036D01*
X0133735Y0077914D01*
X0133757Y0077791D01*
X0133774Y0077667D01*
X0133788Y0077543D01*
X0133798Y0077419D01*
X0133804Y0077294D01*
X0133806Y0077169D01*
X0133804Y0077044D01*
X0133798Y0076919D01*
X0133788Y0076795D01*
X0133774Y0076671D01*
X0133757Y0076547D01*
X0133735Y0076424D01*
X0133709Y0076302D01*
X0133680Y0076180D01*
X0133647Y0076060D01*
X0133609Y0075941D01*
X0133569Y0075822D01*
X0133524Y0075706D01*
X0133476Y0075591D01*
X0133424Y0075477D01*
X0133368Y0075365D01*
X0133309Y0075255D01*
X0133247Y0075147D01*
X0133181Y0075040D01*
X0133112Y0074936D01*
X0133039Y0074835D01*
X0132964Y0074735D01*
X0132885Y0074638D01*
X0132803Y0074544D01*
X0132718Y0074452D01*
X0132631Y0074363D01*
X0132540Y0074277D01*
X0132447Y0074194D01*
X0132351Y0074113D01*
X0132253Y0074036D01*
X0132153Y0073962D01*
X0132050Y0073891D01*
X0131945Y0073824D01*
X0131837Y0073759D01*
X0131728Y0073699D01*
X0131617Y0073641D01*
X0131504Y0073588D01*
X0131390Y0073538D01*
X0131274Y0073491D01*
X0131157Y0073449D01*
X0131038Y0073410D01*
X0130918Y0073374D01*
X0130797Y0073343D01*
X0130675Y0073315D01*
X0130553Y0073292D01*
X0130429Y0073272D01*
X0130305Y0073256D01*
X0130181Y0073244D01*
X0130056Y0073236D01*
X0129931Y0073232D01*
X0129807Y0073232D01*
X0129682Y0073236D01*
X0129557Y0073244D01*
X0129433Y0073256D01*
X0129309Y0073272D01*
X0129185Y0073292D01*
X0129063Y0073315D01*
X0128941Y0073343D01*
X0128820Y0073374D01*
X0128700Y0073410D01*
X0128581Y0073449D01*
X0128464Y0073491D01*
X0128348Y0073538D01*
X0128234Y0073588D01*
X0128121Y0073641D01*
X0128010Y0073699D01*
X0127900Y0073759D01*
X0127793Y0073824D01*
X0127688Y0073891D01*
X0127585Y0073962D01*
X0127485Y0074036D01*
X0127387Y0074113D01*
X0127291Y0074194D01*
X0127198Y0074277D01*
X0127107Y0074363D01*
X0127020Y0074452D01*
X0126935Y0074544D01*
X0126853Y0074638D01*
X0126774Y0074735D01*
X0126699Y0074835D01*
X0126626Y0074936D01*
X0126557Y0075040D01*
X0126491Y0075147D01*
X0126429Y0075255D01*
X0126370Y0075365D01*
X0126314Y0075477D01*
X0126262Y0075591D01*
X0126214Y0075706D01*
X0126169Y0075822D01*
X0126129Y0075941D01*
X0126091Y0076060D01*
X0126058Y0076180D01*
X0126029Y0076302D01*
X0126003Y0076424D01*
X0125981Y0076547D01*
X0125964Y0076671D01*
X0125950Y0076795D01*
X0125940Y0076919D01*
X0125934Y0077044D01*
X0125932Y0077169D01*
X0170932Y0077169D02*
X0170934Y0077294D01*
X0170940Y0077419D01*
X0170950Y0077543D01*
X0170964Y0077667D01*
X0170981Y0077791D01*
X0171003Y0077914D01*
X0171029Y0078036D01*
X0171058Y0078158D01*
X0171091Y0078278D01*
X0171129Y0078397D01*
X0171169Y0078516D01*
X0171214Y0078632D01*
X0171262Y0078747D01*
X0171314Y0078861D01*
X0171370Y0078973D01*
X0171429Y0079083D01*
X0171491Y0079191D01*
X0171557Y0079298D01*
X0171626Y0079402D01*
X0171699Y0079503D01*
X0171774Y0079603D01*
X0171853Y0079700D01*
X0171935Y0079794D01*
X0172020Y0079886D01*
X0172107Y0079975D01*
X0172198Y0080061D01*
X0172291Y0080144D01*
X0172387Y0080225D01*
X0172485Y0080302D01*
X0172585Y0080376D01*
X0172688Y0080447D01*
X0172793Y0080514D01*
X0172901Y0080579D01*
X0173010Y0080639D01*
X0173121Y0080697D01*
X0173234Y0080750D01*
X0173348Y0080800D01*
X0173464Y0080847D01*
X0173581Y0080889D01*
X0173700Y0080928D01*
X0173820Y0080964D01*
X0173941Y0080995D01*
X0174063Y0081023D01*
X0174185Y0081046D01*
X0174309Y0081066D01*
X0174433Y0081082D01*
X0174557Y0081094D01*
X0174682Y0081102D01*
X0174807Y0081106D01*
X0174931Y0081106D01*
X0175056Y0081102D01*
X0175181Y0081094D01*
X0175305Y0081082D01*
X0175429Y0081066D01*
X0175553Y0081046D01*
X0175675Y0081023D01*
X0175797Y0080995D01*
X0175918Y0080964D01*
X0176038Y0080928D01*
X0176157Y0080889D01*
X0176274Y0080847D01*
X0176390Y0080800D01*
X0176504Y0080750D01*
X0176617Y0080697D01*
X0176728Y0080639D01*
X0176838Y0080579D01*
X0176945Y0080514D01*
X0177050Y0080447D01*
X0177153Y0080376D01*
X0177253Y0080302D01*
X0177351Y0080225D01*
X0177447Y0080144D01*
X0177540Y0080061D01*
X0177631Y0079975D01*
X0177718Y0079886D01*
X0177803Y0079794D01*
X0177885Y0079700D01*
X0177964Y0079603D01*
X0178039Y0079503D01*
X0178112Y0079402D01*
X0178181Y0079298D01*
X0178247Y0079191D01*
X0178309Y0079083D01*
X0178368Y0078973D01*
X0178424Y0078861D01*
X0178476Y0078747D01*
X0178524Y0078632D01*
X0178569Y0078516D01*
X0178609Y0078397D01*
X0178647Y0078278D01*
X0178680Y0078158D01*
X0178709Y0078036D01*
X0178735Y0077914D01*
X0178757Y0077791D01*
X0178774Y0077667D01*
X0178788Y0077543D01*
X0178798Y0077419D01*
X0178804Y0077294D01*
X0178806Y0077169D01*
X0178804Y0077044D01*
X0178798Y0076919D01*
X0178788Y0076795D01*
X0178774Y0076671D01*
X0178757Y0076547D01*
X0178735Y0076424D01*
X0178709Y0076302D01*
X0178680Y0076180D01*
X0178647Y0076060D01*
X0178609Y0075941D01*
X0178569Y0075822D01*
X0178524Y0075706D01*
X0178476Y0075591D01*
X0178424Y0075477D01*
X0178368Y0075365D01*
X0178309Y0075255D01*
X0178247Y0075147D01*
X0178181Y0075040D01*
X0178112Y0074936D01*
X0178039Y0074835D01*
X0177964Y0074735D01*
X0177885Y0074638D01*
X0177803Y0074544D01*
X0177718Y0074452D01*
X0177631Y0074363D01*
X0177540Y0074277D01*
X0177447Y0074194D01*
X0177351Y0074113D01*
X0177253Y0074036D01*
X0177153Y0073962D01*
X0177050Y0073891D01*
X0176945Y0073824D01*
X0176837Y0073759D01*
X0176728Y0073699D01*
X0176617Y0073641D01*
X0176504Y0073588D01*
X0176390Y0073538D01*
X0176274Y0073491D01*
X0176157Y0073449D01*
X0176038Y0073410D01*
X0175918Y0073374D01*
X0175797Y0073343D01*
X0175675Y0073315D01*
X0175553Y0073292D01*
X0175429Y0073272D01*
X0175305Y0073256D01*
X0175181Y0073244D01*
X0175056Y0073236D01*
X0174931Y0073232D01*
X0174807Y0073232D01*
X0174682Y0073236D01*
X0174557Y0073244D01*
X0174433Y0073256D01*
X0174309Y0073272D01*
X0174185Y0073292D01*
X0174063Y0073315D01*
X0173941Y0073343D01*
X0173820Y0073374D01*
X0173700Y0073410D01*
X0173581Y0073449D01*
X0173464Y0073491D01*
X0173348Y0073538D01*
X0173234Y0073588D01*
X0173121Y0073641D01*
X0173010Y0073699D01*
X0172900Y0073759D01*
X0172793Y0073824D01*
X0172688Y0073891D01*
X0172585Y0073962D01*
X0172485Y0074036D01*
X0172387Y0074113D01*
X0172291Y0074194D01*
X0172198Y0074277D01*
X0172107Y0074363D01*
X0172020Y0074452D01*
X0171935Y0074544D01*
X0171853Y0074638D01*
X0171774Y0074735D01*
X0171699Y0074835D01*
X0171626Y0074936D01*
X0171557Y0075040D01*
X0171491Y0075147D01*
X0171429Y0075255D01*
X0171370Y0075365D01*
X0171314Y0075477D01*
X0171262Y0075591D01*
X0171214Y0075706D01*
X0171169Y0075822D01*
X0171129Y0075941D01*
X0171091Y0076060D01*
X0171058Y0076180D01*
X0171029Y0076302D01*
X0171003Y0076424D01*
X0170981Y0076547D01*
X0170964Y0076671D01*
X0170950Y0076795D01*
X0170940Y0076919D01*
X0170934Y0077044D01*
X0170932Y0077169D01*
X0060932Y0077169D02*
X0060934Y0077294D01*
X0060940Y0077419D01*
X0060950Y0077543D01*
X0060964Y0077667D01*
X0060981Y0077791D01*
X0061003Y0077914D01*
X0061029Y0078036D01*
X0061058Y0078158D01*
X0061091Y0078278D01*
X0061129Y0078397D01*
X0061169Y0078516D01*
X0061214Y0078632D01*
X0061262Y0078747D01*
X0061314Y0078861D01*
X0061370Y0078973D01*
X0061429Y0079083D01*
X0061491Y0079191D01*
X0061557Y0079298D01*
X0061626Y0079402D01*
X0061699Y0079503D01*
X0061774Y0079603D01*
X0061853Y0079700D01*
X0061935Y0079794D01*
X0062020Y0079886D01*
X0062107Y0079975D01*
X0062198Y0080061D01*
X0062291Y0080144D01*
X0062387Y0080225D01*
X0062485Y0080302D01*
X0062585Y0080376D01*
X0062688Y0080447D01*
X0062793Y0080514D01*
X0062901Y0080579D01*
X0063010Y0080639D01*
X0063121Y0080697D01*
X0063234Y0080750D01*
X0063348Y0080800D01*
X0063464Y0080847D01*
X0063581Y0080889D01*
X0063700Y0080928D01*
X0063820Y0080964D01*
X0063941Y0080995D01*
X0064063Y0081023D01*
X0064185Y0081046D01*
X0064309Y0081066D01*
X0064433Y0081082D01*
X0064557Y0081094D01*
X0064682Y0081102D01*
X0064807Y0081106D01*
X0064931Y0081106D01*
X0065056Y0081102D01*
X0065181Y0081094D01*
X0065305Y0081082D01*
X0065429Y0081066D01*
X0065553Y0081046D01*
X0065675Y0081023D01*
X0065797Y0080995D01*
X0065918Y0080964D01*
X0066038Y0080928D01*
X0066157Y0080889D01*
X0066274Y0080847D01*
X0066390Y0080800D01*
X0066504Y0080750D01*
X0066617Y0080697D01*
X0066728Y0080639D01*
X0066838Y0080579D01*
X0066945Y0080514D01*
X0067050Y0080447D01*
X0067153Y0080376D01*
X0067253Y0080302D01*
X0067351Y0080225D01*
X0067447Y0080144D01*
X0067540Y0080061D01*
X0067631Y0079975D01*
X0067718Y0079886D01*
X0067803Y0079794D01*
X0067885Y0079700D01*
X0067964Y0079603D01*
X0068039Y0079503D01*
X0068112Y0079402D01*
X0068181Y0079298D01*
X0068247Y0079191D01*
X0068309Y0079083D01*
X0068368Y0078973D01*
X0068424Y0078861D01*
X0068476Y0078747D01*
X0068524Y0078632D01*
X0068569Y0078516D01*
X0068609Y0078397D01*
X0068647Y0078278D01*
X0068680Y0078158D01*
X0068709Y0078036D01*
X0068735Y0077914D01*
X0068757Y0077791D01*
X0068774Y0077667D01*
X0068788Y0077543D01*
X0068798Y0077419D01*
X0068804Y0077294D01*
X0068806Y0077169D01*
X0068804Y0077044D01*
X0068798Y0076919D01*
X0068788Y0076795D01*
X0068774Y0076671D01*
X0068757Y0076547D01*
X0068735Y0076424D01*
X0068709Y0076302D01*
X0068680Y0076180D01*
X0068647Y0076060D01*
X0068609Y0075941D01*
X0068569Y0075822D01*
X0068524Y0075706D01*
X0068476Y0075591D01*
X0068424Y0075477D01*
X0068368Y0075365D01*
X0068309Y0075255D01*
X0068247Y0075147D01*
X0068181Y0075040D01*
X0068112Y0074936D01*
X0068039Y0074835D01*
X0067964Y0074735D01*
X0067885Y0074638D01*
X0067803Y0074544D01*
X0067718Y0074452D01*
X0067631Y0074363D01*
X0067540Y0074277D01*
X0067447Y0074194D01*
X0067351Y0074113D01*
X0067253Y0074036D01*
X0067153Y0073962D01*
X0067050Y0073891D01*
X0066945Y0073824D01*
X0066837Y0073759D01*
X0066728Y0073699D01*
X0066617Y0073641D01*
X0066504Y0073588D01*
X0066390Y0073538D01*
X0066274Y0073491D01*
X0066157Y0073449D01*
X0066038Y0073410D01*
X0065918Y0073374D01*
X0065797Y0073343D01*
X0065675Y0073315D01*
X0065553Y0073292D01*
X0065429Y0073272D01*
X0065305Y0073256D01*
X0065181Y0073244D01*
X0065056Y0073236D01*
X0064931Y0073232D01*
X0064807Y0073232D01*
X0064682Y0073236D01*
X0064557Y0073244D01*
X0064433Y0073256D01*
X0064309Y0073272D01*
X0064185Y0073292D01*
X0064063Y0073315D01*
X0063941Y0073343D01*
X0063820Y0073374D01*
X0063700Y0073410D01*
X0063581Y0073449D01*
X0063464Y0073491D01*
X0063348Y0073538D01*
X0063234Y0073588D01*
X0063121Y0073641D01*
X0063010Y0073699D01*
X0062900Y0073759D01*
X0062793Y0073824D01*
X0062688Y0073891D01*
X0062585Y0073962D01*
X0062485Y0074036D01*
X0062387Y0074113D01*
X0062291Y0074194D01*
X0062198Y0074277D01*
X0062107Y0074363D01*
X0062020Y0074452D01*
X0061935Y0074544D01*
X0061853Y0074638D01*
X0061774Y0074735D01*
X0061699Y0074835D01*
X0061626Y0074936D01*
X0061557Y0075040D01*
X0061491Y0075147D01*
X0061429Y0075255D01*
X0061370Y0075365D01*
X0061314Y0075477D01*
X0061262Y0075591D01*
X0061214Y0075706D01*
X0061169Y0075822D01*
X0061129Y0075941D01*
X0061091Y0076060D01*
X0061058Y0076180D01*
X0061029Y0076302D01*
X0061003Y0076424D01*
X0060981Y0076547D01*
X0060964Y0076671D01*
X0060950Y0076795D01*
X0060940Y0076919D01*
X0060934Y0077044D01*
X0060932Y0077169D01*
X0015932Y0077169D02*
X0015934Y0077294D01*
X0015940Y0077419D01*
X0015950Y0077543D01*
X0015964Y0077667D01*
X0015981Y0077791D01*
X0016003Y0077914D01*
X0016029Y0078036D01*
X0016058Y0078158D01*
X0016091Y0078278D01*
X0016129Y0078397D01*
X0016169Y0078516D01*
X0016214Y0078632D01*
X0016262Y0078747D01*
X0016314Y0078861D01*
X0016370Y0078973D01*
X0016429Y0079083D01*
X0016491Y0079191D01*
X0016557Y0079298D01*
X0016626Y0079402D01*
X0016699Y0079503D01*
X0016774Y0079603D01*
X0016853Y0079700D01*
X0016935Y0079794D01*
X0017020Y0079886D01*
X0017107Y0079975D01*
X0017198Y0080061D01*
X0017291Y0080144D01*
X0017387Y0080225D01*
X0017485Y0080302D01*
X0017585Y0080376D01*
X0017688Y0080447D01*
X0017793Y0080514D01*
X0017901Y0080579D01*
X0018010Y0080639D01*
X0018121Y0080697D01*
X0018234Y0080750D01*
X0018348Y0080800D01*
X0018464Y0080847D01*
X0018581Y0080889D01*
X0018700Y0080928D01*
X0018820Y0080964D01*
X0018941Y0080995D01*
X0019063Y0081023D01*
X0019185Y0081046D01*
X0019309Y0081066D01*
X0019433Y0081082D01*
X0019557Y0081094D01*
X0019682Y0081102D01*
X0019807Y0081106D01*
X0019931Y0081106D01*
X0020056Y0081102D01*
X0020181Y0081094D01*
X0020305Y0081082D01*
X0020429Y0081066D01*
X0020553Y0081046D01*
X0020675Y0081023D01*
X0020797Y0080995D01*
X0020918Y0080964D01*
X0021038Y0080928D01*
X0021157Y0080889D01*
X0021274Y0080847D01*
X0021390Y0080800D01*
X0021504Y0080750D01*
X0021617Y0080697D01*
X0021728Y0080639D01*
X0021838Y0080579D01*
X0021945Y0080514D01*
X0022050Y0080447D01*
X0022153Y0080376D01*
X0022253Y0080302D01*
X0022351Y0080225D01*
X0022447Y0080144D01*
X0022540Y0080061D01*
X0022631Y0079975D01*
X0022718Y0079886D01*
X0022803Y0079794D01*
X0022885Y0079700D01*
X0022964Y0079603D01*
X0023039Y0079503D01*
X0023112Y0079402D01*
X0023181Y0079298D01*
X0023247Y0079191D01*
X0023309Y0079083D01*
X0023368Y0078973D01*
X0023424Y0078861D01*
X0023476Y0078747D01*
X0023524Y0078632D01*
X0023569Y0078516D01*
X0023609Y0078397D01*
X0023647Y0078278D01*
X0023680Y0078158D01*
X0023709Y0078036D01*
X0023735Y0077914D01*
X0023757Y0077791D01*
X0023774Y0077667D01*
X0023788Y0077543D01*
X0023798Y0077419D01*
X0023804Y0077294D01*
X0023806Y0077169D01*
X0023804Y0077044D01*
X0023798Y0076919D01*
X0023788Y0076795D01*
X0023774Y0076671D01*
X0023757Y0076547D01*
X0023735Y0076424D01*
X0023709Y0076302D01*
X0023680Y0076180D01*
X0023647Y0076060D01*
X0023609Y0075941D01*
X0023569Y0075822D01*
X0023524Y0075706D01*
X0023476Y0075591D01*
X0023424Y0075477D01*
X0023368Y0075365D01*
X0023309Y0075255D01*
X0023247Y0075147D01*
X0023181Y0075040D01*
X0023112Y0074936D01*
X0023039Y0074835D01*
X0022964Y0074735D01*
X0022885Y0074638D01*
X0022803Y0074544D01*
X0022718Y0074452D01*
X0022631Y0074363D01*
X0022540Y0074277D01*
X0022447Y0074194D01*
X0022351Y0074113D01*
X0022253Y0074036D01*
X0022153Y0073962D01*
X0022050Y0073891D01*
X0021945Y0073824D01*
X0021837Y0073759D01*
X0021728Y0073699D01*
X0021617Y0073641D01*
X0021504Y0073588D01*
X0021390Y0073538D01*
X0021274Y0073491D01*
X0021157Y0073449D01*
X0021038Y0073410D01*
X0020918Y0073374D01*
X0020797Y0073343D01*
X0020675Y0073315D01*
X0020553Y0073292D01*
X0020429Y0073272D01*
X0020305Y0073256D01*
X0020181Y0073244D01*
X0020056Y0073236D01*
X0019931Y0073232D01*
X0019807Y0073232D01*
X0019682Y0073236D01*
X0019557Y0073244D01*
X0019433Y0073256D01*
X0019309Y0073272D01*
X0019185Y0073292D01*
X0019063Y0073315D01*
X0018941Y0073343D01*
X0018820Y0073374D01*
X0018700Y0073410D01*
X0018581Y0073449D01*
X0018464Y0073491D01*
X0018348Y0073538D01*
X0018234Y0073588D01*
X0018121Y0073641D01*
X0018010Y0073699D01*
X0017900Y0073759D01*
X0017793Y0073824D01*
X0017688Y0073891D01*
X0017585Y0073962D01*
X0017485Y0074036D01*
X0017387Y0074113D01*
X0017291Y0074194D01*
X0017198Y0074277D01*
X0017107Y0074363D01*
X0017020Y0074452D01*
X0016935Y0074544D01*
X0016853Y0074638D01*
X0016774Y0074735D01*
X0016699Y0074835D01*
X0016626Y0074936D01*
X0016557Y0075040D01*
X0016491Y0075147D01*
X0016429Y0075255D01*
X0016370Y0075365D01*
X0016314Y0075477D01*
X0016262Y0075591D01*
X0016214Y0075706D01*
X0016169Y0075822D01*
X0016129Y0075941D01*
X0016091Y0076060D01*
X0016058Y0076180D01*
X0016029Y0076302D01*
X0016003Y0076424D01*
X0015981Y0076547D01*
X0015964Y0076671D01*
X0015950Y0076795D01*
X0015940Y0076919D01*
X0015934Y0077044D01*
X0015932Y0077169D01*
M02*
