%
M48
M72
T01C0.0118
T02C0.0236
T03C0.0320
T04C0.0350
T05C0.0400
T06C0.0433
T07C0.0630
T08C0.0700
T09C0.0790
%
T01
X1377Y2600
X2377Y2600
X3377Y2600
X5377Y3600
X5377Y5100
X5377Y6100
X6377Y4725
X7877Y3850
X7627Y1225
X10377Y3850
X5877Y9100
X6627Y10475
X9127Y10475
X9252Y12600
X9502Y15350
X7377Y15475
X6877Y13600
X3877Y10600
X2877Y11600
X1877Y11600
X1502Y13600
X2002Y16100
X3502Y15100
X7752Y19475
X9377Y19850
X9377Y20350
X9252Y21350
X9377Y22850
X9252Y24475
X9252Y25975
X8252Y26850
X7252Y25600
X6752Y25975
X5002Y24225
X6127Y21975
X7502Y22100
X10877Y20975
X11252Y21850
X11627Y22350
X13002Y23350
X13002Y23850
X12377Y25225
X12002Y25725
X14502Y28100
X15252Y28850
X16252Y28850
X16752Y28850
X15752Y27600
X15752Y24725
X16252Y24725
X16752Y23600
X16127Y22975
X15252Y24100
X14502Y21350
X13127Y19850
X11627Y20475
X16752Y19850
X17002Y20725
X19002Y24600
X17252Y30975
X15877Y30975
X8252Y28975
X18002Y15350
X17002Y14100
X17502Y13225
X16127Y12600
X17127Y10725
X16502Y8225
X18377Y7975
X19877Y7975
X22627Y10725
X22252Y12850
X21127Y13975
X21002Y14975
X21252Y15975
X21377Y17850
X11502Y11975
X3877Y8100
X2002Y9100
X877Y4100
T02
X1002Y7350
T03
X11877Y4725
X12877Y4725
X13877Y4725
T04
X7152Y20975
X6352Y20975
X6752Y22975
T05
X1877Y1600
X2877Y1600
X9377Y1600
X10377Y1600
X11377Y1600
X12377Y1600
X13377Y1600
X14377Y1600
X15377Y1600
X3502Y18475
X2502Y18475
X1502Y18475
X1502Y24475
X2502Y24475
X3502Y24475
X4502Y24475
T06
X4877Y26650
X3877Y26650
X2877Y26650
X11127Y26650
X12127Y26650
X13127Y26650
X19377Y26650
X20377Y26650
X21377Y26650
T07
X22377Y29600
X18377Y29600
X14127Y29600
X10127Y29600
X5877Y29600
X1877Y29600
T08
X22002Y4600
X23182Y2775
X22002Y950
T09
X20377Y19895
X20377Y21475
X20377Y23055
X3877Y23055
X3877Y21475
X3877Y19895
M30
