G75*
%MOIN*%
%OFA0B0*%
%FSLAX25Y25*%
%IPPOS*%
%LPD*%
%AMOC8*
5,1,8,0,0,1.08239X$1,22.5*
%
%ADD10C,0.10270*%
%ADD11C,0.09100*%
%ADD12C,0.05400*%
%ADD13C,0.07874*%
%ADD14C,0.08189*%
%ADD15C,0.04600*%
%ADD16C,0.01000*%
%ADD17C,0.02181*%
%ADD18C,0.03543*%
%ADD19C,0.01600*%
D10*
X0033633Y0198950D02*
X0043903Y0198950D01*
X0043903Y0214750D02*
X0033633Y0214750D01*
X0033633Y0230550D02*
X0043903Y0230550D01*
X0198633Y0230550D02*
X0208903Y0230550D01*
X0208903Y0214750D02*
X0198633Y0214750D01*
X0198633Y0198950D02*
X0208903Y0198950D01*
D11*
X0220018Y0046000D03*
X0231818Y0027750D03*
X0220018Y0009500D03*
D12*
X0153768Y0013300D02*
X0153768Y0018700D01*
X0143768Y0018700D02*
X0143768Y0013300D01*
X0133768Y0013300D02*
X0133768Y0018700D01*
X0123768Y0018700D02*
X0123768Y0013300D01*
X0113768Y0013300D02*
X0113768Y0018700D01*
X0103768Y0018700D02*
X0103768Y0013300D01*
X0093768Y0013300D02*
X0093768Y0018700D01*
X0028768Y0018700D02*
X0028768Y0013300D01*
X0018768Y0013300D02*
X0018768Y0018700D01*
X0015018Y0182050D02*
X0015018Y0187450D01*
X0025018Y0187450D02*
X0025018Y0182050D01*
X0035018Y0182050D02*
X0035018Y0187450D01*
X0035018Y0242050D02*
X0035018Y0247450D01*
X0045018Y0247450D02*
X0045018Y0242050D01*
X0025018Y0242050D02*
X0025018Y0247450D01*
X0015018Y0247450D02*
X0015018Y0242050D01*
D13*
X0028768Y0266500D03*
X0038768Y0266500D03*
X0048768Y0266500D03*
X0111268Y0266500D03*
X0121268Y0266500D03*
X0131268Y0266500D03*
X0193768Y0266500D03*
X0203768Y0266500D03*
X0213768Y0266500D03*
D14*
X0223768Y0296000D03*
X0183768Y0296000D03*
X0141268Y0296000D03*
X0101268Y0296000D03*
X0058768Y0296000D03*
X0018768Y0296000D03*
D15*
X0118768Y0049550D02*
X0118768Y0044950D01*
X0128768Y0044950D02*
X0128768Y0049550D01*
X0138768Y0049550D02*
X0138768Y0044950D01*
D16*
X0006668Y0070243D02*
X0006668Y0003900D01*
X0091059Y0003900D01*
X0090885Y0004074D01*
X0090368Y0005324D01*
X0090368Y0008780D01*
X0089020Y0010128D01*
X0088168Y0012186D01*
X0088168Y0019814D01*
X0089020Y0021872D01*
X0090596Y0023447D01*
X0092654Y0024300D01*
X0094882Y0024300D01*
X0096940Y0023447D01*
X0098515Y0021872D01*
X0099368Y0019814D01*
X0099368Y0012186D01*
X0098515Y0010128D01*
X0097168Y0008780D01*
X0097168Y0008150D01*
X0111567Y0008150D01*
X0110596Y0008553D01*
X0109020Y0010128D01*
X0108168Y0012186D01*
X0108168Y0019814D01*
X0109020Y0021872D01*
X0110596Y0023447D01*
X0112654Y0024300D01*
X0114882Y0024300D01*
X0116940Y0023447D01*
X0118515Y0021872D01*
X0118768Y0021262D01*
X0119020Y0021872D01*
X0120596Y0023447D01*
X0122654Y0024300D01*
X0124882Y0024300D01*
X0126940Y0023447D01*
X0128515Y0021872D01*
X0128768Y0021262D01*
X0129020Y0021872D01*
X0130596Y0023447D01*
X0132654Y0024300D01*
X0134882Y0024300D01*
X0136940Y0023447D01*
X0138515Y0021872D01*
X0138768Y0021262D01*
X0139020Y0021872D01*
X0140596Y0023447D01*
X0142654Y0024300D01*
X0144882Y0024300D01*
X0146940Y0023447D01*
X0148515Y0021872D01*
X0148768Y0021262D01*
X0149020Y0021872D01*
X0150596Y0023447D01*
X0152654Y0024300D01*
X0154882Y0024300D01*
X0156940Y0023447D01*
X0158515Y0021872D01*
X0159368Y0019814D01*
X0159368Y0012186D01*
X0158515Y0010128D01*
X0156940Y0008553D01*
X0155968Y0008150D01*
X0206109Y0008150D01*
X0207868Y0009908D01*
X0207868Y0017926D01*
X0208385Y0019176D01*
X0209342Y0020132D01*
X0231618Y0042408D01*
X0231618Y0279592D01*
X0227359Y0283850D01*
X0180591Y0283850D01*
X0179342Y0284368D01*
X0157933Y0305776D01*
X0156507Y0306367D01*
X0155385Y0307490D01*
X0154777Y0308956D01*
X0154777Y0310544D01*
X0155385Y0312010D01*
X0156507Y0313133D01*
X0157974Y0313741D01*
X0159561Y0313741D01*
X0161028Y0313133D01*
X0162151Y0312010D01*
X0162741Y0310585D01*
X0176773Y0296553D01*
X0176773Y0297391D01*
X0177838Y0299962D01*
X0179806Y0301930D01*
X0182376Y0302994D01*
X0185159Y0302994D01*
X0187730Y0301930D01*
X0189697Y0299962D01*
X0190762Y0297391D01*
X0190762Y0294609D01*
X0189697Y0292038D01*
X0188309Y0290650D01*
X0219226Y0290650D01*
X0217838Y0292038D01*
X0216773Y0294609D01*
X0216773Y0297391D01*
X0217838Y0299962D01*
X0219806Y0301930D01*
X0222376Y0302994D01*
X0225159Y0302994D01*
X0227730Y0301930D01*
X0229697Y0299962D01*
X0230762Y0297391D01*
X0230762Y0294609D01*
X0229697Y0292038D01*
X0228309Y0290650D01*
X0229444Y0290650D01*
X0230694Y0290132D01*
X0235868Y0284958D01*
X0235868Y0318100D01*
X0006668Y0318100D01*
X0006668Y0266633D01*
X0009172Y0269137D01*
X0010532Y0269700D01*
X0022693Y0269700D01*
X0022972Y0270373D01*
X0024895Y0272296D01*
X0027408Y0273337D01*
X0030128Y0273337D01*
X0032641Y0272296D01*
X0033768Y0271169D01*
X0034895Y0272296D01*
X0037408Y0273337D01*
X0040128Y0273337D01*
X0042641Y0272296D01*
X0044564Y0270373D01*
X0044677Y0270099D01*
X0045226Y0270647D01*
X0045918Y0271150D01*
X0046681Y0271539D01*
X0047495Y0271803D01*
X0048268Y0271926D01*
X0048268Y0267000D01*
X0049268Y0267000D01*
X0054193Y0267000D01*
X0054071Y0267773D01*
X0053806Y0268587D01*
X0053418Y0269350D01*
X0052915Y0270042D01*
X0052310Y0270647D01*
X0051617Y0271150D01*
X0050855Y0271539D01*
X0050041Y0271803D01*
X0049268Y0271926D01*
X0049268Y0267000D01*
X0049268Y0266000D01*
X0054193Y0266000D01*
X0054071Y0265227D01*
X0053806Y0264413D01*
X0053418Y0263650D01*
X0052915Y0262958D01*
X0052310Y0262353D01*
X0051617Y0261850D01*
X0050855Y0261461D01*
X0050041Y0261197D01*
X0049268Y0261074D01*
X0049268Y0266000D01*
X0048268Y0266000D01*
X0048268Y0261074D01*
X0047495Y0261197D01*
X0046681Y0261461D01*
X0045918Y0261850D01*
X0045226Y0262353D01*
X0044677Y0262901D01*
X0044564Y0262627D01*
X0042641Y0260704D01*
X0040128Y0259663D01*
X0037408Y0259663D01*
X0034895Y0260704D01*
X0033768Y0261831D01*
X0032641Y0260704D01*
X0030128Y0259663D01*
X0027408Y0259663D01*
X0024895Y0260704D01*
X0023299Y0262300D01*
X0012800Y0262300D01*
X0011218Y0260717D01*
X0011218Y0251570D01*
X0011846Y0252197D01*
X0013904Y0253050D01*
X0016132Y0253050D01*
X0018190Y0252197D01*
X0019765Y0250622D01*
X0020018Y0250012D01*
X0020270Y0250622D01*
X0021846Y0252197D01*
X0023904Y0253050D01*
X0026132Y0253050D01*
X0028190Y0252197D01*
X0029765Y0250622D01*
X0030018Y0250012D01*
X0030270Y0250622D01*
X0031846Y0252197D01*
X0033904Y0253050D01*
X0036132Y0253050D01*
X0038190Y0252197D01*
X0039765Y0250622D01*
X0040018Y0250012D01*
X0040270Y0250622D01*
X0041846Y0252197D01*
X0043904Y0253050D01*
X0046132Y0253050D01*
X0048190Y0252197D01*
X0049765Y0250622D01*
X0050618Y0248564D01*
X0050618Y0246241D01*
X0050811Y0246241D01*
X0052278Y0245633D01*
X0053401Y0244510D01*
X0054008Y0243044D01*
X0054008Y0241456D01*
X0053418Y0240030D01*
X0053418Y0231574D01*
X0052900Y0230324D01*
X0051938Y0229362D01*
X0051938Y0228952D01*
X0050714Y0225999D01*
X0048454Y0223738D01*
X0045827Y0222650D01*
X0048454Y0221562D01*
X0050714Y0219301D01*
X0051938Y0216348D01*
X0051938Y0213152D01*
X0050714Y0210199D01*
X0048454Y0207938D01*
X0045827Y0206850D01*
X0048454Y0205762D01*
X0050714Y0203501D01*
X0051938Y0200548D01*
X0051938Y0197352D01*
X0050714Y0194399D01*
X0048454Y0192138D01*
X0045501Y0190915D01*
X0039472Y0190915D01*
X0039765Y0190622D01*
X0040618Y0188564D01*
X0040618Y0180936D01*
X0039765Y0178878D01*
X0038190Y0177303D01*
X0036132Y0176450D01*
X0033904Y0176450D01*
X0031846Y0177303D01*
X0030270Y0178878D01*
X0029418Y0180936D01*
X0029418Y0188564D01*
X0030270Y0190622D01*
X0030994Y0191346D01*
X0029081Y0192138D01*
X0026821Y0194399D01*
X0025598Y0197352D01*
X0025598Y0200548D01*
X0026821Y0203501D01*
X0029081Y0205762D01*
X0031709Y0206850D01*
X0029081Y0207938D01*
X0026821Y0210199D01*
X0026468Y0211050D01*
X0011550Y0211050D01*
X0011218Y0210717D01*
X0011218Y0191570D01*
X0011846Y0192197D01*
X0013904Y0193050D01*
X0016132Y0193050D01*
X0018190Y0192197D01*
X0019765Y0190622D01*
X0020618Y0188564D01*
X0020618Y0180936D01*
X0019765Y0178878D01*
X0018190Y0177303D01*
X0016132Y0176450D01*
X0013904Y0176450D01*
X0011846Y0177303D01*
X0011218Y0177930D01*
X0011218Y0137254D01*
X0011635Y0138260D01*
X0012757Y0139383D01*
X0014224Y0139991D01*
X0015811Y0139991D01*
X0017237Y0139400D01*
X0066548Y0139400D01*
X0067974Y0139991D01*
X0069561Y0139991D01*
X0071028Y0139383D01*
X0072151Y0138260D01*
X0072758Y0136794D01*
X0072758Y0135206D01*
X0072168Y0133780D01*
X0072168Y0127408D01*
X0076426Y0123150D01*
X0112798Y0123150D01*
X0114224Y0123741D01*
X0115811Y0123741D01*
X0117278Y0123133D01*
X0118401Y0122010D01*
X0119008Y0120544D01*
X0119008Y0118956D01*
X0118401Y0117490D01*
X0117278Y0116367D01*
X0115811Y0115759D01*
X0114224Y0115759D01*
X0112798Y0116350D01*
X0074341Y0116350D01*
X0073092Y0116868D01*
X0066842Y0123118D01*
X0065885Y0124074D01*
X0065368Y0125324D01*
X0065368Y0132600D01*
X0017237Y0132600D01*
X0015811Y0132009D01*
X0014224Y0132009D01*
X0012757Y0132617D01*
X0011635Y0133740D01*
X0011218Y0134746D01*
X0011218Y0080870D01*
X0012893Y0078357D01*
X0013154Y0078096D01*
X0013297Y0077751D01*
X0013505Y0077440D01*
X0013576Y0077077D01*
X0013718Y0076736D01*
X0013718Y0076407D01*
X0013978Y0076146D01*
X0014689Y0074429D01*
X0014689Y0072571D01*
X0013978Y0070854D01*
X0012664Y0069540D01*
X0010947Y0068828D01*
X0009088Y0068828D01*
X0007371Y0069540D01*
X0006668Y0070243D01*
X0006668Y0069897D02*
X0007014Y0069897D01*
X0006668Y0068899D02*
X0008918Y0068899D01*
X0011117Y0068899D02*
X0231618Y0068899D01*
X0231618Y0069897D02*
X0013022Y0069897D01*
X0013996Y0070896D02*
X0231618Y0070896D01*
X0231618Y0071894D02*
X0014409Y0071894D01*
X0014689Y0072893D02*
X0231618Y0072893D01*
X0231618Y0073891D02*
X0014689Y0073891D01*
X0014499Y0074890D02*
X0231618Y0074890D01*
X0231618Y0075888D02*
X0014085Y0075888D01*
X0013655Y0076887D02*
X0231618Y0076887D01*
X0231618Y0077885D02*
X0013242Y0077885D01*
X0012542Y0078884D02*
X0162740Y0078884D01*
X0162757Y0078867D02*
X0164224Y0078259D01*
X0165811Y0078259D01*
X0167278Y0078867D01*
X0168401Y0079990D01*
X0169008Y0081456D01*
X0169008Y0083044D01*
X0168401Y0084510D01*
X0167278Y0085633D01*
X0165852Y0086224D01*
X0158194Y0093882D01*
X0156944Y0094400D01*
X0060987Y0094400D01*
X0059561Y0094991D01*
X0057974Y0094991D01*
X0056507Y0094383D01*
X0055385Y0093260D01*
X0054777Y0091794D01*
X0054777Y0090206D01*
X0055385Y0088740D01*
X0056507Y0087617D01*
X0057974Y0087009D01*
X0059561Y0087009D01*
X0060987Y0087600D01*
X0154859Y0087600D01*
X0161044Y0081415D01*
X0161635Y0079990D01*
X0162757Y0078867D01*
X0161742Y0079882D02*
X0011876Y0079882D01*
X0011218Y0080881D02*
X0161265Y0080881D01*
X0160580Y0081879D02*
X0011218Y0081879D01*
X0011218Y0082878D02*
X0159581Y0082878D01*
X0158583Y0083876D02*
X0011218Y0083876D01*
X0011218Y0084875D02*
X0157584Y0084875D01*
X0156586Y0085873D02*
X0011218Y0085873D01*
X0011218Y0086872D02*
X0155587Y0086872D01*
X0156268Y0091000D02*
X0165018Y0082250D01*
X0168663Y0083876D02*
X0231618Y0083876D01*
X0231618Y0082878D02*
X0169008Y0082878D01*
X0169008Y0081879D02*
X0231618Y0081879D01*
X0231618Y0080881D02*
X0168770Y0080881D01*
X0168294Y0079882D02*
X0231618Y0079882D01*
X0231618Y0078884D02*
X0167295Y0078884D01*
X0168036Y0084875D02*
X0231618Y0084875D01*
X0231618Y0085873D02*
X0166698Y0085873D01*
X0165204Y0086872D02*
X0231618Y0086872D01*
X0231618Y0087870D02*
X0164206Y0087870D01*
X0163207Y0088869D02*
X0231618Y0088869D01*
X0231618Y0089868D02*
X0162209Y0089868D01*
X0161210Y0090866D02*
X0231618Y0090866D01*
X0231618Y0091865D02*
X0160211Y0091865D01*
X0159213Y0092863D02*
X0231618Y0092863D01*
X0231618Y0093862D02*
X0158214Y0093862D01*
X0156268Y0091000D02*
X0058768Y0091000D01*
X0055986Y0093862D02*
X0025918Y0093862D01*
X0025918Y0094176D02*
X0025400Y0095426D01*
X0024444Y0096382D01*
X0023194Y0096900D01*
X0021841Y0096900D01*
X0020592Y0096382D01*
X0019183Y0094974D01*
X0017757Y0094383D01*
X0016635Y0093260D01*
X0016027Y0091794D01*
X0016027Y0090206D01*
X0016635Y0088740D01*
X0017757Y0087617D01*
X0019224Y0087009D01*
X0020811Y0087009D01*
X0022278Y0087617D01*
X0023401Y0088740D01*
X0023991Y0090165D01*
X0025400Y0091574D01*
X0025918Y0092824D01*
X0025918Y0094176D01*
X0025634Y0094860D02*
X0057659Y0094860D01*
X0059876Y0094860D02*
X0231618Y0094860D01*
X0231618Y0095859D02*
X0024967Y0095859D01*
X0023298Y0096857D02*
X0231618Y0096857D01*
X0231618Y0097856D02*
X0011218Y0097856D01*
X0011218Y0098854D02*
X0231618Y0098854D01*
X0231618Y0099853D02*
X0011218Y0099853D01*
X0011218Y0100851D02*
X0231618Y0100851D01*
X0231618Y0101850D02*
X0011218Y0101850D01*
X0011218Y0102848D02*
X0231618Y0102848D01*
X0231618Y0103847D02*
X0011218Y0103847D01*
X0011218Y0104845D02*
X0231618Y0104845D01*
X0231618Y0105844D02*
X0011218Y0105844D01*
X0011218Y0106842D02*
X0231618Y0106842D01*
X0231618Y0107841D02*
X0011218Y0107841D01*
X0011218Y0108839D02*
X0231618Y0108839D01*
X0231618Y0109838D02*
X0011218Y0109838D01*
X0011218Y0110836D02*
X0231618Y0110836D01*
X0231618Y0111835D02*
X0011218Y0111835D01*
X0011218Y0112833D02*
X0231618Y0112833D01*
X0231618Y0113832D02*
X0011218Y0113832D01*
X0011218Y0114830D02*
X0231618Y0114830D01*
X0231618Y0115829D02*
X0115979Y0115829D01*
X0114056Y0115829D02*
X0011218Y0115829D01*
X0011218Y0116827D02*
X0073189Y0116827D01*
X0072134Y0117826D02*
X0011218Y0117826D01*
X0011218Y0118824D02*
X0071135Y0118824D01*
X0070137Y0119823D02*
X0011218Y0119823D01*
X0011218Y0120821D02*
X0069138Y0120821D01*
X0068140Y0121820D02*
X0011218Y0121820D01*
X0011218Y0122818D02*
X0067141Y0122818D01*
X0066142Y0123817D02*
X0011218Y0123817D01*
X0011218Y0124815D02*
X0065578Y0124815D01*
X0065368Y0125814D02*
X0011218Y0125814D01*
X0011218Y0126812D02*
X0065368Y0126812D01*
X0065368Y0127811D02*
X0011218Y0127811D01*
X0011218Y0128809D02*
X0065368Y0128809D01*
X0065368Y0129808D02*
X0011218Y0129808D01*
X0011218Y0130806D02*
X0065368Y0130806D01*
X0065368Y0131805D02*
X0011218Y0131805D01*
X0011218Y0132803D02*
X0012571Y0132803D01*
X0011609Y0133802D02*
X0011218Y0133802D01*
X0011218Y0137796D02*
X0011442Y0137796D01*
X0011218Y0138795D02*
X0012169Y0138795D01*
X0011218Y0139793D02*
X0013747Y0139793D01*
X0016288Y0139793D02*
X0067497Y0139793D01*
X0070038Y0139793D02*
X0166198Y0139793D01*
X0166027Y0140206D02*
X0166635Y0138740D01*
X0167757Y0137617D01*
X0169183Y0137026D01*
X0169342Y0136868D01*
X0170591Y0136350D01*
X0209048Y0136350D01*
X0210474Y0135759D01*
X0212061Y0135759D01*
X0213528Y0136367D01*
X0214651Y0137490D01*
X0215258Y0138956D01*
X0215258Y0140544D01*
X0214651Y0142010D01*
X0213528Y0143133D01*
X0212061Y0143741D01*
X0210474Y0143741D01*
X0209048Y0143150D01*
X0173446Y0143150D01*
X0173401Y0143260D01*
X0172278Y0144383D01*
X0170811Y0144991D01*
X0169224Y0144991D01*
X0167757Y0144383D01*
X0166635Y0143260D01*
X0166027Y0141794D01*
X0166027Y0140206D01*
X0166027Y0140792D02*
X0011218Y0140792D01*
X0011218Y0141790D02*
X0166027Y0141790D01*
X0166439Y0142789D02*
X0011218Y0142789D01*
X0011218Y0143787D02*
X0167161Y0143787D01*
X0168729Y0144786D02*
X0011218Y0144786D01*
X0011218Y0145784D02*
X0231618Y0145784D01*
X0231618Y0144786D02*
X0171306Y0144786D01*
X0172874Y0143787D02*
X0231618Y0143787D01*
X0231618Y0142789D02*
X0213873Y0142789D01*
X0214742Y0141790D02*
X0231618Y0141790D01*
X0231618Y0140792D02*
X0215156Y0140792D01*
X0215258Y0139793D02*
X0231618Y0139793D01*
X0231618Y0138795D02*
X0215191Y0138795D01*
X0214778Y0137796D02*
X0231618Y0137796D01*
X0231618Y0136798D02*
X0213959Y0136798D01*
X0212157Y0135799D02*
X0231618Y0135799D01*
X0231618Y0134801D02*
X0072590Y0134801D01*
X0072758Y0135799D02*
X0210378Y0135799D01*
X0211268Y0139750D02*
X0171268Y0139750D01*
X0170018Y0141000D01*
X0167578Y0137796D02*
X0072343Y0137796D01*
X0072757Y0136798D02*
X0169511Y0136798D01*
X0166612Y0138795D02*
X0071617Y0138795D01*
X0068768Y0136000D02*
X0068768Y0126000D01*
X0075018Y0119750D01*
X0115018Y0119750D01*
X0119008Y0119823D02*
X0231618Y0119823D01*
X0231618Y0120821D02*
X0118893Y0120821D01*
X0118480Y0121820D02*
X0231618Y0121820D01*
X0231618Y0122818D02*
X0221221Y0122818D01*
X0220694Y0122600D02*
X0221944Y0123118D01*
X0223352Y0124526D01*
X0224778Y0125117D01*
X0225901Y0126240D01*
X0226508Y0127706D01*
X0226508Y0129294D01*
X0225901Y0130760D01*
X0224778Y0131883D01*
X0223311Y0132491D01*
X0221724Y0132491D01*
X0220257Y0131883D01*
X0219135Y0130760D01*
X0218571Y0129400D01*
X0163487Y0129400D01*
X0162061Y0129991D01*
X0160474Y0129991D01*
X0159007Y0129383D01*
X0157885Y0128260D01*
X0157277Y0126794D01*
X0157277Y0125206D01*
X0157885Y0123740D01*
X0159007Y0122617D01*
X0160474Y0122009D01*
X0162061Y0122009D01*
X0163487Y0122600D01*
X0220694Y0122600D01*
X0222643Y0123817D02*
X0231618Y0123817D01*
X0231618Y0124815D02*
X0224050Y0124815D01*
X0225475Y0125814D02*
X0231618Y0125814D01*
X0231618Y0126812D02*
X0226138Y0126812D01*
X0226508Y0127811D02*
X0231618Y0127811D01*
X0231618Y0128809D02*
X0226508Y0128809D01*
X0226295Y0129808D02*
X0231618Y0129808D01*
X0231618Y0130806D02*
X0225855Y0130806D01*
X0224856Y0131805D02*
X0231618Y0131805D01*
X0231618Y0132803D02*
X0072168Y0132803D01*
X0072168Y0131805D02*
X0220179Y0131805D01*
X0219181Y0130806D02*
X0072168Y0130806D01*
X0072168Y0129808D02*
X0160033Y0129808D01*
X0158434Y0128809D02*
X0072168Y0128809D01*
X0072168Y0127811D02*
X0157698Y0127811D01*
X0157285Y0126812D02*
X0072764Y0126812D01*
X0073762Y0125814D02*
X0157277Y0125814D01*
X0157439Y0124815D02*
X0074761Y0124815D01*
X0075759Y0123817D02*
X0157853Y0123817D01*
X0158806Y0122818D02*
X0117593Y0122818D01*
X0118954Y0118824D02*
X0231618Y0118824D01*
X0231618Y0117826D02*
X0118540Y0117826D01*
X0117739Y0116827D02*
X0231618Y0116827D01*
X0220018Y0126000D02*
X0222518Y0128500D01*
X0220018Y0126000D02*
X0161268Y0126000D01*
X0162502Y0129808D02*
X0218740Y0129808D01*
X0231618Y0133802D02*
X0072177Y0133802D01*
X0068768Y0136000D02*
X0015018Y0136000D01*
X0011218Y0146783D02*
X0231618Y0146783D01*
X0231618Y0147781D02*
X0041131Y0147781D01*
X0040694Y0147600D02*
X0041944Y0148118D01*
X0042900Y0149074D01*
X0045176Y0151350D01*
X0071548Y0151350D01*
X0072974Y0150759D01*
X0074561Y0150759D01*
X0076028Y0151367D01*
X0077151Y0152490D01*
X0077758Y0153956D01*
X0077758Y0155544D01*
X0077151Y0157010D01*
X0076028Y0158133D01*
X0074561Y0158741D01*
X0072974Y0158741D01*
X0071548Y0158150D01*
X0043091Y0158150D01*
X0041842Y0157632D01*
X0038609Y0154400D01*
X0037237Y0154400D01*
X0035811Y0154991D01*
X0034224Y0154991D01*
X0032757Y0154383D01*
X0031635Y0153260D01*
X0031027Y0151794D01*
X0031027Y0150206D01*
X0031635Y0148740D01*
X0032757Y0147617D01*
X0034224Y0147009D01*
X0035811Y0147009D01*
X0037237Y0147600D01*
X0040694Y0147600D01*
X0042606Y0148780D02*
X0231618Y0148780D01*
X0231618Y0149778D02*
X0043604Y0149778D01*
X0044603Y0150777D02*
X0072932Y0150777D01*
X0074603Y0150777D02*
X0231618Y0150777D01*
X0231618Y0151775D02*
X0076436Y0151775D01*
X0077268Y0152774D02*
X0231618Y0152774D01*
X0231618Y0153772D02*
X0077682Y0153772D01*
X0077758Y0154771D02*
X0231618Y0154771D01*
X0231618Y0155769D02*
X0077665Y0155769D01*
X0077251Y0156768D02*
X0231618Y0156768D01*
X0231618Y0157766D02*
X0076395Y0157766D01*
X0073768Y0154750D02*
X0043768Y0154750D01*
X0040018Y0151000D01*
X0035018Y0151000D01*
X0032146Y0153772D02*
X0011218Y0153772D01*
X0011218Y0152774D02*
X0031433Y0152774D01*
X0031027Y0151775D02*
X0011218Y0151775D01*
X0011218Y0150777D02*
X0031027Y0150777D01*
X0031204Y0149778D02*
X0011218Y0149778D01*
X0011218Y0148780D02*
X0031618Y0148780D01*
X0032593Y0147781D02*
X0011218Y0147781D01*
X0011218Y0154771D02*
X0033693Y0154771D01*
X0036342Y0154771D02*
X0038980Y0154771D01*
X0039979Y0155769D02*
X0011218Y0155769D01*
X0011218Y0156768D02*
X0040977Y0156768D01*
X0042165Y0157766D02*
X0011218Y0157766D01*
X0011218Y0158765D02*
X0231618Y0158765D01*
X0231618Y0159763D02*
X0011218Y0159763D01*
X0011218Y0160762D02*
X0231618Y0160762D01*
X0231618Y0161760D02*
X0011218Y0161760D01*
X0011218Y0162759D02*
X0231618Y0162759D01*
X0231618Y0163757D02*
X0011218Y0163757D01*
X0011218Y0164756D02*
X0231618Y0164756D01*
X0231618Y0165754D02*
X0011218Y0165754D01*
X0011218Y0166753D02*
X0231618Y0166753D01*
X0231618Y0167751D02*
X0011218Y0167751D01*
X0011218Y0168750D02*
X0231618Y0168750D01*
X0231618Y0169748D02*
X0011218Y0169748D01*
X0011218Y0170747D02*
X0231618Y0170747D01*
X0231618Y0171745D02*
X0011218Y0171745D01*
X0011218Y0172744D02*
X0231618Y0172744D01*
X0231618Y0173742D02*
X0011218Y0173742D01*
X0011218Y0174741D02*
X0231618Y0174741D01*
X0231618Y0175739D02*
X0011218Y0175739D01*
X0011218Y0176738D02*
X0013209Y0176738D01*
X0011412Y0177737D02*
X0011218Y0177737D01*
X0016827Y0176738D02*
X0033209Y0176738D01*
X0031412Y0177737D02*
X0018624Y0177737D01*
X0019622Y0178735D02*
X0022435Y0178735D01*
X0022282Y0178846D02*
X0022816Y0178458D01*
X0023405Y0178158D01*
X0024034Y0177953D01*
X0024518Y0177877D01*
X0024518Y0184250D01*
X0025518Y0184250D01*
X0025518Y0185250D01*
X0029218Y0185250D01*
X0029218Y0187781D01*
X0029114Y0188434D01*
X0028910Y0189062D01*
X0028610Y0189651D01*
X0028221Y0190186D01*
X0027754Y0190654D01*
X0027219Y0191042D01*
X0026630Y0191342D01*
X0026001Y0191547D01*
X0025518Y0191623D01*
X0025518Y0185250D01*
X0024518Y0185250D01*
X0024518Y0191623D01*
X0024034Y0191547D01*
X0023405Y0191342D01*
X0022816Y0191042D01*
X0022282Y0190654D01*
X0021814Y0190186D01*
X0021426Y0189651D01*
X0021125Y0189062D01*
X0020921Y0188434D01*
X0020818Y0187781D01*
X0020818Y0185250D01*
X0024518Y0185250D01*
X0024518Y0184250D01*
X0020818Y0184250D01*
X0020818Y0181719D01*
X0020921Y0181066D01*
X0021125Y0180438D01*
X0021426Y0179849D01*
X0021814Y0179314D01*
X0022282Y0178846D01*
X0021509Y0179734D02*
X0020120Y0179734D01*
X0020533Y0180732D02*
X0021030Y0180732D01*
X0020818Y0181731D02*
X0020618Y0181731D01*
X0020618Y0182729D02*
X0020818Y0182729D01*
X0020818Y0183728D02*
X0020618Y0183728D01*
X0020618Y0184726D02*
X0024518Y0184726D01*
X0024518Y0183728D02*
X0025518Y0183728D01*
X0025518Y0184250D02*
X0025518Y0177877D01*
X0026001Y0177953D01*
X0026630Y0178158D01*
X0027219Y0178458D01*
X0027754Y0178846D01*
X0028221Y0179314D01*
X0028610Y0179849D01*
X0028910Y0180438D01*
X0029114Y0181066D01*
X0029218Y0181719D01*
X0029218Y0184250D01*
X0025518Y0184250D01*
X0025518Y0184726D02*
X0029418Y0184726D01*
X0029418Y0183728D02*
X0029218Y0183728D01*
X0029218Y0182729D02*
X0029418Y0182729D01*
X0029418Y0181731D02*
X0029218Y0181731D01*
X0029006Y0180732D02*
X0029502Y0180732D01*
X0029916Y0179734D02*
X0028526Y0179734D01*
X0027600Y0178735D02*
X0030413Y0178735D01*
X0025518Y0178735D02*
X0024518Y0178735D01*
X0024518Y0179734D02*
X0025518Y0179734D01*
X0025518Y0180732D02*
X0024518Y0180732D01*
X0024518Y0181731D02*
X0025518Y0181731D01*
X0025518Y0182729D02*
X0024518Y0182729D01*
X0024518Y0185725D02*
X0025518Y0185725D01*
X0025518Y0186723D02*
X0024518Y0186723D01*
X0024518Y0187722D02*
X0025518Y0187722D01*
X0025518Y0188720D02*
X0024518Y0188720D01*
X0024518Y0189719D02*
X0025518Y0189719D01*
X0025518Y0190717D02*
X0024518Y0190717D01*
X0022369Y0190717D02*
X0019670Y0190717D01*
X0020139Y0189719D02*
X0021475Y0189719D01*
X0021014Y0188720D02*
X0020553Y0188720D01*
X0020618Y0187722D02*
X0020818Y0187722D01*
X0020818Y0186723D02*
X0020618Y0186723D01*
X0020618Y0185725D02*
X0020818Y0185725D01*
X0018672Y0191716D02*
X0030101Y0191716D01*
X0030365Y0190717D02*
X0027666Y0190717D01*
X0028561Y0189719D02*
X0029896Y0189719D01*
X0029482Y0188720D02*
X0029021Y0188720D01*
X0029218Y0187722D02*
X0029418Y0187722D01*
X0029418Y0186723D02*
X0029218Y0186723D01*
X0029218Y0185725D02*
X0029418Y0185725D01*
X0028505Y0192714D02*
X0016942Y0192714D01*
X0013093Y0192714D02*
X0011218Y0192714D01*
X0011218Y0191716D02*
X0011364Y0191716D01*
X0011218Y0193713D02*
X0027507Y0193713D01*
X0026691Y0194711D02*
X0011218Y0194711D01*
X0011218Y0195710D02*
X0026278Y0195710D01*
X0025864Y0196708D02*
X0011218Y0196708D01*
X0011218Y0197707D02*
X0025598Y0197707D01*
X0025598Y0198705D02*
X0011218Y0198705D01*
X0011218Y0199704D02*
X0025598Y0199704D01*
X0025662Y0200702D02*
X0011218Y0200702D01*
X0011218Y0201701D02*
X0026075Y0201701D01*
X0026489Y0202699D02*
X0011218Y0202699D01*
X0011218Y0203698D02*
X0027017Y0203698D01*
X0028016Y0204696D02*
X0011218Y0204696D01*
X0011218Y0205695D02*
X0029014Y0205695D01*
X0029676Y0207692D02*
X0011218Y0207692D01*
X0011218Y0208690D02*
X0028329Y0208690D01*
X0027331Y0209689D02*
X0011218Y0209689D01*
X0011218Y0210687D02*
X0026618Y0210687D01*
X0031330Y0206693D02*
X0011218Y0206693D01*
X0038768Y0230550D02*
X0039218Y0231000D01*
X0048768Y0231000D01*
X0050018Y0232250D01*
X0050018Y0242250D01*
X0053671Y0240643D02*
X0071618Y0240643D01*
X0071618Y0241641D02*
X0054008Y0241641D01*
X0054008Y0242640D02*
X0071618Y0242640D01*
X0071618Y0243638D02*
X0053762Y0243638D01*
X0053274Y0244637D02*
X0071618Y0244637D01*
X0071618Y0245635D02*
X0052273Y0245635D01*
X0050618Y0246634D02*
X0071618Y0246634D01*
X0071618Y0247632D02*
X0050618Y0247632D01*
X0050590Y0248631D02*
X0071618Y0248631D01*
X0071618Y0249629D02*
X0050176Y0249629D01*
X0049759Y0250628D02*
X0071618Y0250628D01*
X0071618Y0251221D02*
X0071618Y0232003D01*
X0071460Y0232384D01*
X0070152Y0233692D01*
X0068443Y0234400D01*
X0066593Y0234400D01*
X0064884Y0233692D01*
X0063576Y0232384D01*
X0062868Y0230675D01*
X0062868Y0228825D01*
X0063576Y0227116D01*
X0064884Y0225808D01*
X0066593Y0225100D01*
X0068443Y0225100D01*
X0070152Y0225808D01*
X0071460Y0227116D01*
X0071618Y0227497D01*
X0071618Y0223219D01*
X0071027Y0221794D01*
X0071027Y0220206D01*
X0071635Y0218740D01*
X0072757Y0217617D01*
X0074224Y0217009D01*
X0075811Y0217009D01*
X0077278Y0217617D01*
X0078105Y0218444D01*
X0078184Y0218166D01*
X0078309Y0218009D01*
X0078385Y0217824D01*
X0078726Y0217484D01*
X0079025Y0217106D01*
X0079200Y0217009D01*
X0079342Y0216868D01*
X0079787Y0216683D01*
X0089000Y0211565D01*
X0089135Y0211240D01*
X0090257Y0210117D01*
X0091724Y0209509D01*
X0093311Y0209509D01*
X0094778Y0210117D01*
X0095901Y0211240D01*
X0096508Y0212706D01*
X0096508Y0214294D01*
X0095901Y0215760D01*
X0094778Y0216883D01*
X0093311Y0217491D01*
X0092336Y0217491D01*
X0084668Y0221751D01*
X0084668Y0256676D01*
X0084150Y0257926D01*
X0083194Y0258882D01*
X0079444Y0262632D01*
X0078194Y0263150D01*
X0069737Y0263150D01*
X0068311Y0263741D01*
X0066724Y0263741D01*
X0065257Y0263133D01*
X0064135Y0262010D01*
X0063527Y0260544D01*
X0063527Y0258956D01*
X0064135Y0257490D01*
X0065257Y0256367D01*
X0066724Y0255759D01*
X0068311Y0255759D01*
X0068527Y0255849D01*
X0068527Y0255206D01*
X0069135Y0253740D01*
X0070257Y0252617D01*
X0070851Y0252371D01*
X0071618Y0251221D01*
X0071347Y0251626D02*
X0048761Y0251626D01*
X0047158Y0252625D02*
X0070249Y0252625D01*
X0069251Y0253623D02*
X0011218Y0253623D01*
X0011218Y0252625D02*
X0012877Y0252625D01*
X0011274Y0251626D02*
X0011218Y0251626D01*
X0011218Y0254622D02*
X0068769Y0254622D01*
X0068527Y0255620D02*
X0011218Y0255620D01*
X0011218Y0256619D02*
X0065005Y0256619D01*
X0064082Y0257617D02*
X0011218Y0257617D01*
X0011218Y0258616D02*
X0063668Y0258616D01*
X0063527Y0259614D02*
X0011218Y0259614D01*
X0011218Y0260613D02*
X0025114Y0260613D01*
X0023987Y0261611D02*
X0012112Y0261611D01*
X0007638Y0267603D02*
X0006668Y0267603D01*
X0006668Y0268601D02*
X0008636Y0268601D01*
X0010289Y0269600D02*
X0006668Y0269600D01*
X0006668Y0270598D02*
X0023197Y0270598D01*
X0024195Y0271597D02*
X0006668Y0271597D01*
X0006668Y0272595D02*
X0025617Y0272595D01*
X0031919Y0272595D02*
X0035617Y0272595D01*
X0034195Y0271597D02*
X0033340Y0271597D01*
X0033548Y0261611D02*
X0033987Y0261611D01*
X0035114Y0260613D02*
X0032421Y0260613D01*
X0032877Y0252625D02*
X0027158Y0252625D01*
X0028761Y0251626D02*
X0031274Y0251626D01*
X0030276Y0250628D02*
X0029759Y0250628D01*
X0022877Y0252625D02*
X0017158Y0252625D01*
X0018761Y0251626D02*
X0021274Y0251626D01*
X0020276Y0250628D02*
X0019759Y0250628D01*
X0037158Y0252625D02*
X0042877Y0252625D01*
X0041274Y0251626D02*
X0038761Y0251626D01*
X0039759Y0250628D02*
X0040276Y0250628D01*
X0042421Y0260613D02*
X0063556Y0260613D01*
X0063969Y0261611D02*
X0051149Y0261611D01*
X0052567Y0262610D02*
X0064734Y0262610D01*
X0066405Y0263608D02*
X0053387Y0263608D01*
X0053869Y0264607D02*
X0104651Y0264607D01*
X0104431Y0265140D02*
X0104431Y0267860D01*
X0105472Y0270373D01*
X0107395Y0272296D01*
X0109908Y0273337D01*
X0112628Y0273337D01*
X0115141Y0272296D01*
X0116268Y0271169D01*
X0117395Y0272296D01*
X0119908Y0273337D01*
X0122628Y0273337D01*
X0125141Y0272296D01*
X0127064Y0270373D01*
X0127177Y0270099D01*
X0127726Y0270647D01*
X0128418Y0271150D01*
X0129181Y0271539D01*
X0129995Y0271803D01*
X0130768Y0271926D01*
X0130768Y0267000D01*
X0131768Y0267000D01*
X0136693Y0267000D01*
X0136571Y0267773D01*
X0136306Y0268587D01*
X0135918Y0269350D01*
X0135415Y0270042D01*
X0134810Y0270647D01*
X0134117Y0271150D01*
X0133355Y0271539D01*
X0132541Y0271803D01*
X0131768Y0271926D01*
X0131768Y0267000D01*
X0131768Y0266000D01*
X0136693Y0266000D01*
X0136571Y0265227D01*
X0136306Y0264413D01*
X0135918Y0263650D01*
X0135415Y0262958D01*
X0134810Y0262353D01*
X0134117Y0261850D01*
X0133355Y0261461D01*
X0132541Y0261197D01*
X0131768Y0261074D01*
X0131768Y0266000D01*
X0130768Y0266000D01*
X0130768Y0261074D01*
X0129995Y0261197D01*
X0129181Y0261461D01*
X0128418Y0261850D01*
X0127726Y0262353D01*
X0127177Y0262901D01*
X0127064Y0262627D01*
X0125141Y0260704D01*
X0123066Y0259845D01*
X0123401Y0259510D01*
X0124008Y0258044D01*
X0124008Y0256456D01*
X0123919Y0256241D01*
X0124561Y0256241D01*
X0126028Y0255633D01*
X0127151Y0254510D01*
X0127758Y0253044D01*
X0127758Y0251456D01*
X0127151Y0249990D01*
X0126028Y0248867D01*
X0124668Y0248303D01*
X0124668Y0209074D01*
X0124150Y0207824D01*
X0120241Y0203915D01*
X0119651Y0202490D01*
X0118528Y0201367D01*
X0117061Y0200759D01*
X0115474Y0200759D01*
X0114007Y0201367D01*
X0112885Y0202490D01*
X0112277Y0203956D01*
X0112277Y0205544D01*
X0112885Y0207010D01*
X0114007Y0208133D01*
X0115433Y0208724D01*
X0117868Y0211158D01*
X0117868Y0219843D01*
X0117061Y0219509D01*
X0116419Y0219509D01*
X0116508Y0219294D01*
X0116508Y0217706D01*
X0115901Y0216240D01*
X0114778Y0215117D01*
X0113311Y0214509D01*
X0112168Y0214509D01*
X0112168Y0211969D01*
X0112758Y0210544D01*
X0112758Y0208956D01*
X0112151Y0207490D01*
X0111028Y0206367D01*
X0109561Y0205759D01*
X0107974Y0205759D01*
X0106507Y0206367D01*
X0105385Y0207490D01*
X0104777Y0208956D01*
X0104777Y0210544D01*
X0105368Y0211969D01*
X0105368Y0262878D01*
X0104431Y0265140D01*
X0104431Y0265605D02*
X0054131Y0265605D01*
X0054098Y0267603D02*
X0104431Y0267603D01*
X0104431Y0266604D02*
X0049268Y0266604D01*
X0049268Y0265605D02*
X0048268Y0265605D01*
X0048268Y0264607D02*
X0049268Y0264607D01*
X0049268Y0263608D02*
X0048268Y0263608D01*
X0048268Y0262610D02*
X0049268Y0262610D01*
X0049268Y0261611D02*
X0048268Y0261611D01*
X0046386Y0261611D02*
X0043548Y0261611D01*
X0044547Y0262610D02*
X0044969Y0262610D01*
X0048268Y0267603D02*
X0049268Y0267603D01*
X0049268Y0268601D02*
X0048268Y0268601D01*
X0048268Y0269600D02*
X0049268Y0269600D01*
X0049268Y0270598D02*
X0048268Y0270598D01*
X0048268Y0271597D02*
X0049268Y0271597D01*
X0050677Y0271597D02*
X0106695Y0271597D01*
X0105697Y0270598D02*
X0052359Y0270598D01*
X0053236Y0269600D02*
X0105151Y0269600D01*
X0104738Y0268601D02*
X0053799Y0268601D01*
X0046859Y0271597D02*
X0043340Y0271597D01*
X0044339Y0270598D02*
X0045177Y0270598D01*
X0041919Y0272595D02*
X0108117Y0272595D01*
X0114419Y0272595D02*
X0118117Y0272595D01*
X0116695Y0271597D02*
X0115840Y0271597D01*
X0111268Y0266500D02*
X0108768Y0264000D01*
X0108768Y0209750D01*
X0104777Y0209689D02*
X0093745Y0209689D01*
X0095349Y0210687D02*
X0104837Y0210687D01*
X0105250Y0211686D02*
X0096086Y0211686D01*
X0096499Y0212684D02*
X0105368Y0212684D01*
X0105368Y0213683D02*
X0096508Y0213683D01*
X0096348Y0214681D02*
X0105368Y0214681D01*
X0105368Y0215680D02*
X0095934Y0215680D01*
X0094983Y0216678D02*
X0105368Y0216678D01*
X0105368Y0217677D02*
X0092000Y0217677D01*
X0090203Y0218675D02*
X0105368Y0218675D01*
X0105368Y0219674D02*
X0088406Y0219674D01*
X0086608Y0220672D02*
X0105368Y0220672D01*
X0105368Y0221671D02*
X0084811Y0221671D01*
X0084668Y0222670D02*
X0105368Y0222670D01*
X0105368Y0223668D02*
X0084668Y0223668D01*
X0084668Y0224667D02*
X0105368Y0224667D01*
X0105368Y0225665D02*
X0084668Y0225665D01*
X0084668Y0226664D02*
X0105368Y0226664D01*
X0105368Y0227662D02*
X0084668Y0227662D01*
X0084668Y0228661D02*
X0105368Y0228661D01*
X0105368Y0229659D02*
X0084668Y0229659D01*
X0084668Y0230658D02*
X0105368Y0230658D01*
X0105368Y0231656D02*
X0084668Y0231656D01*
X0084668Y0232655D02*
X0105368Y0232655D01*
X0105368Y0233653D02*
X0084668Y0233653D01*
X0084668Y0234652D02*
X0105368Y0234652D01*
X0105368Y0235650D02*
X0084668Y0235650D01*
X0084668Y0236649D02*
X0105368Y0236649D01*
X0105368Y0237647D02*
X0084668Y0237647D01*
X0084668Y0238646D02*
X0105368Y0238646D01*
X0105368Y0239644D02*
X0084668Y0239644D01*
X0084668Y0240643D02*
X0105368Y0240643D01*
X0105368Y0241641D02*
X0095052Y0241641D01*
X0094778Y0241367D02*
X0095901Y0242490D01*
X0096508Y0243956D01*
X0096508Y0245544D01*
X0095918Y0246969D01*
X0095918Y0257530D01*
X0096508Y0258956D01*
X0096508Y0260544D01*
X0095901Y0262010D01*
X0094778Y0263133D01*
X0093311Y0263741D01*
X0091724Y0263741D01*
X0090257Y0263133D01*
X0089135Y0262010D01*
X0088527Y0260544D01*
X0088527Y0258956D01*
X0089118Y0257530D01*
X0089118Y0246969D01*
X0088527Y0245544D01*
X0088527Y0243956D01*
X0089135Y0242490D01*
X0090257Y0241367D01*
X0091724Y0240759D01*
X0093311Y0240759D01*
X0094778Y0241367D01*
X0095963Y0242640D02*
X0105368Y0242640D01*
X0105368Y0243638D02*
X0096377Y0243638D01*
X0096508Y0244637D02*
X0105368Y0244637D01*
X0105368Y0245635D02*
X0096470Y0245635D01*
X0096057Y0246634D02*
X0105368Y0246634D01*
X0105368Y0247632D02*
X0095918Y0247632D01*
X0095918Y0248631D02*
X0105368Y0248631D01*
X0105368Y0249629D02*
X0095918Y0249629D01*
X0095918Y0250628D02*
X0105368Y0250628D01*
X0105368Y0251626D02*
X0095918Y0251626D01*
X0095918Y0252625D02*
X0105368Y0252625D01*
X0105368Y0253623D02*
X0095918Y0253623D01*
X0095918Y0254622D02*
X0105368Y0254622D01*
X0105368Y0255620D02*
X0095918Y0255620D01*
X0095918Y0256619D02*
X0105368Y0256619D01*
X0105368Y0257617D02*
X0095954Y0257617D01*
X0096367Y0258616D02*
X0105368Y0258616D01*
X0105368Y0259614D02*
X0096508Y0259614D01*
X0096480Y0260613D02*
X0105368Y0260613D01*
X0105368Y0261611D02*
X0096066Y0261611D01*
X0095301Y0262610D02*
X0105368Y0262610D01*
X0105065Y0263608D02*
X0093630Y0263608D01*
X0091405Y0263608D02*
X0068630Y0263608D01*
X0067518Y0259750D02*
X0077518Y0259750D01*
X0081268Y0256000D01*
X0081268Y0219750D01*
X0092518Y0213500D01*
X0089687Y0210687D02*
X0076163Y0210687D01*
X0076168Y0210675D02*
X0075460Y0212384D01*
X0074152Y0213692D01*
X0072443Y0214400D01*
X0070593Y0214400D01*
X0068884Y0213692D01*
X0067576Y0212384D01*
X0067518Y0212244D01*
X0067460Y0212384D01*
X0066152Y0213692D01*
X0064443Y0214400D01*
X0062593Y0214400D01*
X0060884Y0213692D01*
X0059576Y0212384D01*
X0058868Y0210675D01*
X0058868Y0208825D01*
X0059576Y0207116D01*
X0060884Y0205808D01*
X0062593Y0205100D01*
X0064443Y0205100D01*
X0066152Y0205808D01*
X0067460Y0207116D01*
X0067518Y0207256D01*
X0067576Y0207116D01*
X0068884Y0205808D01*
X0070593Y0205100D01*
X0072443Y0205100D01*
X0074152Y0205808D01*
X0075460Y0207116D01*
X0076168Y0208825D01*
X0076168Y0210675D01*
X0076168Y0209689D02*
X0091291Y0209689D01*
X0088782Y0211686D02*
X0075749Y0211686D01*
X0075159Y0212684D02*
X0086985Y0212684D01*
X0085187Y0213683D02*
X0074161Y0213683D01*
X0072697Y0217677D02*
X0051387Y0217677D01*
X0050974Y0218675D02*
X0071699Y0218675D01*
X0071248Y0219674D02*
X0050342Y0219674D01*
X0049343Y0220672D02*
X0071027Y0220672D01*
X0071027Y0221671D02*
X0048190Y0221671D01*
X0048285Y0223668D02*
X0071618Y0223668D01*
X0071618Y0224667D02*
X0049382Y0224667D01*
X0050381Y0225665D02*
X0065229Y0225665D01*
X0064028Y0226664D02*
X0050990Y0226664D01*
X0051404Y0227662D02*
X0063349Y0227662D01*
X0062936Y0228661D02*
X0051817Y0228661D01*
X0052235Y0229659D02*
X0062868Y0229659D01*
X0062868Y0230658D02*
X0053038Y0230658D01*
X0053418Y0231656D02*
X0063274Y0231656D01*
X0063846Y0232655D02*
X0053418Y0232655D01*
X0053418Y0233653D02*
X0064845Y0233653D01*
X0070191Y0233653D02*
X0071618Y0233653D01*
X0071618Y0232655D02*
X0071189Y0232655D01*
X0071618Y0234652D02*
X0053418Y0234652D01*
X0053418Y0235650D02*
X0071618Y0235650D01*
X0071618Y0236649D02*
X0053418Y0236649D01*
X0053418Y0237647D02*
X0071618Y0237647D01*
X0071618Y0238646D02*
X0053418Y0238646D01*
X0053418Y0239644D02*
X0071618Y0239644D01*
X0071618Y0226664D02*
X0071007Y0226664D01*
X0071618Y0225665D02*
X0069807Y0225665D01*
X0071390Y0222670D02*
X0045874Y0222670D01*
X0051801Y0216678D02*
X0079795Y0216678D01*
X0078532Y0217677D02*
X0077338Y0217677D01*
X0075018Y0221000D02*
X0075018Y0252250D01*
X0072518Y0256000D01*
X0079466Y0262610D02*
X0089734Y0262610D01*
X0088969Y0261611D02*
X0080465Y0261611D01*
X0081463Y0260613D02*
X0088556Y0260613D01*
X0088527Y0259614D02*
X0082462Y0259614D01*
X0083460Y0258616D02*
X0088668Y0258616D01*
X0089082Y0257617D02*
X0084278Y0257617D01*
X0084668Y0256619D02*
X0089118Y0256619D01*
X0089118Y0255620D02*
X0084668Y0255620D01*
X0084668Y0254622D02*
X0089118Y0254622D01*
X0089118Y0253623D02*
X0084668Y0253623D01*
X0084668Y0252625D02*
X0089118Y0252625D01*
X0089118Y0251626D02*
X0084668Y0251626D01*
X0084668Y0250628D02*
X0089118Y0250628D01*
X0089118Y0249629D02*
X0084668Y0249629D01*
X0084668Y0248631D02*
X0089118Y0248631D01*
X0089118Y0247632D02*
X0084668Y0247632D01*
X0084668Y0246634D02*
X0088979Y0246634D01*
X0088565Y0245635D02*
X0084668Y0245635D01*
X0084668Y0244637D02*
X0088527Y0244637D01*
X0088659Y0243638D02*
X0084668Y0243638D01*
X0084668Y0242640D02*
X0089072Y0242640D01*
X0089983Y0241641D02*
X0084668Y0241641D01*
X0092518Y0244750D02*
X0092518Y0259750D01*
X0112518Y0258500D02*
X0112518Y0218500D01*
X0115341Y0215680D02*
X0117868Y0215680D01*
X0117868Y0216678D02*
X0116083Y0216678D01*
X0116496Y0217677D02*
X0117868Y0217677D01*
X0117868Y0218675D02*
X0116508Y0218675D01*
X0117459Y0219674D02*
X0117868Y0219674D01*
X0116268Y0223500D02*
X0116268Y0252250D01*
X0120018Y0257250D01*
X0122518Y0252250D02*
X0121268Y0251000D01*
X0121268Y0209750D01*
X0116268Y0204750D01*
X0113566Y0207692D02*
X0112235Y0207692D01*
X0112648Y0208690D02*
X0115353Y0208690D01*
X0116398Y0209689D02*
X0112758Y0209689D01*
X0112699Y0210687D02*
X0117397Y0210687D01*
X0117868Y0211686D02*
X0112285Y0211686D01*
X0112168Y0212684D02*
X0117868Y0212684D01*
X0117868Y0213683D02*
X0112168Y0213683D01*
X0113727Y0214681D02*
X0117868Y0214681D01*
X0124668Y0214681D02*
X0203268Y0214681D01*
X0203268Y0214250D02*
X0192006Y0214250D01*
X0192111Y0213453D01*
X0192336Y0212613D01*
X0192669Y0211809D01*
X0193104Y0211056D01*
X0193634Y0210366D01*
X0194249Y0209751D01*
X0194939Y0209221D01*
X0195692Y0208786D01*
X0196495Y0208454D01*
X0197336Y0208229D01*
X0198198Y0208115D01*
X0203268Y0208115D01*
X0203268Y0214250D01*
X0204268Y0214250D01*
X0204268Y0215250D01*
X0215529Y0215250D01*
X0215424Y0216047D01*
X0215199Y0216887D01*
X0214866Y0217691D01*
X0214431Y0218444D01*
X0213902Y0219134D01*
X0213287Y0219749D01*
X0212597Y0220279D01*
X0211844Y0220714D01*
X0211040Y0221046D01*
X0210200Y0221271D01*
X0209338Y0221385D01*
X0204268Y0221385D01*
X0204268Y0215250D01*
X0203268Y0215250D01*
X0203268Y0221385D01*
X0198198Y0221385D01*
X0197336Y0221271D01*
X0196495Y0221046D01*
X0195692Y0220714D01*
X0194939Y0220279D01*
X0194249Y0219749D01*
X0193634Y0219134D01*
X0193104Y0218444D01*
X0192669Y0217691D01*
X0192336Y0216887D01*
X0192111Y0216047D01*
X0192006Y0215250D01*
X0203268Y0215250D01*
X0203268Y0214250D01*
X0203268Y0213683D02*
X0204268Y0213683D01*
X0204268Y0214250D02*
X0204268Y0208115D01*
X0209338Y0208115D01*
X0210200Y0208229D01*
X0211040Y0208454D01*
X0211844Y0208786D01*
X0212597Y0209221D01*
X0213287Y0209751D01*
X0213902Y0210366D01*
X0214431Y0211056D01*
X0214866Y0211809D01*
X0215199Y0212613D01*
X0215424Y0213453D01*
X0215529Y0214250D01*
X0204268Y0214250D01*
X0204268Y0214681D02*
X0231618Y0214681D01*
X0231618Y0213683D02*
X0215454Y0213683D01*
X0215218Y0212684D02*
X0231618Y0212684D01*
X0231618Y0211686D02*
X0214795Y0211686D01*
X0214149Y0210687D02*
X0231618Y0210687D01*
X0231618Y0209689D02*
X0213206Y0209689D01*
X0211612Y0208690D02*
X0231618Y0208690D01*
X0231618Y0207692D02*
X0124018Y0207692D01*
X0124509Y0208690D02*
X0195924Y0208690D01*
X0194329Y0209689D02*
X0124668Y0209689D01*
X0124668Y0210687D02*
X0193387Y0210687D01*
X0192740Y0211686D02*
X0124668Y0211686D01*
X0124668Y0212684D02*
X0192317Y0212684D01*
X0192081Y0213683D02*
X0124668Y0213683D01*
X0124668Y0215680D02*
X0192063Y0215680D01*
X0192280Y0216678D02*
X0124668Y0216678D01*
X0124668Y0217677D02*
X0192663Y0217677D01*
X0193282Y0218675D02*
X0124668Y0218675D01*
X0124668Y0219674D02*
X0194173Y0219674D01*
X0195621Y0220672D02*
X0124668Y0220672D01*
X0124668Y0221671D02*
X0231618Y0221671D01*
X0231618Y0220672D02*
X0211915Y0220672D01*
X0213362Y0219674D02*
X0231618Y0219674D01*
X0231618Y0218675D02*
X0214254Y0218675D01*
X0214872Y0217677D02*
X0231618Y0217677D01*
X0231618Y0216678D02*
X0215255Y0216678D01*
X0215473Y0215680D02*
X0231618Y0215680D01*
X0231618Y0206693D02*
X0211205Y0206693D01*
X0210501Y0206985D02*
X0213454Y0205762D01*
X0215714Y0203501D01*
X0216938Y0200548D01*
X0216938Y0197352D01*
X0215714Y0194399D01*
X0213454Y0192138D01*
X0210501Y0190915D01*
X0197034Y0190915D01*
X0194081Y0192138D01*
X0191821Y0194399D01*
X0190598Y0197352D01*
X0190598Y0200548D01*
X0191821Y0203501D01*
X0194081Y0205762D01*
X0197034Y0206985D01*
X0210501Y0206985D01*
X0213521Y0205695D02*
X0231618Y0205695D01*
X0231618Y0204696D02*
X0214520Y0204696D01*
X0215518Y0203698D02*
X0231618Y0203698D01*
X0231618Y0202699D02*
X0216047Y0202699D01*
X0216460Y0201701D02*
X0231618Y0201701D01*
X0231618Y0200702D02*
X0216874Y0200702D01*
X0216938Y0199704D02*
X0231618Y0199704D01*
X0231618Y0198705D02*
X0216938Y0198705D01*
X0216938Y0197707D02*
X0231618Y0197707D01*
X0231618Y0196708D02*
X0216671Y0196708D01*
X0216258Y0195710D02*
X0231618Y0195710D01*
X0231618Y0194711D02*
X0215844Y0194711D01*
X0215029Y0193713D02*
X0231618Y0193713D01*
X0231618Y0192714D02*
X0214030Y0192714D01*
X0212434Y0191716D02*
X0231618Y0191716D01*
X0231618Y0190717D02*
X0039670Y0190717D01*
X0040139Y0189719D02*
X0231618Y0189719D01*
X0231618Y0188720D02*
X0040553Y0188720D01*
X0040618Y0187722D02*
X0231618Y0187722D01*
X0231618Y0186723D02*
X0040618Y0186723D01*
X0040618Y0185725D02*
X0231618Y0185725D01*
X0231618Y0184726D02*
X0040618Y0184726D01*
X0040618Y0183728D02*
X0231618Y0183728D01*
X0231618Y0182729D02*
X0040618Y0182729D01*
X0040618Y0181731D02*
X0231618Y0181731D01*
X0231618Y0180732D02*
X0040533Y0180732D01*
X0040120Y0179734D02*
X0231618Y0179734D01*
X0231618Y0178735D02*
X0039622Y0178735D01*
X0038624Y0177737D02*
X0231618Y0177737D01*
X0231618Y0176738D02*
X0036827Y0176738D01*
X0047434Y0191716D02*
X0195101Y0191716D01*
X0193505Y0192714D02*
X0049030Y0192714D01*
X0050029Y0193713D02*
X0192507Y0193713D01*
X0191691Y0194711D02*
X0050844Y0194711D01*
X0051258Y0195710D02*
X0191278Y0195710D01*
X0190864Y0196708D02*
X0051671Y0196708D01*
X0051938Y0197707D02*
X0190598Y0197707D01*
X0190598Y0198705D02*
X0051938Y0198705D01*
X0051938Y0199704D02*
X0190598Y0199704D01*
X0190662Y0200702D02*
X0051874Y0200702D01*
X0051460Y0201701D02*
X0113673Y0201701D01*
X0112798Y0202699D02*
X0051047Y0202699D01*
X0050518Y0203698D02*
X0112384Y0203698D01*
X0112277Y0204696D02*
X0049520Y0204696D01*
X0048521Y0205695D02*
X0061157Y0205695D01*
X0059998Y0206693D02*
X0046205Y0206693D01*
X0047859Y0207692D02*
X0059337Y0207692D01*
X0058923Y0208690D02*
X0049206Y0208690D01*
X0050205Y0209689D02*
X0058868Y0209689D01*
X0058873Y0210687D02*
X0050917Y0210687D01*
X0051331Y0211686D02*
X0059286Y0211686D01*
X0059876Y0212684D02*
X0051744Y0212684D01*
X0051938Y0213683D02*
X0060875Y0213683D01*
X0066161Y0213683D02*
X0068875Y0213683D01*
X0067876Y0212684D02*
X0067159Y0212684D01*
X0067037Y0206693D02*
X0067998Y0206693D01*
X0069157Y0205695D02*
X0065879Y0205695D01*
X0073879Y0205695D02*
X0112340Y0205695D01*
X0112753Y0206693D02*
X0111355Y0206693D01*
X0106181Y0206693D02*
X0075037Y0206693D01*
X0075698Y0207692D02*
X0105301Y0207692D01*
X0104887Y0208690D02*
X0076112Y0208690D01*
X0081593Y0215680D02*
X0051938Y0215680D01*
X0051938Y0214681D02*
X0083390Y0214681D01*
X0118862Y0201701D02*
X0191075Y0201701D01*
X0191489Y0202699D02*
X0119738Y0202699D01*
X0120151Y0203698D02*
X0192017Y0203698D01*
X0193016Y0204696D02*
X0121022Y0204696D01*
X0122021Y0205695D02*
X0194014Y0205695D01*
X0196330Y0206693D02*
X0123019Y0206693D01*
X0124668Y0222670D02*
X0196661Y0222670D01*
X0197034Y0222515D02*
X0210501Y0222515D01*
X0213454Y0223738D01*
X0215714Y0225999D01*
X0216938Y0228952D01*
X0216938Y0232148D01*
X0215714Y0235101D01*
X0213454Y0237362D01*
X0210501Y0238585D01*
X0197034Y0238585D01*
X0194081Y0237362D01*
X0191821Y0235101D01*
X0190598Y0232148D01*
X0190598Y0228952D01*
X0191821Y0225999D01*
X0194081Y0223738D01*
X0197034Y0222515D01*
X0194251Y0223668D02*
X0124668Y0223668D01*
X0124668Y0224667D02*
X0193153Y0224667D01*
X0192154Y0225665D02*
X0124668Y0225665D01*
X0124668Y0226664D02*
X0191545Y0226664D01*
X0191132Y0227662D02*
X0124668Y0227662D01*
X0124668Y0228661D02*
X0190718Y0228661D01*
X0190598Y0229659D02*
X0124668Y0229659D01*
X0124668Y0230658D02*
X0190598Y0230658D01*
X0190598Y0231656D02*
X0124668Y0231656D01*
X0124668Y0232655D02*
X0165220Y0232655D01*
X0165257Y0232617D02*
X0166724Y0232009D01*
X0168311Y0232009D01*
X0169778Y0232617D01*
X0170901Y0233740D01*
X0171508Y0235206D01*
X0171508Y0236794D01*
X0170918Y0238219D01*
X0170918Y0286280D01*
X0171508Y0287706D01*
X0171508Y0289294D01*
X0170901Y0290760D01*
X0169778Y0291883D01*
X0168311Y0292491D01*
X0166724Y0292491D01*
X0165257Y0291883D01*
X0165018Y0291643D01*
X0164778Y0291883D01*
X0163311Y0292491D01*
X0161724Y0292491D01*
X0160257Y0291883D01*
X0159135Y0290760D01*
X0158527Y0289294D01*
X0158527Y0287706D01*
X0159118Y0286280D01*
X0159118Y0279657D01*
X0158311Y0279991D01*
X0156724Y0279991D01*
X0155918Y0279657D01*
X0155918Y0286280D01*
X0156508Y0287706D01*
X0156508Y0289294D01*
X0155901Y0290760D01*
X0154778Y0291883D01*
X0153311Y0292491D01*
X0151724Y0292491D01*
X0150257Y0291883D01*
X0149135Y0290760D01*
X0148527Y0289294D01*
X0148527Y0287706D01*
X0149118Y0286280D01*
X0149118Y0243219D01*
X0148527Y0241794D01*
X0148527Y0240206D01*
X0149135Y0238740D01*
X0150257Y0237617D01*
X0151724Y0237009D01*
X0153311Y0237009D01*
X0154778Y0237617D01*
X0155901Y0238740D01*
X0156508Y0240206D01*
X0156508Y0241794D01*
X0155918Y0243219D01*
X0155918Y0243593D01*
X0156724Y0243259D01*
X0158311Y0243259D01*
X0159778Y0243867D01*
X0160018Y0244107D01*
X0160257Y0243867D01*
X0161724Y0243259D01*
X0163311Y0243259D01*
X0164118Y0243593D01*
X0164118Y0238219D01*
X0163527Y0236794D01*
X0163527Y0235206D01*
X0164135Y0233740D01*
X0165257Y0232617D01*
X0164221Y0233653D02*
X0124668Y0233653D01*
X0124668Y0234652D02*
X0163757Y0234652D01*
X0163527Y0235650D02*
X0124668Y0235650D01*
X0124668Y0236649D02*
X0163527Y0236649D01*
X0163881Y0237647D02*
X0154808Y0237647D01*
X0155807Y0238646D02*
X0164118Y0238646D01*
X0164118Y0239644D02*
X0156275Y0239644D01*
X0156508Y0240643D02*
X0164118Y0240643D01*
X0164118Y0241641D02*
X0156508Y0241641D01*
X0156158Y0242640D02*
X0164118Y0242640D01*
X0160809Y0243638D02*
X0159226Y0243638D01*
X0157518Y0247250D02*
X0157518Y0276000D01*
X0155918Y0280583D02*
X0159118Y0280583D01*
X0159118Y0281582D02*
X0155918Y0281582D01*
X0155918Y0282580D02*
X0159118Y0282580D01*
X0159118Y0283579D02*
X0155918Y0283579D01*
X0155918Y0284577D02*
X0159118Y0284577D01*
X0159118Y0285576D02*
X0155918Y0285576D01*
X0156039Y0286574D02*
X0158996Y0286574D01*
X0158582Y0287573D02*
X0156453Y0287573D01*
X0156508Y0288571D02*
X0158527Y0288571D01*
X0158641Y0289570D02*
X0156394Y0289570D01*
X0155980Y0290568D02*
X0159055Y0290568D01*
X0159941Y0291567D02*
X0155094Y0291567D01*
X0152518Y0288500D02*
X0152518Y0241000D01*
X0149229Y0238646D02*
X0124668Y0238646D01*
X0124668Y0239644D02*
X0148760Y0239644D01*
X0148527Y0240643D02*
X0124668Y0240643D01*
X0124668Y0241641D02*
X0148527Y0241641D01*
X0148878Y0242640D02*
X0124668Y0242640D01*
X0124668Y0243638D02*
X0149118Y0243638D01*
X0149118Y0244637D02*
X0124668Y0244637D01*
X0124668Y0245635D02*
X0149118Y0245635D01*
X0149118Y0246634D02*
X0124668Y0246634D01*
X0124668Y0247632D02*
X0149118Y0247632D01*
X0149118Y0248631D02*
X0125458Y0248631D01*
X0126791Y0249629D02*
X0149118Y0249629D01*
X0149118Y0250628D02*
X0127415Y0250628D01*
X0127758Y0251626D02*
X0149118Y0251626D01*
X0149118Y0252625D02*
X0127758Y0252625D01*
X0127518Y0253623D02*
X0149118Y0253623D01*
X0149118Y0254622D02*
X0127039Y0254622D01*
X0126041Y0255620D02*
X0149118Y0255620D01*
X0149118Y0256619D02*
X0124008Y0256619D01*
X0124008Y0257617D02*
X0149118Y0257617D01*
X0149118Y0258616D02*
X0123771Y0258616D01*
X0123297Y0259614D02*
X0149118Y0259614D01*
X0149118Y0260613D02*
X0124921Y0260613D01*
X0126048Y0261611D02*
X0128886Y0261611D01*
X0127469Y0262610D02*
X0127047Y0262610D01*
X0130768Y0262610D02*
X0131768Y0262610D01*
X0131768Y0263608D02*
X0130768Y0263608D01*
X0130768Y0264607D02*
X0131768Y0264607D01*
X0131768Y0265605D02*
X0130768Y0265605D01*
X0131768Y0266604D02*
X0149118Y0266604D01*
X0149118Y0265605D02*
X0136631Y0265605D01*
X0136369Y0264607D02*
X0149118Y0264607D01*
X0149118Y0263608D02*
X0135887Y0263608D01*
X0135067Y0262610D02*
X0149118Y0262610D01*
X0149118Y0261611D02*
X0133649Y0261611D01*
X0131768Y0261611D02*
X0130768Y0261611D01*
X0130768Y0267603D02*
X0131768Y0267603D01*
X0131768Y0268601D02*
X0130768Y0268601D01*
X0130768Y0269600D02*
X0131768Y0269600D01*
X0131768Y0270598D02*
X0130768Y0270598D01*
X0130768Y0271597D02*
X0131768Y0271597D01*
X0133177Y0271597D02*
X0149118Y0271597D01*
X0149118Y0272595D02*
X0124419Y0272595D01*
X0125840Y0271597D02*
X0129359Y0271597D01*
X0127677Y0270598D02*
X0126839Y0270598D01*
X0121268Y0266500D02*
X0120518Y0266500D01*
X0112518Y0258500D01*
X0122518Y0252250D02*
X0123768Y0252250D01*
X0124668Y0237647D02*
X0150227Y0237647D01*
X0162518Y0247250D02*
X0162518Y0288500D01*
X0167518Y0288500D02*
X0167518Y0236000D01*
X0171155Y0237647D02*
X0194770Y0237647D01*
X0193368Y0236649D02*
X0171508Y0236649D01*
X0171508Y0235650D02*
X0192370Y0235650D01*
X0191635Y0234652D02*
X0171279Y0234652D01*
X0170814Y0233653D02*
X0191221Y0233653D01*
X0190807Y0232655D02*
X0169816Y0232655D01*
X0170918Y0238646D02*
X0231618Y0238646D01*
X0231618Y0239644D02*
X0170918Y0239644D01*
X0170918Y0240643D02*
X0231618Y0240643D01*
X0231618Y0241641D02*
X0170918Y0241641D01*
X0170918Y0242640D02*
X0231618Y0242640D01*
X0231618Y0243638D02*
X0170918Y0243638D01*
X0170918Y0244637D02*
X0231618Y0244637D01*
X0231618Y0245635D02*
X0170918Y0245635D01*
X0170918Y0246634D02*
X0231618Y0246634D01*
X0231618Y0247632D02*
X0170918Y0247632D01*
X0170918Y0248631D02*
X0231618Y0248631D01*
X0231618Y0249629D02*
X0170918Y0249629D01*
X0170918Y0250628D02*
X0231618Y0250628D01*
X0231618Y0251626D02*
X0170918Y0251626D01*
X0170918Y0252625D02*
X0231618Y0252625D01*
X0231618Y0253623D02*
X0170918Y0253623D01*
X0170918Y0254622D02*
X0231618Y0254622D01*
X0231618Y0255620D02*
X0170918Y0255620D01*
X0170918Y0256619D02*
X0231618Y0256619D01*
X0231618Y0257617D02*
X0170918Y0257617D01*
X0170918Y0258616D02*
X0231618Y0258616D01*
X0231618Y0259614D02*
X0170918Y0259614D01*
X0170918Y0260613D02*
X0190114Y0260613D01*
X0189895Y0260704D02*
X0192408Y0259663D01*
X0195128Y0259663D01*
X0197641Y0260704D01*
X0198768Y0261831D01*
X0199895Y0260704D01*
X0202408Y0259663D01*
X0205128Y0259663D01*
X0207641Y0260704D01*
X0209564Y0262627D01*
X0209677Y0262901D01*
X0210226Y0262353D01*
X0210918Y0261850D01*
X0211681Y0261461D01*
X0212495Y0261197D01*
X0213268Y0261074D01*
X0213268Y0266000D01*
X0214268Y0266000D01*
X0214268Y0267000D01*
X0219193Y0267000D01*
X0219071Y0267773D01*
X0218806Y0268587D01*
X0218418Y0269350D01*
X0217915Y0270042D01*
X0217310Y0270647D01*
X0216617Y0271150D01*
X0215855Y0271539D01*
X0215041Y0271803D01*
X0214268Y0271926D01*
X0214268Y0267000D01*
X0213268Y0267000D01*
X0213268Y0271926D01*
X0212495Y0271803D01*
X0211681Y0271539D01*
X0210918Y0271150D01*
X0210226Y0270647D01*
X0209677Y0270099D01*
X0209564Y0270373D01*
X0207641Y0272296D01*
X0205128Y0273337D01*
X0202408Y0273337D01*
X0199895Y0272296D01*
X0198768Y0271169D01*
X0197641Y0272296D01*
X0195128Y0273337D01*
X0192408Y0273337D01*
X0189895Y0272296D01*
X0187972Y0270373D01*
X0186931Y0267860D01*
X0186931Y0265140D01*
X0187972Y0262627D01*
X0189895Y0260704D01*
X0188987Y0261611D02*
X0170918Y0261611D01*
X0170918Y0262610D02*
X0187989Y0262610D01*
X0187565Y0263608D02*
X0170918Y0263608D01*
X0170918Y0264607D02*
X0187151Y0264607D01*
X0186931Y0265605D02*
X0170918Y0265605D01*
X0170918Y0266604D02*
X0186931Y0266604D01*
X0186931Y0267603D02*
X0170918Y0267603D01*
X0170918Y0268601D02*
X0187238Y0268601D01*
X0187651Y0269600D02*
X0170918Y0269600D01*
X0170918Y0270598D02*
X0188197Y0270598D01*
X0189195Y0271597D02*
X0170918Y0271597D01*
X0170918Y0272595D02*
X0190617Y0272595D01*
X0196919Y0272595D02*
X0200617Y0272595D01*
X0199195Y0271597D02*
X0198340Y0271597D01*
X0198548Y0261611D02*
X0198987Y0261611D01*
X0200114Y0260613D02*
X0197421Y0260613D01*
X0207421Y0260613D02*
X0231618Y0260613D01*
X0231618Y0261611D02*
X0216149Y0261611D01*
X0215855Y0261461D02*
X0216617Y0261850D01*
X0217310Y0262353D01*
X0217915Y0262958D01*
X0218418Y0263650D01*
X0218806Y0264413D01*
X0219071Y0265227D01*
X0219193Y0266000D01*
X0214268Y0266000D01*
X0214268Y0261074D01*
X0215041Y0261197D01*
X0215855Y0261461D01*
X0214268Y0261611D02*
X0213268Y0261611D01*
X0213268Y0262610D02*
X0214268Y0262610D01*
X0214268Y0263608D02*
X0213268Y0263608D01*
X0213268Y0264607D02*
X0214268Y0264607D01*
X0214268Y0265605D02*
X0213268Y0265605D01*
X0214268Y0266604D02*
X0231618Y0266604D01*
X0231618Y0265605D02*
X0219131Y0265605D01*
X0218869Y0264607D02*
X0231618Y0264607D01*
X0231618Y0263608D02*
X0218387Y0263608D01*
X0217567Y0262610D02*
X0231618Y0262610D01*
X0231618Y0267603D02*
X0219098Y0267603D01*
X0218799Y0268601D02*
X0231618Y0268601D01*
X0231618Y0269600D02*
X0218236Y0269600D01*
X0217359Y0270598D02*
X0231618Y0270598D01*
X0231618Y0271597D02*
X0215677Y0271597D01*
X0214268Y0271597D02*
X0213268Y0271597D01*
X0213268Y0270598D02*
X0214268Y0270598D01*
X0214268Y0269600D02*
X0213268Y0269600D01*
X0213268Y0268601D02*
X0214268Y0268601D01*
X0214268Y0267603D02*
X0213268Y0267603D01*
X0210177Y0270598D02*
X0209339Y0270598D01*
X0208340Y0271597D02*
X0211859Y0271597D01*
X0206919Y0272595D02*
X0231618Y0272595D01*
X0231618Y0273594D02*
X0170918Y0273594D01*
X0170918Y0274592D02*
X0231618Y0274592D01*
X0231618Y0275591D02*
X0170918Y0275591D01*
X0170918Y0276589D02*
X0231618Y0276589D01*
X0231618Y0277588D02*
X0170918Y0277588D01*
X0170918Y0278586D02*
X0231618Y0278586D01*
X0231618Y0279585D02*
X0170918Y0279585D01*
X0170918Y0280583D02*
X0230626Y0280583D01*
X0229628Y0281582D02*
X0170918Y0281582D01*
X0170918Y0282580D02*
X0228629Y0282580D01*
X0227631Y0283579D02*
X0170918Y0283579D01*
X0170918Y0284577D02*
X0179132Y0284577D01*
X0178134Y0285576D02*
X0170918Y0285576D01*
X0171039Y0286574D02*
X0177135Y0286574D01*
X0176137Y0287573D02*
X0171453Y0287573D01*
X0171508Y0288571D02*
X0175138Y0288571D01*
X0174140Y0289570D02*
X0171394Y0289570D01*
X0170980Y0290568D02*
X0173141Y0290568D01*
X0172143Y0291567D02*
X0170094Y0291567D01*
X0171144Y0292565D02*
X0147416Y0292565D01*
X0147197Y0292038D02*
X0148262Y0294609D01*
X0148262Y0297391D01*
X0147197Y0299962D01*
X0145230Y0301930D01*
X0142659Y0302994D01*
X0139876Y0302994D01*
X0137306Y0301930D01*
X0135338Y0299962D01*
X0134273Y0297391D01*
X0134273Y0294609D01*
X0135338Y0292038D01*
X0137306Y0290070D01*
X0139876Y0289006D01*
X0142659Y0289006D01*
X0145230Y0290070D01*
X0147197Y0292038D01*
X0146726Y0291567D02*
X0149941Y0291567D01*
X0149055Y0290568D02*
X0145728Y0290568D01*
X0144021Y0289570D02*
X0148641Y0289570D01*
X0148527Y0288571D02*
X0006668Y0288571D01*
X0006668Y0287573D02*
X0148582Y0287573D01*
X0148996Y0286574D02*
X0006668Y0286574D01*
X0006668Y0285576D02*
X0149118Y0285576D01*
X0149118Y0284577D02*
X0006668Y0284577D01*
X0006668Y0283579D02*
X0149118Y0283579D01*
X0149118Y0282580D02*
X0006668Y0282580D01*
X0006668Y0281582D02*
X0149118Y0281582D01*
X0149118Y0280583D02*
X0006668Y0280583D01*
X0006668Y0279585D02*
X0149118Y0279585D01*
X0149118Y0278586D02*
X0006668Y0278586D01*
X0006668Y0277588D02*
X0149118Y0277588D01*
X0149118Y0276589D02*
X0006668Y0276589D01*
X0006668Y0275591D02*
X0149118Y0275591D01*
X0149118Y0274592D02*
X0006668Y0274592D01*
X0006668Y0273594D02*
X0149118Y0273594D01*
X0149118Y0270598D02*
X0134859Y0270598D01*
X0135736Y0269600D02*
X0149118Y0269600D01*
X0149118Y0268601D02*
X0136299Y0268601D01*
X0136598Y0267603D02*
X0149118Y0267603D01*
X0138514Y0289570D02*
X0104021Y0289570D01*
X0105230Y0290070D02*
X0102659Y0289006D01*
X0099876Y0289006D01*
X0097306Y0290070D01*
X0095338Y0292038D01*
X0094273Y0294609D01*
X0094273Y0297391D01*
X0095338Y0299962D01*
X0097306Y0301930D01*
X0099876Y0302994D01*
X0102659Y0302994D01*
X0105230Y0301930D01*
X0107197Y0299962D01*
X0108262Y0297391D01*
X0108262Y0294609D01*
X0107197Y0292038D01*
X0105230Y0290070D01*
X0105728Y0290568D02*
X0136808Y0290568D01*
X0135809Y0291567D02*
X0106726Y0291567D01*
X0107416Y0292565D02*
X0135120Y0292565D01*
X0134706Y0293564D02*
X0107829Y0293564D01*
X0108243Y0294562D02*
X0134292Y0294562D01*
X0134273Y0295561D02*
X0108262Y0295561D01*
X0108262Y0296559D02*
X0134273Y0296559D01*
X0134342Y0297558D02*
X0108193Y0297558D01*
X0107780Y0298556D02*
X0134756Y0298556D01*
X0135169Y0299555D02*
X0107366Y0299555D01*
X0106606Y0300553D02*
X0135929Y0300553D01*
X0136928Y0301552D02*
X0105607Y0301552D01*
X0103731Y0302550D02*
X0138804Y0302550D01*
X0143731Y0302550D02*
X0161159Y0302550D01*
X0162157Y0301552D02*
X0145607Y0301552D01*
X0146606Y0300553D02*
X0163156Y0300553D01*
X0164155Y0299555D02*
X0147366Y0299555D01*
X0147780Y0298556D02*
X0165153Y0298556D01*
X0166152Y0297558D02*
X0148193Y0297558D01*
X0148262Y0296559D02*
X0167150Y0296559D01*
X0168149Y0295561D02*
X0148262Y0295561D01*
X0148243Y0294562D02*
X0169147Y0294562D01*
X0170146Y0293564D02*
X0147829Y0293564D01*
X0156330Y0306544D02*
X0006668Y0306544D01*
X0006668Y0305546D02*
X0158163Y0305546D01*
X0159162Y0304547D02*
X0006668Y0304547D01*
X0006668Y0303549D02*
X0160160Y0303549D01*
X0163786Y0309540D02*
X0235868Y0309540D01*
X0235868Y0308541D02*
X0164785Y0308541D01*
X0165783Y0307543D02*
X0235868Y0307543D01*
X0235868Y0306544D02*
X0166782Y0306544D01*
X0167780Y0305546D02*
X0235868Y0305546D01*
X0235868Y0304547D02*
X0168779Y0304547D01*
X0169777Y0303549D02*
X0235868Y0303549D01*
X0235868Y0302550D02*
X0226231Y0302550D01*
X0228107Y0301552D02*
X0235868Y0301552D01*
X0235868Y0300553D02*
X0229106Y0300553D01*
X0229866Y0299555D02*
X0235868Y0299555D01*
X0235868Y0298556D02*
X0230280Y0298556D01*
X0230693Y0297558D02*
X0235868Y0297558D01*
X0235868Y0296559D02*
X0230762Y0296559D01*
X0230762Y0295561D02*
X0235868Y0295561D01*
X0235868Y0294562D02*
X0230743Y0294562D01*
X0230329Y0293564D02*
X0235868Y0293564D01*
X0235868Y0292565D02*
X0229916Y0292565D01*
X0229226Y0291567D02*
X0235868Y0291567D01*
X0235868Y0290568D02*
X0229641Y0290568D01*
X0231256Y0289570D02*
X0235868Y0289570D01*
X0235868Y0288571D02*
X0232255Y0288571D01*
X0233253Y0287573D02*
X0235868Y0287573D01*
X0235868Y0286574D02*
X0234252Y0286574D01*
X0235250Y0285576D02*
X0235868Y0285576D01*
X0235018Y0281000D02*
X0235018Y0041000D01*
X0211268Y0017250D01*
X0211268Y0008500D01*
X0207518Y0004750D01*
X0095018Y0004750D01*
X0093768Y0006000D01*
X0093768Y0016000D01*
X0089162Y0009987D02*
X0033374Y0009987D01*
X0033515Y0010128D02*
X0034368Y0012186D01*
X0034368Y0019814D01*
X0033515Y0021872D01*
X0031940Y0023447D01*
X0029882Y0024300D01*
X0027654Y0024300D01*
X0025596Y0023447D01*
X0024020Y0021872D01*
X0023168Y0019814D01*
X0023168Y0012186D01*
X0024020Y0010128D01*
X0025596Y0008553D01*
X0027654Y0007700D01*
X0029882Y0007700D01*
X0031940Y0008553D01*
X0033515Y0010128D01*
X0033870Y0010985D02*
X0088665Y0010985D01*
X0088252Y0011984D02*
X0034284Y0011984D01*
X0034368Y0012982D02*
X0088168Y0012982D01*
X0088168Y0013981D02*
X0034368Y0013981D01*
X0034368Y0014979D02*
X0088168Y0014979D01*
X0088168Y0015978D02*
X0034368Y0015978D01*
X0034368Y0016976D02*
X0088168Y0016976D01*
X0088168Y0017975D02*
X0034368Y0017975D01*
X0034368Y0018973D02*
X0088168Y0018973D01*
X0088233Y0019972D02*
X0034302Y0019972D01*
X0033889Y0020970D02*
X0088647Y0020970D01*
X0089117Y0021969D02*
X0033419Y0021969D01*
X0032420Y0022967D02*
X0090115Y0022967D01*
X0091847Y0023966D02*
X0030689Y0023966D01*
X0026847Y0023966D02*
X0006668Y0023966D01*
X0006668Y0024964D02*
X0214174Y0024964D01*
X0215172Y0025963D02*
X0006668Y0025963D01*
X0006668Y0026961D02*
X0216171Y0026961D01*
X0217169Y0027960D02*
X0006668Y0027960D01*
X0006668Y0028958D02*
X0218168Y0028958D01*
X0219166Y0029957D02*
X0006668Y0029957D01*
X0006668Y0030955D02*
X0220165Y0030955D01*
X0221163Y0031954D02*
X0006668Y0031954D01*
X0006668Y0032952D02*
X0222162Y0032952D01*
X0223160Y0033951D02*
X0006668Y0033951D01*
X0006668Y0034949D02*
X0224159Y0034949D01*
X0225157Y0035948D02*
X0006668Y0035948D01*
X0006668Y0036946D02*
X0226156Y0036946D01*
X0227154Y0037945D02*
X0006668Y0037945D01*
X0006668Y0038943D02*
X0228153Y0038943D01*
X0229151Y0039942D02*
X0140265Y0039942D01*
X0139802Y0039750D02*
X0141713Y0040542D01*
X0143176Y0042004D01*
X0143968Y0043916D01*
X0143968Y0050584D01*
X0143176Y0052496D01*
X0141713Y0053958D01*
X0139802Y0054750D01*
X0137733Y0054750D01*
X0135822Y0053958D01*
X0134359Y0052496D01*
X0133568Y0050584D01*
X0133568Y0043916D01*
X0134359Y0042004D01*
X0135822Y0040542D01*
X0137733Y0039750D01*
X0139802Y0039750D01*
X0137270Y0039942D02*
X0120265Y0039942D01*
X0119802Y0039750D02*
X0121713Y0040542D01*
X0123176Y0042004D01*
X0123968Y0043916D01*
X0123968Y0050584D01*
X0123176Y0052496D01*
X0121713Y0053958D01*
X0119802Y0054750D01*
X0117733Y0054750D01*
X0115822Y0053958D01*
X0114359Y0052496D01*
X0113568Y0050584D01*
X0113568Y0043916D01*
X0114359Y0042004D01*
X0115822Y0040542D01*
X0117733Y0039750D01*
X0119802Y0039750D01*
X0117270Y0039942D02*
X0006668Y0039942D01*
X0006668Y0040940D02*
X0115423Y0040940D01*
X0114425Y0041939D02*
X0006668Y0041939D01*
X0006668Y0042937D02*
X0113973Y0042937D01*
X0113568Y0043936D02*
X0006668Y0043936D01*
X0006668Y0044934D02*
X0113568Y0044934D01*
X0113568Y0045933D02*
X0006668Y0045933D01*
X0006668Y0046932D02*
X0113568Y0046932D01*
X0113568Y0047930D02*
X0006668Y0047930D01*
X0006668Y0048929D02*
X0113568Y0048929D01*
X0113568Y0049927D02*
X0006668Y0049927D01*
X0006668Y0050926D02*
X0113709Y0050926D01*
X0114123Y0051924D02*
X0006668Y0051924D01*
X0006668Y0052923D02*
X0114786Y0052923D01*
X0115785Y0053921D02*
X0006668Y0053921D01*
X0006668Y0054920D02*
X0231618Y0054920D01*
X0231618Y0055918D02*
X0006668Y0055918D01*
X0006668Y0056917D02*
X0231618Y0056917D01*
X0231618Y0057915D02*
X0006668Y0057915D01*
X0006668Y0058914D02*
X0231618Y0058914D01*
X0231618Y0059912D02*
X0006668Y0059912D01*
X0006668Y0060911D02*
X0231618Y0060911D01*
X0231618Y0061909D02*
X0006668Y0061909D01*
X0006668Y0062908D02*
X0231618Y0062908D01*
X0231618Y0063906D02*
X0006668Y0063906D01*
X0006668Y0064905D02*
X0231618Y0064905D01*
X0231618Y0065903D02*
X0006668Y0065903D01*
X0006668Y0066902D02*
X0231618Y0066902D01*
X0231618Y0067900D02*
X0006668Y0067900D01*
X0011218Y0087870D02*
X0017504Y0087870D01*
X0016581Y0088869D02*
X0011218Y0088869D01*
X0011218Y0089868D02*
X0016167Y0089868D01*
X0016027Y0090866D02*
X0011218Y0090866D01*
X0011218Y0091865D02*
X0016056Y0091865D01*
X0016470Y0092863D02*
X0011218Y0092863D01*
X0011218Y0093862D02*
X0017236Y0093862D01*
X0018909Y0094860D02*
X0011218Y0094860D01*
X0011218Y0095859D02*
X0020068Y0095859D01*
X0021738Y0096857D02*
X0011218Y0096857D01*
X0020018Y0091000D02*
X0022518Y0093500D01*
X0024692Y0090866D02*
X0054777Y0090866D01*
X0054806Y0091865D02*
X0025520Y0091865D01*
X0025918Y0092863D02*
X0055220Y0092863D01*
X0054917Y0089868D02*
X0023868Y0089868D01*
X0023454Y0088869D02*
X0055331Y0088869D01*
X0056254Y0087870D02*
X0022532Y0087870D01*
X0025115Y0022967D02*
X0006668Y0022967D01*
X0006668Y0021969D02*
X0016121Y0021969D01*
X0016032Y0021904D02*
X0015564Y0021436D01*
X0015176Y0020901D01*
X0014875Y0020312D01*
X0014671Y0019684D01*
X0014568Y0019031D01*
X0014568Y0016500D01*
X0018268Y0016500D01*
X0018268Y0022873D01*
X0017784Y0022797D01*
X0017155Y0022592D01*
X0016566Y0022292D01*
X0016032Y0021904D01*
X0015226Y0020970D02*
X0006668Y0020970D01*
X0006668Y0019972D02*
X0014765Y0019972D01*
X0014568Y0018973D02*
X0006668Y0018973D01*
X0006668Y0017975D02*
X0014568Y0017975D01*
X0014568Y0016976D02*
X0006668Y0016976D01*
X0006668Y0015978D02*
X0018268Y0015978D01*
X0018268Y0015500D02*
X0014568Y0015500D01*
X0014568Y0012969D01*
X0014671Y0012316D01*
X0014875Y0011688D01*
X0015176Y0011099D01*
X0015564Y0010564D01*
X0016032Y0010096D01*
X0016566Y0009708D01*
X0017155Y0009408D01*
X0017784Y0009203D01*
X0018268Y0009127D01*
X0018268Y0015500D01*
X0019268Y0015500D01*
X0019268Y0016500D01*
X0022968Y0016500D01*
X0022968Y0019031D01*
X0022864Y0019684D01*
X0022660Y0020312D01*
X0022360Y0020901D01*
X0021971Y0021436D01*
X0021504Y0021904D01*
X0020969Y0022292D01*
X0020380Y0022592D01*
X0019751Y0022797D01*
X0019268Y0022873D01*
X0019268Y0016500D01*
X0018268Y0016500D01*
X0018268Y0015500D01*
X0018268Y0014979D02*
X0019268Y0014979D01*
X0019268Y0015500D02*
X0019268Y0009127D01*
X0019751Y0009203D01*
X0020380Y0009408D01*
X0020969Y0009708D01*
X0021504Y0010096D01*
X0021971Y0010564D01*
X0022360Y0011099D01*
X0022660Y0011688D01*
X0022864Y0012316D01*
X0022968Y0012969D01*
X0022968Y0015500D01*
X0019268Y0015500D01*
X0019268Y0015978D02*
X0023168Y0015978D01*
X0023168Y0016976D02*
X0022968Y0016976D01*
X0022968Y0017975D02*
X0023168Y0017975D01*
X0023168Y0018973D02*
X0022968Y0018973D01*
X0022771Y0019972D02*
X0023233Y0019972D01*
X0023647Y0020970D02*
X0022310Y0020970D01*
X0021414Y0021969D02*
X0024117Y0021969D01*
X0019268Y0021969D02*
X0018268Y0021969D01*
X0018268Y0020970D02*
X0019268Y0020970D01*
X0019268Y0019972D02*
X0018268Y0019972D01*
X0018268Y0018973D02*
X0019268Y0018973D01*
X0019268Y0017975D02*
X0018268Y0017975D01*
X0018268Y0016976D02*
X0019268Y0016976D01*
X0019268Y0013981D02*
X0018268Y0013981D01*
X0018268Y0012982D02*
X0019268Y0012982D01*
X0019268Y0011984D02*
X0018268Y0011984D01*
X0018268Y0010985D02*
X0019268Y0010985D01*
X0019268Y0009987D02*
X0018268Y0009987D01*
X0016183Y0009987D02*
X0006668Y0009987D01*
X0006668Y0010985D02*
X0015258Y0010985D01*
X0014779Y0011984D02*
X0006668Y0011984D01*
X0006668Y0012982D02*
X0014568Y0012982D01*
X0014568Y0013981D02*
X0006668Y0013981D01*
X0006668Y0014979D02*
X0014568Y0014979D01*
X0022968Y0014979D02*
X0023168Y0014979D01*
X0023168Y0013981D02*
X0022968Y0013981D01*
X0022968Y0012982D02*
X0023168Y0012982D01*
X0023252Y0011984D02*
X0022756Y0011984D01*
X0022277Y0010985D02*
X0023665Y0010985D01*
X0024162Y0009987D02*
X0021353Y0009987D01*
X0025160Y0008988D02*
X0006668Y0008988D01*
X0006668Y0007990D02*
X0026955Y0007990D01*
X0030581Y0007990D02*
X0090368Y0007990D01*
X0090368Y0006991D02*
X0006668Y0006991D01*
X0006668Y0005993D02*
X0090368Y0005993D01*
X0090504Y0004994D02*
X0006668Y0004994D01*
X0006668Y0003996D02*
X0090964Y0003996D01*
X0090160Y0008988D02*
X0032375Y0008988D01*
X0095689Y0023966D02*
X0111847Y0023966D01*
X0110115Y0022967D02*
X0097420Y0022967D01*
X0098419Y0021969D02*
X0101121Y0021969D01*
X0101032Y0021904D02*
X0100564Y0021436D01*
X0100176Y0020901D01*
X0099875Y0020312D01*
X0099671Y0019684D01*
X0099568Y0019031D01*
X0099568Y0016500D01*
X0103268Y0016500D01*
X0103268Y0022873D01*
X0102784Y0022797D01*
X0102155Y0022592D01*
X0101566Y0022292D01*
X0101032Y0021904D01*
X0100226Y0020970D02*
X0098889Y0020970D01*
X0099302Y0019972D02*
X0099765Y0019972D01*
X0099568Y0018973D02*
X0099368Y0018973D01*
X0099368Y0017975D02*
X0099568Y0017975D01*
X0099568Y0016976D02*
X0099368Y0016976D01*
X0099368Y0015978D02*
X0103268Y0015978D01*
X0103268Y0015500D02*
X0099568Y0015500D01*
X0099568Y0012969D01*
X0099671Y0012316D01*
X0099875Y0011688D01*
X0100176Y0011099D01*
X0100564Y0010564D01*
X0101032Y0010096D01*
X0101566Y0009708D01*
X0102155Y0009408D01*
X0102784Y0009203D01*
X0103268Y0009127D01*
X0103268Y0015500D01*
X0104268Y0015500D01*
X0104268Y0016500D01*
X0107968Y0016500D01*
X0107968Y0019031D01*
X0107864Y0019684D01*
X0107660Y0020312D01*
X0107360Y0020901D01*
X0106971Y0021436D01*
X0106504Y0021904D01*
X0105969Y0022292D01*
X0105380Y0022592D01*
X0104751Y0022797D01*
X0104268Y0022873D01*
X0104268Y0016500D01*
X0103268Y0016500D01*
X0103268Y0015500D01*
X0103268Y0014979D02*
X0104268Y0014979D01*
X0104268Y0015500D02*
X0104268Y0009127D01*
X0104751Y0009203D01*
X0105380Y0009408D01*
X0105969Y0009708D01*
X0106504Y0010096D01*
X0106971Y0010564D01*
X0107360Y0011099D01*
X0107660Y0011688D01*
X0107864Y0012316D01*
X0107968Y0012969D01*
X0107968Y0015500D01*
X0104268Y0015500D01*
X0104268Y0015978D02*
X0108168Y0015978D01*
X0108168Y0016976D02*
X0107968Y0016976D01*
X0107968Y0017975D02*
X0108168Y0017975D01*
X0108168Y0018973D02*
X0107968Y0018973D01*
X0107771Y0019972D02*
X0108233Y0019972D01*
X0108647Y0020970D02*
X0107310Y0020970D01*
X0106414Y0021969D02*
X0109117Y0021969D01*
X0104268Y0021969D02*
X0103268Y0021969D01*
X0103268Y0020970D02*
X0104268Y0020970D01*
X0104268Y0019972D02*
X0103268Y0019972D01*
X0103268Y0018973D02*
X0104268Y0018973D01*
X0104268Y0017975D02*
X0103268Y0017975D01*
X0103268Y0016976D02*
X0104268Y0016976D01*
X0104268Y0013981D02*
X0103268Y0013981D01*
X0103268Y0012982D02*
X0104268Y0012982D01*
X0104268Y0011984D02*
X0103268Y0011984D01*
X0103268Y0010985D02*
X0104268Y0010985D01*
X0104268Y0009987D02*
X0103268Y0009987D01*
X0101183Y0009987D02*
X0098374Y0009987D01*
X0098870Y0010985D02*
X0100258Y0010985D01*
X0099779Y0011984D02*
X0099284Y0011984D01*
X0099368Y0012982D02*
X0099568Y0012982D01*
X0099568Y0013981D02*
X0099368Y0013981D01*
X0099368Y0014979D02*
X0099568Y0014979D01*
X0097375Y0008988D02*
X0110160Y0008988D01*
X0109162Y0009987D02*
X0106353Y0009987D01*
X0107277Y0010985D02*
X0108665Y0010985D01*
X0108252Y0011984D02*
X0107756Y0011984D01*
X0107968Y0012982D02*
X0108168Y0012982D01*
X0108168Y0013981D02*
X0107968Y0013981D01*
X0107968Y0014979D02*
X0108168Y0014979D01*
X0115689Y0023966D02*
X0121847Y0023966D01*
X0120115Y0022967D02*
X0117420Y0022967D01*
X0118419Y0021969D02*
X0119117Y0021969D01*
X0125689Y0023966D02*
X0131847Y0023966D01*
X0130115Y0022967D02*
X0127420Y0022967D01*
X0128419Y0021969D02*
X0129117Y0021969D01*
X0135689Y0023966D02*
X0141847Y0023966D01*
X0140115Y0022967D02*
X0137420Y0022967D01*
X0138419Y0021969D02*
X0139117Y0021969D01*
X0145689Y0023966D02*
X0151847Y0023966D01*
X0150115Y0022967D02*
X0147420Y0022967D01*
X0148419Y0021969D02*
X0149117Y0021969D01*
X0155689Y0023966D02*
X0213175Y0023966D01*
X0212177Y0022967D02*
X0157420Y0022967D01*
X0158419Y0021969D02*
X0211178Y0021969D01*
X0210180Y0020970D02*
X0158889Y0020970D01*
X0159302Y0019972D02*
X0209181Y0019972D01*
X0208301Y0018973D02*
X0159368Y0018973D01*
X0159368Y0017975D02*
X0207888Y0017975D01*
X0207868Y0016976D02*
X0159368Y0016976D01*
X0159368Y0015978D02*
X0207868Y0015978D01*
X0207868Y0014979D02*
X0159368Y0014979D01*
X0159368Y0013981D02*
X0207868Y0013981D01*
X0207868Y0012982D02*
X0159368Y0012982D01*
X0159284Y0011984D02*
X0207868Y0011984D01*
X0207868Y0010985D02*
X0158870Y0010985D01*
X0158374Y0009987D02*
X0207868Y0009987D01*
X0206947Y0008988D02*
X0157375Y0008988D01*
X0142112Y0040940D02*
X0216689Y0040940D01*
X0216847Y0040826D02*
X0217695Y0040393D01*
X0218601Y0040099D01*
X0219518Y0039954D01*
X0219518Y0045500D01*
X0220518Y0045500D01*
X0220518Y0046500D01*
X0226064Y0046500D01*
X0225919Y0047417D01*
X0225624Y0048322D01*
X0225192Y0049171D01*
X0224632Y0049941D01*
X0223959Y0050615D01*
X0223189Y0051174D01*
X0222340Y0051607D01*
X0221434Y0051901D01*
X0220518Y0052046D01*
X0220518Y0046500D01*
X0219518Y0046500D01*
X0219518Y0052046D01*
X0218601Y0051901D01*
X0217695Y0051607D01*
X0216847Y0051174D01*
X0216076Y0050615D01*
X0215403Y0049941D01*
X0214843Y0049171D01*
X0214411Y0048322D01*
X0214117Y0047417D01*
X0213971Y0046500D01*
X0219518Y0046500D01*
X0219518Y0045500D01*
X0213971Y0045500D01*
X0214117Y0044583D01*
X0214411Y0043678D01*
X0214843Y0042829D01*
X0215403Y0042059D01*
X0216076Y0041385D01*
X0216847Y0040826D01*
X0215523Y0041939D02*
X0143111Y0041939D01*
X0143563Y0042937D02*
X0214788Y0042937D01*
X0214327Y0043936D02*
X0143968Y0043936D01*
X0143968Y0044934D02*
X0214061Y0044934D01*
X0214040Y0046932D02*
X0143968Y0046932D01*
X0143968Y0047930D02*
X0214283Y0047930D01*
X0214720Y0048929D02*
X0143968Y0048929D01*
X0143968Y0049927D02*
X0215393Y0049927D01*
X0216504Y0050926D02*
X0143826Y0050926D01*
X0143413Y0051924D02*
X0218747Y0051924D01*
X0219518Y0051924D02*
X0220518Y0051924D01*
X0221289Y0051924D02*
X0231618Y0051924D01*
X0231618Y0050926D02*
X0223531Y0050926D01*
X0224643Y0049927D02*
X0231618Y0049927D01*
X0231618Y0048929D02*
X0225316Y0048929D01*
X0225752Y0047930D02*
X0231618Y0047930D01*
X0231618Y0046932D02*
X0225996Y0046932D01*
X0226064Y0045500D02*
X0220518Y0045500D01*
X0220518Y0039954D01*
X0221434Y0040099D01*
X0222340Y0040393D01*
X0223189Y0040826D01*
X0223959Y0041385D01*
X0224632Y0042059D01*
X0225192Y0042829D01*
X0225624Y0043678D01*
X0225919Y0044583D01*
X0226064Y0045500D01*
X0225974Y0044934D02*
X0231618Y0044934D01*
X0231618Y0043936D02*
X0225708Y0043936D01*
X0225247Y0042937D02*
X0231618Y0042937D01*
X0231148Y0041939D02*
X0224513Y0041939D01*
X0223347Y0040940D02*
X0230150Y0040940D01*
X0231618Y0045933D02*
X0220518Y0045933D01*
X0220518Y0044934D02*
X0219518Y0044934D01*
X0219518Y0043936D02*
X0220518Y0043936D01*
X0220518Y0042937D02*
X0219518Y0042937D01*
X0219518Y0041939D02*
X0220518Y0041939D01*
X0220518Y0040940D02*
X0219518Y0040940D01*
X0219518Y0045933D02*
X0143968Y0045933D01*
X0142749Y0052923D02*
X0231618Y0052923D01*
X0231618Y0053921D02*
X0141751Y0053921D01*
X0135785Y0053921D02*
X0121751Y0053921D01*
X0122749Y0052923D02*
X0126980Y0052923D01*
X0126968Y0052918D02*
X0126345Y0052502D01*
X0125816Y0051972D01*
X0125400Y0051350D01*
X0125114Y0050658D01*
X0124968Y0049924D01*
X0124968Y0047550D01*
X0128468Y0047550D01*
X0128468Y0053350D01*
X0128393Y0053350D01*
X0127659Y0053204D01*
X0126968Y0052918D01*
X0128468Y0052923D02*
X0129068Y0052923D01*
X0129068Y0053350D02*
X0129068Y0047550D01*
X0132568Y0047550D01*
X0132568Y0049924D01*
X0132422Y0050658D01*
X0132135Y0051350D01*
X0131719Y0051972D01*
X0131190Y0052502D01*
X0130568Y0052918D01*
X0129876Y0053204D01*
X0129142Y0053350D01*
X0129068Y0053350D01*
X0129068Y0051924D02*
X0128468Y0051924D01*
X0128468Y0050926D02*
X0129068Y0050926D01*
X0129068Y0049927D02*
X0128468Y0049927D01*
X0128468Y0048929D02*
X0129068Y0048929D01*
X0129068Y0047930D02*
X0128468Y0047930D01*
X0128468Y0047550D02*
X0129068Y0047550D01*
X0129068Y0046950D01*
X0132568Y0046950D01*
X0132568Y0044576D01*
X0132422Y0043842D01*
X0132135Y0043150D01*
X0131719Y0042528D01*
X0131190Y0041998D01*
X0130568Y0041582D01*
X0129876Y0041296D01*
X0129142Y0041150D01*
X0129068Y0041150D01*
X0129068Y0046950D01*
X0128468Y0046950D01*
X0128468Y0041150D01*
X0128393Y0041150D01*
X0127659Y0041296D01*
X0126968Y0041582D01*
X0126345Y0041998D01*
X0125816Y0042528D01*
X0125400Y0043150D01*
X0125114Y0043842D01*
X0124968Y0044576D01*
X0124968Y0046950D01*
X0128468Y0046950D01*
X0128468Y0047550D01*
X0128468Y0046932D02*
X0129068Y0046932D01*
X0129068Y0045933D02*
X0128468Y0045933D01*
X0128468Y0044934D02*
X0129068Y0044934D01*
X0129068Y0043936D02*
X0128468Y0043936D01*
X0128468Y0042937D02*
X0129068Y0042937D01*
X0129068Y0041939D02*
X0128468Y0041939D01*
X0126434Y0041939D02*
X0123111Y0041939D01*
X0123563Y0042937D02*
X0125542Y0042937D01*
X0125095Y0043936D02*
X0123968Y0043936D01*
X0123968Y0044934D02*
X0124968Y0044934D01*
X0124968Y0045933D02*
X0123968Y0045933D01*
X0123968Y0046932D02*
X0124968Y0046932D01*
X0124968Y0047930D02*
X0123968Y0047930D01*
X0123968Y0048929D02*
X0124968Y0048929D01*
X0124968Y0049927D02*
X0123968Y0049927D01*
X0123826Y0050926D02*
X0125224Y0050926D01*
X0125784Y0051924D02*
X0123413Y0051924D01*
X0130555Y0052923D02*
X0134786Y0052923D01*
X0134123Y0051924D02*
X0131752Y0051924D01*
X0132311Y0050926D02*
X0133709Y0050926D01*
X0133568Y0049927D02*
X0132567Y0049927D01*
X0132568Y0048929D02*
X0133568Y0048929D01*
X0133568Y0047930D02*
X0132568Y0047930D01*
X0132568Y0046932D02*
X0133568Y0046932D01*
X0133568Y0045933D02*
X0132568Y0045933D01*
X0132568Y0044934D02*
X0133568Y0044934D01*
X0133568Y0043936D02*
X0132440Y0043936D01*
X0131993Y0042937D02*
X0133973Y0042937D01*
X0134425Y0041939D02*
X0131101Y0041939D01*
X0135423Y0040940D02*
X0122112Y0040940D01*
X0219518Y0046932D02*
X0220518Y0046932D01*
X0220518Y0047930D02*
X0219518Y0047930D01*
X0219518Y0048929D02*
X0220518Y0048929D01*
X0220518Y0049927D02*
X0219518Y0049927D01*
X0219518Y0050926D02*
X0220518Y0050926D01*
X0204268Y0208690D02*
X0203268Y0208690D01*
X0203268Y0209689D02*
X0204268Y0209689D01*
X0204268Y0210687D02*
X0203268Y0210687D01*
X0203268Y0211686D02*
X0204268Y0211686D01*
X0204268Y0212684D02*
X0203268Y0212684D01*
X0203268Y0215680D02*
X0204268Y0215680D01*
X0204268Y0216678D02*
X0203268Y0216678D01*
X0203268Y0217677D02*
X0204268Y0217677D01*
X0204268Y0218675D02*
X0203268Y0218675D01*
X0203268Y0219674D02*
X0204268Y0219674D01*
X0204268Y0220672D02*
X0203268Y0220672D01*
X0210874Y0222670D02*
X0231618Y0222670D01*
X0231618Y0223668D02*
X0213285Y0223668D01*
X0214382Y0224667D02*
X0231618Y0224667D01*
X0231618Y0225665D02*
X0215381Y0225665D01*
X0215990Y0226664D02*
X0231618Y0226664D01*
X0231618Y0227662D02*
X0216404Y0227662D01*
X0216817Y0228661D02*
X0231618Y0228661D01*
X0231618Y0229659D02*
X0216938Y0229659D01*
X0216938Y0230658D02*
X0231618Y0230658D01*
X0231618Y0231656D02*
X0216938Y0231656D01*
X0216728Y0232655D02*
X0231618Y0232655D01*
X0231618Y0233653D02*
X0216314Y0233653D01*
X0215901Y0234652D02*
X0231618Y0234652D01*
X0231618Y0235650D02*
X0215166Y0235650D01*
X0214167Y0236649D02*
X0231618Y0236649D01*
X0231618Y0237647D02*
X0212765Y0237647D01*
X0211386Y0261611D02*
X0208548Y0261611D01*
X0209547Y0262610D02*
X0209969Y0262610D01*
X0228768Y0287250D02*
X0235018Y0281000D01*
X0228768Y0287250D02*
X0181268Y0287250D01*
X0158768Y0309750D01*
X0161626Y0312536D02*
X0235868Y0312536D01*
X0235868Y0313534D02*
X0160060Y0313534D01*
X0157475Y0313534D02*
X0006668Y0313534D01*
X0006668Y0312536D02*
X0155910Y0312536D01*
X0155189Y0311537D02*
X0006668Y0311537D01*
X0006668Y0310539D02*
X0154777Y0310539D01*
X0154777Y0309540D02*
X0006668Y0309540D01*
X0006668Y0308541D02*
X0154949Y0308541D01*
X0155363Y0307543D02*
X0006668Y0307543D01*
X0006668Y0302550D02*
X0016304Y0302550D01*
X0017376Y0302994D02*
X0014806Y0301930D01*
X0012838Y0299962D01*
X0011773Y0297391D01*
X0011773Y0294609D01*
X0012838Y0292038D01*
X0014806Y0290070D01*
X0017376Y0289006D01*
X0020159Y0289006D01*
X0022730Y0290070D01*
X0024697Y0292038D01*
X0025762Y0294609D01*
X0025762Y0297391D01*
X0024697Y0299962D01*
X0022730Y0301930D01*
X0020159Y0302994D01*
X0017376Y0302994D01*
X0014428Y0301552D02*
X0006668Y0301552D01*
X0006668Y0300553D02*
X0013429Y0300553D01*
X0012669Y0299555D02*
X0006668Y0299555D01*
X0006668Y0298556D02*
X0012256Y0298556D01*
X0011842Y0297558D02*
X0006668Y0297558D01*
X0006668Y0296559D02*
X0011773Y0296559D01*
X0011773Y0295561D02*
X0006668Y0295561D01*
X0006668Y0294562D02*
X0011792Y0294562D01*
X0012206Y0293564D02*
X0006668Y0293564D01*
X0006668Y0292565D02*
X0012620Y0292565D01*
X0013309Y0291567D02*
X0006668Y0291567D01*
X0006668Y0290568D02*
X0014308Y0290568D01*
X0016014Y0289570D02*
X0006668Y0289570D01*
X0021521Y0289570D02*
X0056014Y0289570D01*
X0054806Y0290070D02*
X0057376Y0289006D01*
X0060159Y0289006D01*
X0062730Y0290070D01*
X0064697Y0292038D01*
X0065762Y0294609D01*
X0065762Y0297391D01*
X0064697Y0299962D01*
X0062730Y0301930D01*
X0060159Y0302994D01*
X0057376Y0302994D01*
X0054806Y0301930D01*
X0052838Y0299962D01*
X0051773Y0297391D01*
X0051773Y0294609D01*
X0052838Y0292038D01*
X0054806Y0290070D01*
X0054308Y0290568D02*
X0023228Y0290568D01*
X0024226Y0291567D02*
X0053309Y0291567D01*
X0052620Y0292565D02*
X0024916Y0292565D01*
X0025329Y0293564D02*
X0052206Y0293564D01*
X0051792Y0294562D02*
X0025743Y0294562D01*
X0025762Y0295561D02*
X0051773Y0295561D01*
X0051773Y0296559D02*
X0025762Y0296559D01*
X0025693Y0297558D02*
X0051842Y0297558D01*
X0052256Y0298556D02*
X0025280Y0298556D01*
X0024866Y0299555D02*
X0052669Y0299555D01*
X0053429Y0300553D02*
X0024106Y0300553D01*
X0023107Y0301552D02*
X0054428Y0301552D01*
X0056304Y0302550D02*
X0021231Y0302550D01*
X0006668Y0314533D02*
X0235868Y0314533D01*
X0235868Y0315531D02*
X0006668Y0315531D01*
X0006668Y0316530D02*
X0235868Y0316530D01*
X0235868Y0317528D02*
X0006668Y0317528D01*
X0061231Y0302550D02*
X0098804Y0302550D01*
X0096928Y0301552D02*
X0063107Y0301552D01*
X0064106Y0300553D02*
X0095929Y0300553D01*
X0095169Y0299555D02*
X0064866Y0299555D01*
X0065280Y0298556D02*
X0094756Y0298556D01*
X0094342Y0297558D02*
X0065693Y0297558D01*
X0065762Y0296559D02*
X0094273Y0296559D01*
X0094273Y0295561D02*
X0065762Y0295561D01*
X0065743Y0294562D02*
X0094292Y0294562D01*
X0094706Y0293564D02*
X0065329Y0293564D01*
X0064916Y0292565D02*
X0095120Y0292565D01*
X0095809Y0291567D02*
X0064226Y0291567D01*
X0063228Y0290568D02*
X0096808Y0290568D01*
X0098514Y0289570D02*
X0061521Y0289570D01*
X0162347Y0311537D02*
X0235868Y0311537D01*
X0235868Y0310539D02*
X0162788Y0310539D01*
X0170776Y0302550D02*
X0181304Y0302550D01*
X0179428Y0301552D02*
X0171774Y0301552D01*
X0172773Y0300553D02*
X0178429Y0300553D01*
X0177669Y0299555D02*
X0173771Y0299555D01*
X0174770Y0298556D02*
X0177256Y0298556D01*
X0176842Y0297558D02*
X0175768Y0297558D01*
X0176767Y0296559D02*
X0176773Y0296559D01*
X0186231Y0302550D02*
X0221304Y0302550D01*
X0219428Y0301552D02*
X0188107Y0301552D01*
X0189106Y0300553D02*
X0218429Y0300553D01*
X0217669Y0299555D02*
X0189866Y0299555D01*
X0190280Y0298556D02*
X0217256Y0298556D01*
X0216842Y0297558D02*
X0190693Y0297558D01*
X0190762Y0296559D02*
X0216773Y0296559D01*
X0216773Y0295561D02*
X0190762Y0295561D01*
X0190743Y0294562D02*
X0216792Y0294562D01*
X0217206Y0293564D02*
X0190329Y0293564D01*
X0189916Y0292565D02*
X0217620Y0292565D01*
X0218309Y0291567D02*
X0189226Y0291567D01*
D17*
X0172518Y0309750D03*
X0158768Y0309750D03*
X0162518Y0288500D03*
X0167518Y0288500D03*
X0157518Y0276000D03*
X0152518Y0288500D03*
X0145018Y0281000D03*
X0123768Y0252250D03*
X0120018Y0257250D03*
X0130018Y0238500D03*
X0130018Y0233500D03*
X0116268Y0223500D03*
X0112518Y0218500D03*
X0108768Y0209750D03*
X0116268Y0204750D03*
X0131268Y0198500D03*
X0145018Y0213500D03*
X0161268Y0229750D03*
X0167518Y0236000D03*
X0162518Y0247250D03*
X0157518Y0247250D03*
X0152518Y0241000D03*
X0170018Y0207250D03*
X0167518Y0198500D03*
X0180018Y0153500D03*
X0170018Y0141000D03*
X0175018Y0132250D03*
X0161268Y0126000D03*
X0171268Y0107250D03*
X0165018Y0082250D03*
X0183768Y0079750D03*
X0198768Y0079750D03*
X0226268Y0107250D03*
X0222518Y0128500D03*
X0211268Y0139750D03*
X0210018Y0149750D03*
X0212518Y0159750D03*
X0213768Y0178500D03*
X0190018Y0246000D03*
X0095018Y0153500D03*
X0073768Y0154750D03*
X0068768Y0136000D03*
X0092518Y0126000D03*
X0091268Y0104750D03*
X0066268Y0104750D03*
X0058768Y0091000D03*
X0038768Y0081000D03*
X0020018Y0091000D03*
X0038768Y0106000D03*
X0028768Y0116000D03*
X0018768Y0116000D03*
X0015018Y0136000D03*
X0020018Y0161000D03*
X0035018Y0151000D03*
X0077518Y0194750D03*
X0093768Y0198500D03*
X0093768Y0203500D03*
X0092518Y0213500D03*
X0093768Y0228500D03*
X0092518Y0244750D03*
X0092518Y0259750D03*
X0082518Y0268500D03*
X0072518Y0256000D03*
X0067518Y0259750D03*
X0050018Y0242250D03*
X0061268Y0219750D03*
X0075018Y0221000D03*
X0082518Y0289750D03*
X0115018Y0119750D03*
X0063768Y0047250D03*
X0053768Y0051000D03*
X0053768Y0061000D03*
X0053768Y0036000D03*
X0033768Y0026000D03*
X0023768Y0026000D03*
X0013768Y0026000D03*
X0008768Y0041000D03*
X0076268Y0012250D03*
X0078768Y0038500D03*
X0103768Y0038500D03*
D18*
X0010018Y0073500D03*
D19*
X0010018Y0076000D01*
X0007518Y0079750D01*
X0007518Y0212250D01*
X0007518Y0262250D01*
X0011268Y0266000D01*
X0028268Y0266000D01*
X0028768Y0266500D01*
X0038768Y0214750D02*
X0010018Y0214750D01*
X0007518Y0212250D01*
M02*
