G75*
%MOIN*%
%OFA0B0*%
%FSLAX25Y25*%
%IPPOS*%
%LPD*%
%AMOC8*
5,1,8,0,0,1.08239X$1,22.5*
%
%ADD10C,0.00400*%
%ADD11C,0.01000*%
%ADD12C,0.00300*%
%ADD13C,0.00600*%
%ADD14C,0.00500*%
D10*
X0112598Y0047552D02*
X0116068Y0047552D01*
X0114333Y0049287D02*
X0114333Y0045817D01*
D11*
X0111268Y0047250D02*
X0116268Y0053500D01*
X0133768Y0053500D01*
X0133768Y0041000D01*
X0116268Y0041000D01*
X0111268Y0047250D01*
X0111523Y0046932D02*
X0133768Y0046932D01*
X0133768Y0047930D02*
X0111812Y0047930D01*
X0112611Y0048929D02*
X0133768Y0048929D01*
X0133768Y0049927D02*
X0113409Y0049927D01*
X0114208Y0050926D02*
X0133768Y0050926D01*
X0133768Y0051924D02*
X0115007Y0051924D01*
X0115806Y0052923D02*
X0133768Y0052923D01*
X0133768Y0045933D02*
X0112321Y0045933D01*
X0113120Y0044934D02*
X0133768Y0044934D01*
X0133768Y0043936D02*
X0113919Y0043936D01*
X0114718Y0042937D02*
X0133768Y0042937D01*
X0133768Y0041939D02*
X0115517Y0041939D01*
D12*
X0118379Y0039602D02*
X0120314Y0039602D01*
X0120314Y0036700D01*
X0118379Y0036700D01*
X0119347Y0038151D02*
X0120314Y0038151D01*
X0121326Y0037184D02*
X0121326Y0039602D01*
X0123261Y0039602D02*
X0123261Y0037184D01*
X0122777Y0036700D01*
X0121810Y0036700D01*
X0121326Y0037184D01*
X0124272Y0036700D02*
X0126207Y0036700D01*
X0126207Y0039602D01*
X0127219Y0039119D02*
X0127219Y0038635D01*
X0127703Y0038151D01*
X0129154Y0038151D01*
X0129154Y0036700D02*
X0127703Y0036700D01*
X0127219Y0037184D01*
X0127219Y0037667D01*
X0127703Y0038151D01*
X0127219Y0039119D02*
X0127703Y0039602D01*
X0129154Y0039602D01*
X0129154Y0036700D01*
X0195113Y0181700D02*
X0196080Y0181700D01*
X0196564Y0182184D01*
X0194629Y0184119D01*
X0194629Y0182184D01*
X0195113Y0181700D01*
X0196564Y0182184D02*
X0196564Y0184119D01*
X0196080Y0184602D01*
X0195113Y0184602D01*
X0194629Y0184119D01*
X0197576Y0184119D02*
X0197576Y0182184D01*
X0198060Y0181700D01*
X0199027Y0181700D01*
X0199511Y0182184D01*
X0197576Y0184119D01*
X0198060Y0184602D01*
X0199027Y0184602D01*
X0199511Y0184119D01*
X0199511Y0182184D01*
X0200522Y0181700D02*
X0202457Y0181700D01*
X0201490Y0181700D02*
X0201490Y0184602D01*
X0202457Y0183635D01*
X0203469Y0184602D02*
X0203469Y0181700D01*
X0204436Y0182667D01*
X0205404Y0181700D01*
X0205404Y0184602D01*
X0206415Y0184119D02*
X0206899Y0184602D01*
X0207867Y0184602D01*
X0208350Y0184119D01*
X0208350Y0183635D01*
X0207867Y0183151D01*
X0206899Y0183151D01*
X0206415Y0182667D01*
X0206415Y0182184D01*
X0206899Y0181700D01*
X0207867Y0181700D01*
X0208350Y0182184D01*
X0057100Y0182184D02*
X0056617Y0181700D01*
X0055649Y0181700D01*
X0055165Y0182184D01*
X0055165Y0182667D01*
X0055649Y0183151D01*
X0056617Y0183151D01*
X0057100Y0183635D01*
X0057100Y0184119D01*
X0056617Y0184602D01*
X0055649Y0184602D01*
X0055165Y0184119D01*
X0054154Y0184602D02*
X0054154Y0181700D01*
X0053186Y0182667D01*
X0052219Y0181700D01*
X0052219Y0184602D01*
X0051207Y0183635D02*
X0050240Y0184602D01*
X0050240Y0181700D01*
X0051207Y0181700D02*
X0049272Y0181700D01*
X0048261Y0182184D02*
X0046326Y0184119D01*
X0046326Y0182184D01*
X0046810Y0181700D01*
X0047777Y0181700D01*
X0048261Y0182184D01*
X0048261Y0184119D01*
X0047777Y0184602D01*
X0046810Y0184602D01*
X0046326Y0184119D01*
X0045314Y0183635D02*
X0044347Y0184602D01*
X0044347Y0181700D01*
X0045314Y0181700D02*
X0043379Y0181700D01*
D13*
X0050068Y0188450D02*
X0052568Y0190950D01*
X0052568Y0203450D01*
X0055768Y0205750D01*
X0055768Y0223750D01*
X0052568Y0226050D01*
X0052568Y0238550D01*
X0050068Y0241050D01*
X0027468Y0241050D01*
X0024968Y0238550D01*
X0024968Y0225850D01*
X0021768Y0223750D01*
X0021768Y0205750D01*
X0024968Y0203450D01*
X0024968Y0190950D01*
X0027468Y0188450D01*
X0050068Y0188450D01*
X0186768Y0205750D02*
X0189968Y0203450D01*
X0189968Y0190950D01*
X0192468Y0188450D01*
X0215068Y0188450D01*
X0217568Y0190950D01*
X0217568Y0203450D01*
X0220768Y0205750D01*
X0220768Y0223750D01*
X0217568Y0226050D01*
X0217568Y0238550D01*
X0215068Y0241050D01*
X0192468Y0241050D01*
X0189968Y0238550D01*
X0189968Y0225850D01*
X0186768Y0223750D01*
X0186768Y0205750D01*
D14*
X0191268Y0271000D02*
X0196268Y0271000D01*
X0196268Y0273500D01*
X0201268Y0273500D01*
X0201268Y0271000D01*
X0206268Y0271000D01*
X0206268Y0273500D01*
X0211268Y0273500D01*
X0211268Y0271000D01*
X0216268Y0271000D01*
X0216268Y0273500D01*
X0221268Y0273500D01*
X0223768Y0276000D01*
X0223768Y0316000D01*
X0221268Y0318500D01*
X0186268Y0318500D01*
X0183768Y0316000D01*
X0183768Y0276000D01*
X0186268Y0273500D01*
X0191268Y0273500D01*
X0191268Y0271000D01*
X0191268Y0273500D02*
X0196268Y0273500D01*
X0201268Y0273500D02*
X0206268Y0273500D01*
X0211268Y0273500D02*
X0216268Y0273500D01*
X0213768Y0278500D02*
X0213770Y0278599D01*
X0213776Y0278699D01*
X0213786Y0278798D01*
X0213800Y0278896D01*
X0213817Y0278994D01*
X0213839Y0279091D01*
X0213864Y0279187D01*
X0213893Y0279282D01*
X0213926Y0279376D01*
X0213963Y0279468D01*
X0214003Y0279559D01*
X0214047Y0279648D01*
X0214095Y0279736D01*
X0214146Y0279821D01*
X0214200Y0279904D01*
X0214257Y0279986D01*
X0214318Y0280064D01*
X0214382Y0280141D01*
X0214448Y0280214D01*
X0214518Y0280285D01*
X0214590Y0280353D01*
X0214665Y0280419D01*
X0214743Y0280481D01*
X0214823Y0280540D01*
X0214905Y0280596D01*
X0214989Y0280648D01*
X0215076Y0280697D01*
X0215164Y0280743D01*
X0215254Y0280785D01*
X0215346Y0280824D01*
X0215439Y0280859D01*
X0215533Y0280890D01*
X0215629Y0280917D01*
X0215726Y0280940D01*
X0215823Y0280960D01*
X0215921Y0280976D01*
X0216020Y0280988D01*
X0216119Y0280996D01*
X0216218Y0281000D01*
X0216318Y0281000D01*
X0216417Y0280996D01*
X0216516Y0280988D01*
X0216615Y0280976D01*
X0216713Y0280960D01*
X0216810Y0280940D01*
X0216907Y0280917D01*
X0217003Y0280890D01*
X0217097Y0280859D01*
X0217190Y0280824D01*
X0217282Y0280785D01*
X0217372Y0280743D01*
X0217460Y0280697D01*
X0217547Y0280648D01*
X0217631Y0280596D01*
X0217713Y0280540D01*
X0217793Y0280481D01*
X0217871Y0280419D01*
X0217946Y0280353D01*
X0218018Y0280285D01*
X0218088Y0280214D01*
X0218154Y0280141D01*
X0218218Y0280064D01*
X0218279Y0279986D01*
X0218336Y0279904D01*
X0218390Y0279821D01*
X0218441Y0279736D01*
X0218489Y0279648D01*
X0218533Y0279559D01*
X0218573Y0279468D01*
X0218610Y0279376D01*
X0218643Y0279282D01*
X0218672Y0279187D01*
X0218697Y0279091D01*
X0218719Y0278994D01*
X0218736Y0278896D01*
X0218750Y0278798D01*
X0218760Y0278699D01*
X0218766Y0278599D01*
X0218768Y0278500D01*
X0218766Y0278401D01*
X0218760Y0278301D01*
X0218750Y0278202D01*
X0218736Y0278104D01*
X0218719Y0278006D01*
X0218697Y0277909D01*
X0218672Y0277813D01*
X0218643Y0277718D01*
X0218610Y0277624D01*
X0218573Y0277532D01*
X0218533Y0277441D01*
X0218489Y0277352D01*
X0218441Y0277264D01*
X0218390Y0277179D01*
X0218336Y0277096D01*
X0218279Y0277014D01*
X0218218Y0276936D01*
X0218154Y0276859D01*
X0218088Y0276786D01*
X0218018Y0276715D01*
X0217946Y0276647D01*
X0217871Y0276581D01*
X0217793Y0276519D01*
X0217713Y0276460D01*
X0217631Y0276404D01*
X0217547Y0276352D01*
X0217460Y0276303D01*
X0217372Y0276257D01*
X0217282Y0276215D01*
X0217190Y0276176D01*
X0217097Y0276141D01*
X0217003Y0276110D01*
X0216907Y0276083D01*
X0216810Y0276060D01*
X0216713Y0276040D01*
X0216615Y0276024D01*
X0216516Y0276012D01*
X0216417Y0276004D01*
X0216318Y0276000D01*
X0216218Y0276000D01*
X0216119Y0276004D01*
X0216020Y0276012D01*
X0215921Y0276024D01*
X0215823Y0276040D01*
X0215726Y0276060D01*
X0215629Y0276083D01*
X0215533Y0276110D01*
X0215439Y0276141D01*
X0215346Y0276176D01*
X0215254Y0276215D01*
X0215164Y0276257D01*
X0215076Y0276303D01*
X0214989Y0276352D01*
X0214905Y0276404D01*
X0214823Y0276460D01*
X0214743Y0276519D01*
X0214665Y0276581D01*
X0214590Y0276647D01*
X0214518Y0276715D01*
X0214448Y0276786D01*
X0214382Y0276859D01*
X0214318Y0276936D01*
X0214257Y0277014D01*
X0214200Y0277096D01*
X0214146Y0277179D01*
X0214095Y0277264D01*
X0214047Y0277352D01*
X0214003Y0277441D01*
X0213963Y0277532D01*
X0213926Y0277624D01*
X0213893Y0277718D01*
X0213864Y0277813D01*
X0213839Y0277909D01*
X0213817Y0278006D01*
X0213800Y0278104D01*
X0213786Y0278202D01*
X0213776Y0278301D01*
X0213770Y0278401D01*
X0213768Y0278500D01*
X0191268Y0296000D02*
X0191272Y0296307D01*
X0191283Y0296613D01*
X0191302Y0296920D01*
X0191328Y0297225D01*
X0191362Y0297530D01*
X0191403Y0297834D01*
X0191452Y0298137D01*
X0191508Y0298439D01*
X0191572Y0298739D01*
X0191643Y0299037D01*
X0191721Y0299334D01*
X0191806Y0299629D01*
X0191899Y0299921D01*
X0191999Y0300211D01*
X0192106Y0300499D01*
X0192220Y0300784D01*
X0192340Y0301066D01*
X0192468Y0301344D01*
X0192603Y0301620D01*
X0192744Y0301892D01*
X0192892Y0302161D01*
X0193046Y0302426D01*
X0193207Y0302687D01*
X0193375Y0302945D01*
X0193548Y0303198D01*
X0193728Y0303446D01*
X0193914Y0303690D01*
X0194105Y0303930D01*
X0194303Y0304165D01*
X0194506Y0304394D01*
X0194715Y0304619D01*
X0194929Y0304839D01*
X0195149Y0305053D01*
X0195374Y0305262D01*
X0195603Y0305465D01*
X0195838Y0305663D01*
X0196078Y0305854D01*
X0196322Y0306040D01*
X0196570Y0306220D01*
X0196823Y0306393D01*
X0197081Y0306561D01*
X0197342Y0306722D01*
X0197607Y0306876D01*
X0197876Y0307024D01*
X0198148Y0307165D01*
X0198424Y0307300D01*
X0198702Y0307428D01*
X0198984Y0307548D01*
X0199269Y0307662D01*
X0199557Y0307769D01*
X0199847Y0307869D01*
X0200139Y0307962D01*
X0200434Y0308047D01*
X0200731Y0308125D01*
X0201029Y0308196D01*
X0201329Y0308260D01*
X0201631Y0308316D01*
X0201934Y0308365D01*
X0202238Y0308406D01*
X0202543Y0308440D01*
X0202848Y0308466D01*
X0203155Y0308485D01*
X0203461Y0308496D01*
X0203768Y0308500D01*
X0204075Y0308496D01*
X0204381Y0308485D01*
X0204688Y0308466D01*
X0204993Y0308440D01*
X0205298Y0308406D01*
X0205602Y0308365D01*
X0205905Y0308316D01*
X0206207Y0308260D01*
X0206507Y0308196D01*
X0206805Y0308125D01*
X0207102Y0308047D01*
X0207397Y0307962D01*
X0207689Y0307869D01*
X0207979Y0307769D01*
X0208267Y0307662D01*
X0208552Y0307548D01*
X0208834Y0307428D01*
X0209112Y0307300D01*
X0209388Y0307165D01*
X0209660Y0307024D01*
X0209929Y0306876D01*
X0210194Y0306722D01*
X0210455Y0306561D01*
X0210713Y0306393D01*
X0210966Y0306220D01*
X0211214Y0306040D01*
X0211458Y0305854D01*
X0211698Y0305663D01*
X0211933Y0305465D01*
X0212162Y0305262D01*
X0212387Y0305053D01*
X0212607Y0304839D01*
X0212821Y0304619D01*
X0213030Y0304394D01*
X0213233Y0304165D01*
X0213431Y0303930D01*
X0213622Y0303690D01*
X0213808Y0303446D01*
X0213988Y0303198D01*
X0214161Y0302945D01*
X0214329Y0302687D01*
X0214490Y0302426D01*
X0214644Y0302161D01*
X0214792Y0301892D01*
X0214933Y0301620D01*
X0215068Y0301344D01*
X0215196Y0301066D01*
X0215316Y0300784D01*
X0215430Y0300499D01*
X0215537Y0300211D01*
X0215637Y0299921D01*
X0215730Y0299629D01*
X0215815Y0299334D01*
X0215893Y0299037D01*
X0215964Y0298739D01*
X0216028Y0298439D01*
X0216084Y0298137D01*
X0216133Y0297834D01*
X0216174Y0297530D01*
X0216208Y0297225D01*
X0216234Y0296920D01*
X0216253Y0296613D01*
X0216264Y0296307D01*
X0216268Y0296000D01*
X0216264Y0295693D01*
X0216253Y0295387D01*
X0216234Y0295080D01*
X0216208Y0294775D01*
X0216174Y0294470D01*
X0216133Y0294166D01*
X0216084Y0293863D01*
X0216028Y0293561D01*
X0215964Y0293261D01*
X0215893Y0292963D01*
X0215815Y0292666D01*
X0215730Y0292371D01*
X0215637Y0292079D01*
X0215537Y0291789D01*
X0215430Y0291501D01*
X0215316Y0291216D01*
X0215196Y0290934D01*
X0215068Y0290656D01*
X0214933Y0290380D01*
X0214792Y0290108D01*
X0214644Y0289839D01*
X0214490Y0289574D01*
X0214329Y0289313D01*
X0214161Y0289055D01*
X0213988Y0288802D01*
X0213808Y0288554D01*
X0213622Y0288310D01*
X0213431Y0288070D01*
X0213233Y0287835D01*
X0213030Y0287606D01*
X0212821Y0287381D01*
X0212607Y0287161D01*
X0212387Y0286947D01*
X0212162Y0286738D01*
X0211933Y0286535D01*
X0211698Y0286337D01*
X0211458Y0286146D01*
X0211214Y0285960D01*
X0210966Y0285780D01*
X0210713Y0285607D01*
X0210455Y0285439D01*
X0210194Y0285278D01*
X0209929Y0285124D01*
X0209660Y0284976D01*
X0209388Y0284835D01*
X0209112Y0284700D01*
X0208834Y0284572D01*
X0208552Y0284452D01*
X0208267Y0284338D01*
X0207979Y0284231D01*
X0207689Y0284131D01*
X0207397Y0284038D01*
X0207102Y0283953D01*
X0206805Y0283875D01*
X0206507Y0283804D01*
X0206207Y0283740D01*
X0205905Y0283684D01*
X0205602Y0283635D01*
X0205298Y0283594D01*
X0204993Y0283560D01*
X0204688Y0283534D01*
X0204381Y0283515D01*
X0204075Y0283504D01*
X0203768Y0283500D01*
X0203461Y0283504D01*
X0203155Y0283515D01*
X0202848Y0283534D01*
X0202543Y0283560D01*
X0202238Y0283594D01*
X0201934Y0283635D01*
X0201631Y0283684D01*
X0201329Y0283740D01*
X0201029Y0283804D01*
X0200731Y0283875D01*
X0200434Y0283953D01*
X0200139Y0284038D01*
X0199847Y0284131D01*
X0199557Y0284231D01*
X0199269Y0284338D01*
X0198984Y0284452D01*
X0198702Y0284572D01*
X0198424Y0284700D01*
X0198148Y0284835D01*
X0197876Y0284976D01*
X0197607Y0285124D01*
X0197342Y0285278D01*
X0197081Y0285439D01*
X0196823Y0285607D01*
X0196570Y0285780D01*
X0196322Y0285960D01*
X0196078Y0286146D01*
X0195838Y0286337D01*
X0195603Y0286535D01*
X0195374Y0286738D01*
X0195149Y0286947D01*
X0194929Y0287161D01*
X0194715Y0287381D01*
X0194506Y0287606D01*
X0194303Y0287835D01*
X0194105Y0288070D01*
X0193914Y0288310D01*
X0193728Y0288554D01*
X0193548Y0288802D01*
X0193375Y0289055D01*
X0193207Y0289313D01*
X0193046Y0289574D01*
X0192892Y0289839D01*
X0192744Y0290108D01*
X0192603Y0290380D01*
X0192468Y0290656D01*
X0192340Y0290934D01*
X0192220Y0291216D01*
X0192106Y0291501D01*
X0191999Y0291789D01*
X0191899Y0292079D01*
X0191806Y0292371D01*
X0191721Y0292666D01*
X0191643Y0292963D01*
X0191572Y0293261D01*
X0191508Y0293561D01*
X0191452Y0293863D01*
X0191403Y0294166D01*
X0191362Y0294470D01*
X0191328Y0294775D01*
X0191302Y0295080D01*
X0191283Y0295387D01*
X0191272Y0295693D01*
X0191268Y0296000D01*
X0196268Y0288500D02*
X0211268Y0303500D01*
X0213768Y0313500D02*
X0213770Y0313599D01*
X0213776Y0313699D01*
X0213786Y0313798D01*
X0213800Y0313896D01*
X0213817Y0313994D01*
X0213839Y0314091D01*
X0213864Y0314187D01*
X0213893Y0314282D01*
X0213926Y0314376D01*
X0213963Y0314468D01*
X0214003Y0314559D01*
X0214047Y0314648D01*
X0214095Y0314736D01*
X0214146Y0314821D01*
X0214200Y0314904D01*
X0214257Y0314986D01*
X0214318Y0315064D01*
X0214382Y0315141D01*
X0214448Y0315214D01*
X0214518Y0315285D01*
X0214590Y0315353D01*
X0214665Y0315419D01*
X0214743Y0315481D01*
X0214823Y0315540D01*
X0214905Y0315596D01*
X0214989Y0315648D01*
X0215076Y0315697D01*
X0215164Y0315743D01*
X0215254Y0315785D01*
X0215346Y0315824D01*
X0215439Y0315859D01*
X0215533Y0315890D01*
X0215629Y0315917D01*
X0215726Y0315940D01*
X0215823Y0315960D01*
X0215921Y0315976D01*
X0216020Y0315988D01*
X0216119Y0315996D01*
X0216218Y0316000D01*
X0216318Y0316000D01*
X0216417Y0315996D01*
X0216516Y0315988D01*
X0216615Y0315976D01*
X0216713Y0315960D01*
X0216810Y0315940D01*
X0216907Y0315917D01*
X0217003Y0315890D01*
X0217097Y0315859D01*
X0217190Y0315824D01*
X0217282Y0315785D01*
X0217372Y0315743D01*
X0217460Y0315697D01*
X0217547Y0315648D01*
X0217631Y0315596D01*
X0217713Y0315540D01*
X0217793Y0315481D01*
X0217871Y0315419D01*
X0217946Y0315353D01*
X0218018Y0315285D01*
X0218088Y0315214D01*
X0218154Y0315141D01*
X0218218Y0315064D01*
X0218279Y0314986D01*
X0218336Y0314904D01*
X0218390Y0314821D01*
X0218441Y0314736D01*
X0218489Y0314648D01*
X0218533Y0314559D01*
X0218573Y0314468D01*
X0218610Y0314376D01*
X0218643Y0314282D01*
X0218672Y0314187D01*
X0218697Y0314091D01*
X0218719Y0313994D01*
X0218736Y0313896D01*
X0218750Y0313798D01*
X0218760Y0313699D01*
X0218766Y0313599D01*
X0218768Y0313500D01*
X0218766Y0313401D01*
X0218760Y0313301D01*
X0218750Y0313202D01*
X0218736Y0313104D01*
X0218719Y0313006D01*
X0218697Y0312909D01*
X0218672Y0312813D01*
X0218643Y0312718D01*
X0218610Y0312624D01*
X0218573Y0312532D01*
X0218533Y0312441D01*
X0218489Y0312352D01*
X0218441Y0312264D01*
X0218390Y0312179D01*
X0218336Y0312096D01*
X0218279Y0312014D01*
X0218218Y0311936D01*
X0218154Y0311859D01*
X0218088Y0311786D01*
X0218018Y0311715D01*
X0217946Y0311647D01*
X0217871Y0311581D01*
X0217793Y0311519D01*
X0217713Y0311460D01*
X0217631Y0311404D01*
X0217547Y0311352D01*
X0217460Y0311303D01*
X0217372Y0311257D01*
X0217282Y0311215D01*
X0217190Y0311176D01*
X0217097Y0311141D01*
X0217003Y0311110D01*
X0216907Y0311083D01*
X0216810Y0311060D01*
X0216713Y0311040D01*
X0216615Y0311024D01*
X0216516Y0311012D01*
X0216417Y0311004D01*
X0216318Y0311000D01*
X0216218Y0311000D01*
X0216119Y0311004D01*
X0216020Y0311012D01*
X0215921Y0311024D01*
X0215823Y0311040D01*
X0215726Y0311060D01*
X0215629Y0311083D01*
X0215533Y0311110D01*
X0215439Y0311141D01*
X0215346Y0311176D01*
X0215254Y0311215D01*
X0215164Y0311257D01*
X0215076Y0311303D01*
X0214989Y0311352D01*
X0214905Y0311404D01*
X0214823Y0311460D01*
X0214743Y0311519D01*
X0214665Y0311581D01*
X0214590Y0311647D01*
X0214518Y0311715D01*
X0214448Y0311786D01*
X0214382Y0311859D01*
X0214318Y0311936D01*
X0214257Y0312014D01*
X0214200Y0312096D01*
X0214146Y0312179D01*
X0214095Y0312264D01*
X0214047Y0312352D01*
X0214003Y0312441D01*
X0213963Y0312532D01*
X0213926Y0312624D01*
X0213893Y0312718D01*
X0213864Y0312813D01*
X0213839Y0312909D01*
X0213817Y0313006D01*
X0213800Y0313104D01*
X0213786Y0313202D01*
X0213776Y0313301D01*
X0213770Y0313401D01*
X0213768Y0313500D01*
X0188768Y0313500D02*
X0188770Y0313599D01*
X0188776Y0313699D01*
X0188786Y0313798D01*
X0188800Y0313896D01*
X0188817Y0313994D01*
X0188839Y0314091D01*
X0188864Y0314187D01*
X0188893Y0314282D01*
X0188926Y0314376D01*
X0188963Y0314468D01*
X0189003Y0314559D01*
X0189047Y0314648D01*
X0189095Y0314736D01*
X0189146Y0314821D01*
X0189200Y0314904D01*
X0189257Y0314986D01*
X0189318Y0315064D01*
X0189382Y0315141D01*
X0189448Y0315214D01*
X0189518Y0315285D01*
X0189590Y0315353D01*
X0189665Y0315419D01*
X0189743Y0315481D01*
X0189823Y0315540D01*
X0189905Y0315596D01*
X0189989Y0315648D01*
X0190076Y0315697D01*
X0190164Y0315743D01*
X0190254Y0315785D01*
X0190346Y0315824D01*
X0190439Y0315859D01*
X0190533Y0315890D01*
X0190629Y0315917D01*
X0190726Y0315940D01*
X0190823Y0315960D01*
X0190921Y0315976D01*
X0191020Y0315988D01*
X0191119Y0315996D01*
X0191218Y0316000D01*
X0191318Y0316000D01*
X0191417Y0315996D01*
X0191516Y0315988D01*
X0191615Y0315976D01*
X0191713Y0315960D01*
X0191810Y0315940D01*
X0191907Y0315917D01*
X0192003Y0315890D01*
X0192097Y0315859D01*
X0192190Y0315824D01*
X0192282Y0315785D01*
X0192372Y0315743D01*
X0192460Y0315697D01*
X0192547Y0315648D01*
X0192631Y0315596D01*
X0192713Y0315540D01*
X0192793Y0315481D01*
X0192871Y0315419D01*
X0192946Y0315353D01*
X0193018Y0315285D01*
X0193088Y0315214D01*
X0193154Y0315141D01*
X0193218Y0315064D01*
X0193279Y0314986D01*
X0193336Y0314904D01*
X0193390Y0314821D01*
X0193441Y0314736D01*
X0193489Y0314648D01*
X0193533Y0314559D01*
X0193573Y0314468D01*
X0193610Y0314376D01*
X0193643Y0314282D01*
X0193672Y0314187D01*
X0193697Y0314091D01*
X0193719Y0313994D01*
X0193736Y0313896D01*
X0193750Y0313798D01*
X0193760Y0313699D01*
X0193766Y0313599D01*
X0193768Y0313500D01*
X0193766Y0313401D01*
X0193760Y0313301D01*
X0193750Y0313202D01*
X0193736Y0313104D01*
X0193719Y0313006D01*
X0193697Y0312909D01*
X0193672Y0312813D01*
X0193643Y0312718D01*
X0193610Y0312624D01*
X0193573Y0312532D01*
X0193533Y0312441D01*
X0193489Y0312352D01*
X0193441Y0312264D01*
X0193390Y0312179D01*
X0193336Y0312096D01*
X0193279Y0312014D01*
X0193218Y0311936D01*
X0193154Y0311859D01*
X0193088Y0311786D01*
X0193018Y0311715D01*
X0192946Y0311647D01*
X0192871Y0311581D01*
X0192793Y0311519D01*
X0192713Y0311460D01*
X0192631Y0311404D01*
X0192547Y0311352D01*
X0192460Y0311303D01*
X0192372Y0311257D01*
X0192282Y0311215D01*
X0192190Y0311176D01*
X0192097Y0311141D01*
X0192003Y0311110D01*
X0191907Y0311083D01*
X0191810Y0311060D01*
X0191713Y0311040D01*
X0191615Y0311024D01*
X0191516Y0311012D01*
X0191417Y0311004D01*
X0191318Y0311000D01*
X0191218Y0311000D01*
X0191119Y0311004D01*
X0191020Y0311012D01*
X0190921Y0311024D01*
X0190823Y0311040D01*
X0190726Y0311060D01*
X0190629Y0311083D01*
X0190533Y0311110D01*
X0190439Y0311141D01*
X0190346Y0311176D01*
X0190254Y0311215D01*
X0190164Y0311257D01*
X0190076Y0311303D01*
X0189989Y0311352D01*
X0189905Y0311404D01*
X0189823Y0311460D01*
X0189743Y0311519D01*
X0189665Y0311581D01*
X0189590Y0311647D01*
X0189518Y0311715D01*
X0189448Y0311786D01*
X0189382Y0311859D01*
X0189318Y0311936D01*
X0189257Y0312014D01*
X0189200Y0312096D01*
X0189146Y0312179D01*
X0189095Y0312264D01*
X0189047Y0312352D01*
X0189003Y0312441D01*
X0188963Y0312532D01*
X0188926Y0312624D01*
X0188893Y0312718D01*
X0188864Y0312813D01*
X0188839Y0312909D01*
X0188817Y0313006D01*
X0188800Y0313104D01*
X0188786Y0313202D01*
X0188776Y0313301D01*
X0188770Y0313401D01*
X0188768Y0313500D01*
X0188768Y0278500D02*
X0188770Y0278599D01*
X0188776Y0278699D01*
X0188786Y0278798D01*
X0188800Y0278896D01*
X0188817Y0278994D01*
X0188839Y0279091D01*
X0188864Y0279187D01*
X0188893Y0279282D01*
X0188926Y0279376D01*
X0188963Y0279468D01*
X0189003Y0279559D01*
X0189047Y0279648D01*
X0189095Y0279736D01*
X0189146Y0279821D01*
X0189200Y0279904D01*
X0189257Y0279986D01*
X0189318Y0280064D01*
X0189382Y0280141D01*
X0189448Y0280214D01*
X0189518Y0280285D01*
X0189590Y0280353D01*
X0189665Y0280419D01*
X0189743Y0280481D01*
X0189823Y0280540D01*
X0189905Y0280596D01*
X0189989Y0280648D01*
X0190076Y0280697D01*
X0190164Y0280743D01*
X0190254Y0280785D01*
X0190346Y0280824D01*
X0190439Y0280859D01*
X0190533Y0280890D01*
X0190629Y0280917D01*
X0190726Y0280940D01*
X0190823Y0280960D01*
X0190921Y0280976D01*
X0191020Y0280988D01*
X0191119Y0280996D01*
X0191218Y0281000D01*
X0191318Y0281000D01*
X0191417Y0280996D01*
X0191516Y0280988D01*
X0191615Y0280976D01*
X0191713Y0280960D01*
X0191810Y0280940D01*
X0191907Y0280917D01*
X0192003Y0280890D01*
X0192097Y0280859D01*
X0192190Y0280824D01*
X0192282Y0280785D01*
X0192372Y0280743D01*
X0192460Y0280697D01*
X0192547Y0280648D01*
X0192631Y0280596D01*
X0192713Y0280540D01*
X0192793Y0280481D01*
X0192871Y0280419D01*
X0192946Y0280353D01*
X0193018Y0280285D01*
X0193088Y0280214D01*
X0193154Y0280141D01*
X0193218Y0280064D01*
X0193279Y0279986D01*
X0193336Y0279904D01*
X0193390Y0279821D01*
X0193441Y0279736D01*
X0193489Y0279648D01*
X0193533Y0279559D01*
X0193573Y0279468D01*
X0193610Y0279376D01*
X0193643Y0279282D01*
X0193672Y0279187D01*
X0193697Y0279091D01*
X0193719Y0278994D01*
X0193736Y0278896D01*
X0193750Y0278798D01*
X0193760Y0278699D01*
X0193766Y0278599D01*
X0193768Y0278500D01*
X0193766Y0278401D01*
X0193760Y0278301D01*
X0193750Y0278202D01*
X0193736Y0278104D01*
X0193719Y0278006D01*
X0193697Y0277909D01*
X0193672Y0277813D01*
X0193643Y0277718D01*
X0193610Y0277624D01*
X0193573Y0277532D01*
X0193533Y0277441D01*
X0193489Y0277352D01*
X0193441Y0277264D01*
X0193390Y0277179D01*
X0193336Y0277096D01*
X0193279Y0277014D01*
X0193218Y0276936D01*
X0193154Y0276859D01*
X0193088Y0276786D01*
X0193018Y0276715D01*
X0192946Y0276647D01*
X0192871Y0276581D01*
X0192793Y0276519D01*
X0192713Y0276460D01*
X0192631Y0276404D01*
X0192547Y0276352D01*
X0192460Y0276303D01*
X0192372Y0276257D01*
X0192282Y0276215D01*
X0192190Y0276176D01*
X0192097Y0276141D01*
X0192003Y0276110D01*
X0191907Y0276083D01*
X0191810Y0276060D01*
X0191713Y0276040D01*
X0191615Y0276024D01*
X0191516Y0276012D01*
X0191417Y0276004D01*
X0191318Y0276000D01*
X0191218Y0276000D01*
X0191119Y0276004D01*
X0191020Y0276012D01*
X0190921Y0276024D01*
X0190823Y0276040D01*
X0190726Y0276060D01*
X0190629Y0276083D01*
X0190533Y0276110D01*
X0190439Y0276141D01*
X0190346Y0276176D01*
X0190254Y0276215D01*
X0190164Y0276257D01*
X0190076Y0276303D01*
X0189989Y0276352D01*
X0189905Y0276404D01*
X0189823Y0276460D01*
X0189743Y0276519D01*
X0189665Y0276581D01*
X0189590Y0276647D01*
X0189518Y0276715D01*
X0189448Y0276786D01*
X0189382Y0276859D01*
X0189318Y0276936D01*
X0189257Y0277014D01*
X0189200Y0277096D01*
X0189146Y0277179D01*
X0189095Y0277264D01*
X0189047Y0277352D01*
X0189003Y0277441D01*
X0188963Y0277532D01*
X0188926Y0277624D01*
X0188893Y0277718D01*
X0188864Y0277813D01*
X0188839Y0277909D01*
X0188817Y0278006D01*
X0188800Y0278104D01*
X0188786Y0278202D01*
X0188776Y0278301D01*
X0188770Y0278401D01*
X0188768Y0278500D01*
X0141268Y0276000D02*
X0138768Y0273500D01*
X0133768Y0273500D01*
X0133768Y0271000D01*
X0128768Y0271000D01*
X0128768Y0273500D01*
X0133768Y0273500D01*
X0131268Y0278500D02*
X0131270Y0278599D01*
X0131276Y0278699D01*
X0131286Y0278798D01*
X0131300Y0278896D01*
X0131317Y0278994D01*
X0131339Y0279091D01*
X0131364Y0279187D01*
X0131393Y0279282D01*
X0131426Y0279376D01*
X0131463Y0279468D01*
X0131503Y0279559D01*
X0131547Y0279648D01*
X0131595Y0279736D01*
X0131646Y0279821D01*
X0131700Y0279904D01*
X0131757Y0279986D01*
X0131818Y0280064D01*
X0131882Y0280141D01*
X0131948Y0280214D01*
X0132018Y0280285D01*
X0132090Y0280353D01*
X0132165Y0280419D01*
X0132243Y0280481D01*
X0132323Y0280540D01*
X0132405Y0280596D01*
X0132489Y0280648D01*
X0132576Y0280697D01*
X0132664Y0280743D01*
X0132754Y0280785D01*
X0132846Y0280824D01*
X0132939Y0280859D01*
X0133033Y0280890D01*
X0133129Y0280917D01*
X0133226Y0280940D01*
X0133323Y0280960D01*
X0133421Y0280976D01*
X0133520Y0280988D01*
X0133619Y0280996D01*
X0133718Y0281000D01*
X0133818Y0281000D01*
X0133917Y0280996D01*
X0134016Y0280988D01*
X0134115Y0280976D01*
X0134213Y0280960D01*
X0134310Y0280940D01*
X0134407Y0280917D01*
X0134503Y0280890D01*
X0134597Y0280859D01*
X0134690Y0280824D01*
X0134782Y0280785D01*
X0134872Y0280743D01*
X0134960Y0280697D01*
X0135047Y0280648D01*
X0135131Y0280596D01*
X0135213Y0280540D01*
X0135293Y0280481D01*
X0135371Y0280419D01*
X0135446Y0280353D01*
X0135518Y0280285D01*
X0135588Y0280214D01*
X0135654Y0280141D01*
X0135718Y0280064D01*
X0135779Y0279986D01*
X0135836Y0279904D01*
X0135890Y0279821D01*
X0135941Y0279736D01*
X0135989Y0279648D01*
X0136033Y0279559D01*
X0136073Y0279468D01*
X0136110Y0279376D01*
X0136143Y0279282D01*
X0136172Y0279187D01*
X0136197Y0279091D01*
X0136219Y0278994D01*
X0136236Y0278896D01*
X0136250Y0278798D01*
X0136260Y0278699D01*
X0136266Y0278599D01*
X0136268Y0278500D01*
X0136266Y0278401D01*
X0136260Y0278301D01*
X0136250Y0278202D01*
X0136236Y0278104D01*
X0136219Y0278006D01*
X0136197Y0277909D01*
X0136172Y0277813D01*
X0136143Y0277718D01*
X0136110Y0277624D01*
X0136073Y0277532D01*
X0136033Y0277441D01*
X0135989Y0277352D01*
X0135941Y0277264D01*
X0135890Y0277179D01*
X0135836Y0277096D01*
X0135779Y0277014D01*
X0135718Y0276936D01*
X0135654Y0276859D01*
X0135588Y0276786D01*
X0135518Y0276715D01*
X0135446Y0276647D01*
X0135371Y0276581D01*
X0135293Y0276519D01*
X0135213Y0276460D01*
X0135131Y0276404D01*
X0135047Y0276352D01*
X0134960Y0276303D01*
X0134872Y0276257D01*
X0134782Y0276215D01*
X0134690Y0276176D01*
X0134597Y0276141D01*
X0134503Y0276110D01*
X0134407Y0276083D01*
X0134310Y0276060D01*
X0134213Y0276040D01*
X0134115Y0276024D01*
X0134016Y0276012D01*
X0133917Y0276004D01*
X0133818Y0276000D01*
X0133718Y0276000D01*
X0133619Y0276004D01*
X0133520Y0276012D01*
X0133421Y0276024D01*
X0133323Y0276040D01*
X0133226Y0276060D01*
X0133129Y0276083D01*
X0133033Y0276110D01*
X0132939Y0276141D01*
X0132846Y0276176D01*
X0132754Y0276215D01*
X0132664Y0276257D01*
X0132576Y0276303D01*
X0132489Y0276352D01*
X0132405Y0276404D01*
X0132323Y0276460D01*
X0132243Y0276519D01*
X0132165Y0276581D01*
X0132090Y0276647D01*
X0132018Y0276715D01*
X0131948Y0276786D01*
X0131882Y0276859D01*
X0131818Y0276936D01*
X0131757Y0277014D01*
X0131700Y0277096D01*
X0131646Y0277179D01*
X0131595Y0277264D01*
X0131547Y0277352D01*
X0131503Y0277441D01*
X0131463Y0277532D01*
X0131426Y0277624D01*
X0131393Y0277718D01*
X0131364Y0277813D01*
X0131339Y0277909D01*
X0131317Y0278006D01*
X0131300Y0278104D01*
X0131286Y0278202D01*
X0131276Y0278301D01*
X0131270Y0278401D01*
X0131268Y0278500D01*
X0128768Y0273500D02*
X0123768Y0273500D01*
X0123768Y0271000D01*
X0118768Y0271000D01*
X0118768Y0273500D01*
X0123768Y0273500D01*
X0118768Y0273500D02*
X0113768Y0273500D01*
X0113768Y0271000D01*
X0108768Y0271000D01*
X0108768Y0273500D01*
X0113768Y0273500D01*
X0108768Y0273500D02*
X0103768Y0273500D01*
X0101268Y0276000D01*
X0101268Y0316000D01*
X0103768Y0318500D01*
X0138768Y0318500D01*
X0141268Y0316000D01*
X0141268Y0276000D01*
X0108768Y0296000D02*
X0108772Y0296307D01*
X0108783Y0296613D01*
X0108802Y0296920D01*
X0108828Y0297225D01*
X0108862Y0297530D01*
X0108903Y0297834D01*
X0108952Y0298137D01*
X0109008Y0298439D01*
X0109072Y0298739D01*
X0109143Y0299037D01*
X0109221Y0299334D01*
X0109306Y0299629D01*
X0109399Y0299921D01*
X0109499Y0300211D01*
X0109606Y0300499D01*
X0109720Y0300784D01*
X0109840Y0301066D01*
X0109968Y0301344D01*
X0110103Y0301620D01*
X0110244Y0301892D01*
X0110392Y0302161D01*
X0110546Y0302426D01*
X0110707Y0302687D01*
X0110875Y0302945D01*
X0111048Y0303198D01*
X0111228Y0303446D01*
X0111414Y0303690D01*
X0111605Y0303930D01*
X0111803Y0304165D01*
X0112006Y0304394D01*
X0112215Y0304619D01*
X0112429Y0304839D01*
X0112649Y0305053D01*
X0112874Y0305262D01*
X0113103Y0305465D01*
X0113338Y0305663D01*
X0113578Y0305854D01*
X0113822Y0306040D01*
X0114070Y0306220D01*
X0114323Y0306393D01*
X0114581Y0306561D01*
X0114842Y0306722D01*
X0115107Y0306876D01*
X0115376Y0307024D01*
X0115648Y0307165D01*
X0115924Y0307300D01*
X0116202Y0307428D01*
X0116484Y0307548D01*
X0116769Y0307662D01*
X0117057Y0307769D01*
X0117347Y0307869D01*
X0117639Y0307962D01*
X0117934Y0308047D01*
X0118231Y0308125D01*
X0118529Y0308196D01*
X0118829Y0308260D01*
X0119131Y0308316D01*
X0119434Y0308365D01*
X0119738Y0308406D01*
X0120043Y0308440D01*
X0120348Y0308466D01*
X0120655Y0308485D01*
X0120961Y0308496D01*
X0121268Y0308500D01*
X0121575Y0308496D01*
X0121881Y0308485D01*
X0122188Y0308466D01*
X0122493Y0308440D01*
X0122798Y0308406D01*
X0123102Y0308365D01*
X0123405Y0308316D01*
X0123707Y0308260D01*
X0124007Y0308196D01*
X0124305Y0308125D01*
X0124602Y0308047D01*
X0124897Y0307962D01*
X0125189Y0307869D01*
X0125479Y0307769D01*
X0125767Y0307662D01*
X0126052Y0307548D01*
X0126334Y0307428D01*
X0126612Y0307300D01*
X0126888Y0307165D01*
X0127160Y0307024D01*
X0127429Y0306876D01*
X0127694Y0306722D01*
X0127955Y0306561D01*
X0128213Y0306393D01*
X0128466Y0306220D01*
X0128714Y0306040D01*
X0128958Y0305854D01*
X0129198Y0305663D01*
X0129433Y0305465D01*
X0129662Y0305262D01*
X0129887Y0305053D01*
X0130107Y0304839D01*
X0130321Y0304619D01*
X0130530Y0304394D01*
X0130733Y0304165D01*
X0130931Y0303930D01*
X0131122Y0303690D01*
X0131308Y0303446D01*
X0131488Y0303198D01*
X0131661Y0302945D01*
X0131829Y0302687D01*
X0131990Y0302426D01*
X0132144Y0302161D01*
X0132292Y0301892D01*
X0132433Y0301620D01*
X0132568Y0301344D01*
X0132696Y0301066D01*
X0132816Y0300784D01*
X0132930Y0300499D01*
X0133037Y0300211D01*
X0133137Y0299921D01*
X0133230Y0299629D01*
X0133315Y0299334D01*
X0133393Y0299037D01*
X0133464Y0298739D01*
X0133528Y0298439D01*
X0133584Y0298137D01*
X0133633Y0297834D01*
X0133674Y0297530D01*
X0133708Y0297225D01*
X0133734Y0296920D01*
X0133753Y0296613D01*
X0133764Y0296307D01*
X0133768Y0296000D01*
X0133764Y0295693D01*
X0133753Y0295387D01*
X0133734Y0295080D01*
X0133708Y0294775D01*
X0133674Y0294470D01*
X0133633Y0294166D01*
X0133584Y0293863D01*
X0133528Y0293561D01*
X0133464Y0293261D01*
X0133393Y0292963D01*
X0133315Y0292666D01*
X0133230Y0292371D01*
X0133137Y0292079D01*
X0133037Y0291789D01*
X0132930Y0291501D01*
X0132816Y0291216D01*
X0132696Y0290934D01*
X0132568Y0290656D01*
X0132433Y0290380D01*
X0132292Y0290108D01*
X0132144Y0289839D01*
X0131990Y0289574D01*
X0131829Y0289313D01*
X0131661Y0289055D01*
X0131488Y0288802D01*
X0131308Y0288554D01*
X0131122Y0288310D01*
X0130931Y0288070D01*
X0130733Y0287835D01*
X0130530Y0287606D01*
X0130321Y0287381D01*
X0130107Y0287161D01*
X0129887Y0286947D01*
X0129662Y0286738D01*
X0129433Y0286535D01*
X0129198Y0286337D01*
X0128958Y0286146D01*
X0128714Y0285960D01*
X0128466Y0285780D01*
X0128213Y0285607D01*
X0127955Y0285439D01*
X0127694Y0285278D01*
X0127429Y0285124D01*
X0127160Y0284976D01*
X0126888Y0284835D01*
X0126612Y0284700D01*
X0126334Y0284572D01*
X0126052Y0284452D01*
X0125767Y0284338D01*
X0125479Y0284231D01*
X0125189Y0284131D01*
X0124897Y0284038D01*
X0124602Y0283953D01*
X0124305Y0283875D01*
X0124007Y0283804D01*
X0123707Y0283740D01*
X0123405Y0283684D01*
X0123102Y0283635D01*
X0122798Y0283594D01*
X0122493Y0283560D01*
X0122188Y0283534D01*
X0121881Y0283515D01*
X0121575Y0283504D01*
X0121268Y0283500D01*
X0120961Y0283504D01*
X0120655Y0283515D01*
X0120348Y0283534D01*
X0120043Y0283560D01*
X0119738Y0283594D01*
X0119434Y0283635D01*
X0119131Y0283684D01*
X0118829Y0283740D01*
X0118529Y0283804D01*
X0118231Y0283875D01*
X0117934Y0283953D01*
X0117639Y0284038D01*
X0117347Y0284131D01*
X0117057Y0284231D01*
X0116769Y0284338D01*
X0116484Y0284452D01*
X0116202Y0284572D01*
X0115924Y0284700D01*
X0115648Y0284835D01*
X0115376Y0284976D01*
X0115107Y0285124D01*
X0114842Y0285278D01*
X0114581Y0285439D01*
X0114323Y0285607D01*
X0114070Y0285780D01*
X0113822Y0285960D01*
X0113578Y0286146D01*
X0113338Y0286337D01*
X0113103Y0286535D01*
X0112874Y0286738D01*
X0112649Y0286947D01*
X0112429Y0287161D01*
X0112215Y0287381D01*
X0112006Y0287606D01*
X0111803Y0287835D01*
X0111605Y0288070D01*
X0111414Y0288310D01*
X0111228Y0288554D01*
X0111048Y0288802D01*
X0110875Y0289055D01*
X0110707Y0289313D01*
X0110546Y0289574D01*
X0110392Y0289839D01*
X0110244Y0290108D01*
X0110103Y0290380D01*
X0109968Y0290656D01*
X0109840Y0290934D01*
X0109720Y0291216D01*
X0109606Y0291501D01*
X0109499Y0291789D01*
X0109399Y0292079D01*
X0109306Y0292371D01*
X0109221Y0292666D01*
X0109143Y0292963D01*
X0109072Y0293261D01*
X0109008Y0293561D01*
X0108952Y0293863D01*
X0108903Y0294166D01*
X0108862Y0294470D01*
X0108828Y0294775D01*
X0108802Y0295080D01*
X0108783Y0295387D01*
X0108772Y0295693D01*
X0108768Y0296000D01*
X0113768Y0288500D02*
X0128768Y0303500D01*
X0131268Y0313500D02*
X0131270Y0313599D01*
X0131276Y0313699D01*
X0131286Y0313798D01*
X0131300Y0313896D01*
X0131317Y0313994D01*
X0131339Y0314091D01*
X0131364Y0314187D01*
X0131393Y0314282D01*
X0131426Y0314376D01*
X0131463Y0314468D01*
X0131503Y0314559D01*
X0131547Y0314648D01*
X0131595Y0314736D01*
X0131646Y0314821D01*
X0131700Y0314904D01*
X0131757Y0314986D01*
X0131818Y0315064D01*
X0131882Y0315141D01*
X0131948Y0315214D01*
X0132018Y0315285D01*
X0132090Y0315353D01*
X0132165Y0315419D01*
X0132243Y0315481D01*
X0132323Y0315540D01*
X0132405Y0315596D01*
X0132489Y0315648D01*
X0132576Y0315697D01*
X0132664Y0315743D01*
X0132754Y0315785D01*
X0132846Y0315824D01*
X0132939Y0315859D01*
X0133033Y0315890D01*
X0133129Y0315917D01*
X0133226Y0315940D01*
X0133323Y0315960D01*
X0133421Y0315976D01*
X0133520Y0315988D01*
X0133619Y0315996D01*
X0133718Y0316000D01*
X0133818Y0316000D01*
X0133917Y0315996D01*
X0134016Y0315988D01*
X0134115Y0315976D01*
X0134213Y0315960D01*
X0134310Y0315940D01*
X0134407Y0315917D01*
X0134503Y0315890D01*
X0134597Y0315859D01*
X0134690Y0315824D01*
X0134782Y0315785D01*
X0134872Y0315743D01*
X0134960Y0315697D01*
X0135047Y0315648D01*
X0135131Y0315596D01*
X0135213Y0315540D01*
X0135293Y0315481D01*
X0135371Y0315419D01*
X0135446Y0315353D01*
X0135518Y0315285D01*
X0135588Y0315214D01*
X0135654Y0315141D01*
X0135718Y0315064D01*
X0135779Y0314986D01*
X0135836Y0314904D01*
X0135890Y0314821D01*
X0135941Y0314736D01*
X0135989Y0314648D01*
X0136033Y0314559D01*
X0136073Y0314468D01*
X0136110Y0314376D01*
X0136143Y0314282D01*
X0136172Y0314187D01*
X0136197Y0314091D01*
X0136219Y0313994D01*
X0136236Y0313896D01*
X0136250Y0313798D01*
X0136260Y0313699D01*
X0136266Y0313599D01*
X0136268Y0313500D01*
X0136266Y0313401D01*
X0136260Y0313301D01*
X0136250Y0313202D01*
X0136236Y0313104D01*
X0136219Y0313006D01*
X0136197Y0312909D01*
X0136172Y0312813D01*
X0136143Y0312718D01*
X0136110Y0312624D01*
X0136073Y0312532D01*
X0136033Y0312441D01*
X0135989Y0312352D01*
X0135941Y0312264D01*
X0135890Y0312179D01*
X0135836Y0312096D01*
X0135779Y0312014D01*
X0135718Y0311936D01*
X0135654Y0311859D01*
X0135588Y0311786D01*
X0135518Y0311715D01*
X0135446Y0311647D01*
X0135371Y0311581D01*
X0135293Y0311519D01*
X0135213Y0311460D01*
X0135131Y0311404D01*
X0135047Y0311352D01*
X0134960Y0311303D01*
X0134872Y0311257D01*
X0134782Y0311215D01*
X0134690Y0311176D01*
X0134597Y0311141D01*
X0134503Y0311110D01*
X0134407Y0311083D01*
X0134310Y0311060D01*
X0134213Y0311040D01*
X0134115Y0311024D01*
X0134016Y0311012D01*
X0133917Y0311004D01*
X0133818Y0311000D01*
X0133718Y0311000D01*
X0133619Y0311004D01*
X0133520Y0311012D01*
X0133421Y0311024D01*
X0133323Y0311040D01*
X0133226Y0311060D01*
X0133129Y0311083D01*
X0133033Y0311110D01*
X0132939Y0311141D01*
X0132846Y0311176D01*
X0132754Y0311215D01*
X0132664Y0311257D01*
X0132576Y0311303D01*
X0132489Y0311352D01*
X0132405Y0311404D01*
X0132323Y0311460D01*
X0132243Y0311519D01*
X0132165Y0311581D01*
X0132090Y0311647D01*
X0132018Y0311715D01*
X0131948Y0311786D01*
X0131882Y0311859D01*
X0131818Y0311936D01*
X0131757Y0312014D01*
X0131700Y0312096D01*
X0131646Y0312179D01*
X0131595Y0312264D01*
X0131547Y0312352D01*
X0131503Y0312441D01*
X0131463Y0312532D01*
X0131426Y0312624D01*
X0131393Y0312718D01*
X0131364Y0312813D01*
X0131339Y0312909D01*
X0131317Y0313006D01*
X0131300Y0313104D01*
X0131286Y0313202D01*
X0131276Y0313301D01*
X0131270Y0313401D01*
X0131268Y0313500D01*
X0106268Y0313500D02*
X0106270Y0313599D01*
X0106276Y0313699D01*
X0106286Y0313798D01*
X0106300Y0313896D01*
X0106317Y0313994D01*
X0106339Y0314091D01*
X0106364Y0314187D01*
X0106393Y0314282D01*
X0106426Y0314376D01*
X0106463Y0314468D01*
X0106503Y0314559D01*
X0106547Y0314648D01*
X0106595Y0314736D01*
X0106646Y0314821D01*
X0106700Y0314904D01*
X0106757Y0314986D01*
X0106818Y0315064D01*
X0106882Y0315141D01*
X0106948Y0315214D01*
X0107018Y0315285D01*
X0107090Y0315353D01*
X0107165Y0315419D01*
X0107243Y0315481D01*
X0107323Y0315540D01*
X0107405Y0315596D01*
X0107489Y0315648D01*
X0107576Y0315697D01*
X0107664Y0315743D01*
X0107754Y0315785D01*
X0107846Y0315824D01*
X0107939Y0315859D01*
X0108033Y0315890D01*
X0108129Y0315917D01*
X0108226Y0315940D01*
X0108323Y0315960D01*
X0108421Y0315976D01*
X0108520Y0315988D01*
X0108619Y0315996D01*
X0108718Y0316000D01*
X0108818Y0316000D01*
X0108917Y0315996D01*
X0109016Y0315988D01*
X0109115Y0315976D01*
X0109213Y0315960D01*
X0109310Y0315940D01*
X0109407Y0315917D01*
X0109503Y0315890D01*
X0109597Y0315859D01*
X0109690Y0315824D01*
X0109782Y0315785D01*
X0109872Y0315743D01*
X0109960Y0315697D01*
X0110047Y0315648D01*
X0110131Y0315596D01*
X0110213Y0315540D01*
X0110293Y0315481D01*
X0110371Y0315419D01*
X0110446Y0315353D01*
X0110518Y0315285D01*
X0110588Y0315214D01*
X0110654Y0315141D01*
X0110718Y0315064D01*
X0110779Y0314986D01*
X0110836Y0314904D01*
X0110890Y0314821D01*
X0110941Y0314736D01*
X0110989Y0314648D01*
X0111033Y0314559D01*
X0111073Y0314468D01*
X0111110Y0314376D01*
X0111143Y0314282D01*
X0111172Y0314187D01*
X0111197Y0314091D01*
X0111219Y0313994D01*
X0111236Y0313896D01*
X0111250Y0313798D01*
X0111260Y0313699D01*
X0111266Y0313599D01*
X0111268Y0313500D01*
X0111266Y0313401D01*
X0111260Y0313301D01*
X0111250Y0313202D01*
X0111236Y0313104D01*
X0111219Y0313006D01*
X0111197Y0312909D01*
X0111172Y0312813D01*
X0111143Y0312718D01*
X0111110Y0312624D01*
X0111073Y0312532D01*
X0111033Y0312441D01*
X0110989Y0312352D01*
X0110941Y0312264D01*
X0110890Y0312179D01*
X0110836Y0312096D01*
X0110779Y0312014D01*
X0110718Y0311936D01*
X0110654Y0311859D01*
X0110588Y0311786D01*
X0110518Y0311715D01*
X0110446Y0311647D01*
X0110371Y0311581D01*
X0110293Y0311519D01*
X0110213Y0311460D01*
X0110131Y0311404D01*
X0110047Y0311352D01*
X0109960Y0311303D01*
X0109872Y0311257D01*
X0109782Y0311215D01*
X0109690Y0311176D01*
X0109597Y0311141D01*
X0109503Y0311110D01*
X0109407Y0311083D01*
X0109310Y0311060D01*
X0109213Y0311040D01*
X0109115Y0311024D01*
X0109016Y0311012D01*
X0108917Y0311004D01*
X0108818Y0311000D01*
X0108718Y0311000D01*
X0108619Y0311004D01*
X0108520Y0311012D01*
X0108421Y0311024D01*
X0108323Y0311040D01*
X0108226Y0311060D01*
X0108129Y0311083D01*
X0108033Y0311110D01*
X0107939Y0311141D01*
X0107846Y0311176D01*
X0107754Y0311215D01*
X0107664Y0311257D01*
X0107576Y0311303D01*
X0107489Y0311352D01*
X0107405Y0311404D01*
X0107323Y0311460D01*
X0107243Y0311519D01*
X0107165Y0311581D01*
X0107090Y0311647D01*
X0107018Y0311715D01*
X0106948Y0311786D01*
X0106882Y0311859D01*
X0106818Y0311936D01*
X0106757Y0312014D01*
X0106700Y0312096D01*
X0106646Y0312179D01*
X0106595Y0312264D01*
X0106547Y0312352D01*
X0106503Y0312441D01*
X0106463Y0312532D01*
X0106426Y0312624D01*
X0106393Y0312718D01*
X0106364Y0312813D01*
X0106339Y0312909D01*
X0106317Y0313006D01*
X0106300Y0313104D01*
X0106286Y0313202D01*
X0106276Y0313301D01*
X0106270Y0313401D01*
X0106268Y0313500D01*
X0106268Y0278500D02*
X0106270Y0278599D01*
X0106276Y0278699D01*
X0106286Y0278798D01*
X0106300Y0278896D01*
X0106317Y0278994D01*
X0106339Y0279091D01*
X0106364Y0279187D01*
X0106393Y0279282D01*
X0106426Y0279376D01*
X0106463Y0279468D01*
X0106503Y0279559D01*
X0106547Y0279648D01*
X0106595Y0279736D01*
X0106646Y0279821D01*
X0106700Y0279904D01*
X0106757Y0279986D01*
X0106818Y0280064D01*
X0106882Y0280141D01*
X0106948Y0280214D01*
X0107018Y0280285D01*
X0107090Y0280353D01*
X0107165Y0280419D01*
X0107243Y0280481D01*
X0107323Y0280540D01*
X0107405Y0280596D01*
X0107489Y0280648D01*
X0107576Y0280697D01*
X0107664Y0280743D01*
X0107754Y0280785D01*
X0107846Y0280824D01*
X0107939Y0280859D01*
X0108033Y0280890D01*
X0108129Y0280917D01*
X0108226Y0280940D01*
X0108323Y0280960D01*
X0108421Y0280976D01*
X0108520Y0280988D01*
X0108619Y0280996D01*
X0108718Y0281000D01*
X0108818Y0281000D01*
X0108917Y0280996D01*
X0109016Y0280988D01*
X0109115Y0280976D01*
X0109213Y0280960D01*
X0109310Y0280940D01*
X0109407Y0280917D01*
X0109503Y0280890D01*
X0109597Y0280859D01*
X0109690Y0280824D01*
X0109782Y0280785D01*
X0109872Y0280743D01*
X0109960Y0280697D01*
X0110047Y0280648D01*
X0110131Y0280596D01*
X0110213Y0280540D01*
X0110293Y0280481D01*
X0110371Y0280419D01*
X0110446Y0280353D01*
X0110518Y0280285D01*
X0110588Y0280214D01*
X0110654Y0280141D01*
X0110718Y0280064D01*
X0110779Y0279986D01*
X0110836Y0279904D01*
X0110890Y0279821D01*
X0110941Y0279736D01*
X0110989Y0279648D01*
X0111033Y0279559D01*
X0111073Y0279468D01*
X0111110Y0279376D01*
X0111143Y0279282D01*
X0111172Y0279187D01*
X0111197Y0279091D01*
X0111219Y0278994D01*
X0111236Y0278896D01*
X0111250Y0278798D01*
X0111260Y0278699D01*
X0111266Y0278599D01*
X0111268Y0278500D01*
X0111266Y0278401D01*
X0111260Y0278301D01*
X0111250Y0278202D01*
X0111236Y0278104D01*
X0111219Y0278006D01*
X0111197Y0277909D01*
X0111172Y0277813D01*
X0111143Y0277718D01*
X0111110Y0277624D01*
X0111073Y0277532D01*
X0111033Y0277441D01*
X0110989Y0277352D01*
X0110941Y0277264D01*
X0110890Y0277179D01*
X0110836Y0277096D01*
X0110779Y0277014D01*
X0110718Y0276936D01*
X0110654Y0276859D01*
X0110588Y0276786D01*
X0110518Y0276715D01*
X0110446Y0276647D01*
X0110371Y0276581D01*
X0110293Y0276519D01*
X0110213Y0276460D01*
X0110131Y0276404D01*
X0110047Y0276352D01*
X0109960Y0276303D01*
X0109872Y0276257D01*
X0109782Y0276215D01*
X0109690Y0276176D01*
X0109597Y0276141D01*
X0109503Y0276110D01*
X0109407Y0276083D01*
X0109310Y0276060D01*
X0109213Y0276040D01*
X0109115Y0276024D01*
X0109016Y0276012D01*
X0108917Y0276004D01*
X0108818Y0276000D01*
X0108718Y0276000D01*
X0108619Y0276004D01*
X0108520Y0276012D01*
X0108421Y0276024D01*
X0108323Y0276040D01*
X0108226Y0276060D01*
X0108129Y0276083D01*
X0108033Y0276110D01*
X0107939Y0276141D01*
X0107846Y0276176D01*
X0107754Y0276215D01*
X0107664Y0276257D01*
X0107576Y0276303D01*
X0107489Y0276352D01*
X0107405Y0276404D01*
X0107323Y0276460D01*
X0107243Y0276519D01*
X0107165Y0276581D01*
X0107090Y0276647D01*
X0107018Y0276715D01*
X0106948Y0276786D01*
X0106882Y0276859D01*
X0106818Y0276936D01*
X0106757Y0277014D01*
X0106700Y0277096D01*
X0106646Y0277179D01*
X0106595Y0277264D01*
X0106547Y0277352D01*
X0106503Y0277441D01*
X0106463Y0277532D01*
X0106426Y0277624D01*
X0106393Y0277718D01*
X0106364Y0277813D01*
X0106339Y0277909D01*
X0106317Y0278006D01*
X0106300Y0278104D01*
X0106286Y0278202D01*
X0106276Y0278301D01*
X0106270Y0278401D01*
X0106268Y0278500D01*
X0058768Y0276000D02*
X0056268Y0273500D01*
X0051268Y0273500D01*
X0051268Y0271000D01*
X0046268Y0271000D01*
X0046268Y0273500D01*
X0051268Y0273500D01*
X0048768Y0278500D02*
X0048770Y0278599D01*
X0048776Y0278699D01*
X0048786Y0278798D01*
X0048800Y0278896D01*
X0048817Y0278994D01*
X0048839Y0279091D01*
X0048864Y0279187D01*
X0048893Y0279282D01*
X0048926Y0279376D01*
X0048963Y0279468D01*
X0049003Y0279559D01*
X0049047Y0279648D01*
X0049095Y0279736D01*
X0049146Y0279821D01*
X0049200Y0279904D01*
X0049257Y0279986D01*
X0049318Y0280064D01*
X0049382Y0280141D01*
X0049448Y0280214D01*
X0049518Y0280285D01*
X0049590Y0280353D01*
X0049665Y0280419D01*
X0049743Y0280481D01*
X0049823Y0280540D01*
X0049905Y0280596D01*
X0049989Y0280648D01*
X0050076Y0280697D01*
X0050164Y0280743D01*
X0050254Y0280785D01*
X0050346Y0280824D01*
X0050439Y0280859D01*
X0050533Y0280890D01*
X0050629Y0280917D01*
X0050726Y0280940D01*
X0050823Y0280960D01*
X0050921Y0280976D01*
X0051020Y0280988D01*
X0051119Y0280996D01*
X0051218Y0281000D01*
X0051318Y0281000D01*
X0051417Y0280996D01*
X0051516Y0280988D01*
X0051615Y0280976D01*
X0051713Y0280960D01*
X0051810Y0280940D01*
X0051907Y0280917D01*
X0052003Y0280890D01*
X0052097Y0280859D01*
X0052190Y0280824D01*
X0052282Y0280785D01*
X0052372Y0280743D01*
X0052460Y0280697D01*
X0052547Y0280648D01*
X0052631Y0280596D01*
X0052713Y0280540D01*
X0052793Y0280481D01*
X0052871Y0280419D01*
X0052946Y0280353D01*
X0053018Y0280285D01*
X0053088Y0280214D01*
X0053154Y0280141D01*
X0053218Y0280064D01*
X0053279Y0279986D01*
X0053336Y0279904D01*
X0053390Y0279821D01*
X0053441Y0279736D01*
X0053489Y0279648D01*
X0053533Y0279559D01*
X0053573Y0279468D01*
X0053610Y0279376D01*
X0053643Y0279282D01*
X0053672Y0279187D01*
X0053697Y0279091D01*
X0053719Y0278994D01*
X0053736Y0278896D01*
X0053750Y0278798D01*
X0053760Y0278699D01*
X0053766Y0278599D01*
X0053768Y0278500D01*
X0053766Y0278401D01*
X0053760Y0278301D01*
X0053750Y0278202D01*
X0053736Y0278104D01*
X0053719Y0278006D01*
X0053697Y0277909D01*
X0053672Y0277813D01*
X0053643Y0277718D01*
X0053610Y0277624D01*
X0053573Y0277532D01*
X0053533Y0277441D01*
X0053489Y0277352D01*
X0053441Y0277264D01*
X0053390Y0277179D01*
X0053336Y0277096D01*
X0053279Y0277014D01*
X0053218Y0276936D01*
X0053154Y0276859D01*
X0053088Y0276786D01*
X0053018Y0276715D01*
X0052946Y0276647D01*
X0052871Y0276581D01*
X0052793Y0276519D01*
X0052713Y0276460D01*
X0052631Y0276404D01*
X0052547Y0276352D01*
X0052460Y0276303D01*
X0052372Y0276257D01*
X0052282Y0276215D01*
X0052190Y0276176D01*
X0052097Y0276141D01*
X0052003Y0276110D01*
X0051907Y0276083D01*
X0051810Y0276060D01*
X0051713Y0276040D01*
X0051615Y0276024D01*
X0051516Y0276012D01*
X0051417Y0276004D01*
X0051318Y0276000D01*
X0051218Y0276000D01*
X0051119Y0276004D01*
X0051020Y0276012D01*
X0050921Y0276024D01*
X0050823Y0276040D01*
X0050726Y0276060D01*
X0050629Y0276083D01*
X0050533Y0276110D01*
X0050439Y0276141D01*
X0050346Y0276176D01*
X0050254Y0276215D01*
X0050164Y0276257D01*
X0050076Y0276303D01*
X0049989Y0276352D01*
X0049905Y0276404D01*
X0049823Y0276460D01*
X0049743Y0276519D01*
X0049665Y0276581D01*
X0049590Y0276647D01*
X0049518Y0276715D01*
X0049448Y0276786D01*
X0049382Y0276859D01*
X0049318Y0276936D01*
X0049257Y0277014D01*
X0049200Y0277096D01*
X0049146Y0277179D01*
X0049095Y0277264D01*
X0049047Y0277352D01*
X0049003Y0277441D01*
X0048963Y0277532D01*
X0048926Y0277624D01*
X0048893Y0277718D01*
X0048864Y0277813D01*
X0048839Y0277909D01*
X0048817Y0278006D01*
X0048800Y0278104D01*
X0048786Y0278202D01*
X0048776Y0278301D01*
X0048770Y0278401D01*
X0048768Y0278500D01*
X0046268Y0273500D02*
X0041268Y0273500D01*
X0041268Y0271000D01*
X0036268Y0271000D01*
X0036268Y0273500D01*
X0041268Y0273500D01*
X0036268Y0273500D02*
X0031268Y0273500D01*
X0031268Y0271000D01*
X0026268Y0271000D01*
X0026268Y0273500D01*
X0031268Y0273500D01*
X0026268Y0273500D02*
X0021268Y0273500D01*
X0018768Y0276000D01*
X0018768Y0316000D01*
X0021268Y0318500D01*
X0056268Y0318500D01*
X0058768Y0316000D01*
X0058768Y0276000D01*
X0026268Y0296000D02*
X0026272Y0296307D01*
X0026283Y0296613D01*
X0026302Y0296920D01*
X0026328Y0297225D01*
X0026362Y0297530D01*
X0026403Y0297834D01*
X0026452Y0298137D01*
X0026508Y0298439D01*
X0026572Y0298739D01*
X0026643Y0299037D01*
X0026721Y0299334D01*
X0026806Y0299629D01*
X0026899Y0299921D01*
X0026999Y0300211D01*
X0027106Y0300499D01*
X0027220Y0300784D01*
X0027340Y0301066D01*
X0027468Y0301344D01*
X0027603Y0301620D01*
X0027744Y0301892D01*
X0027892Y0302161D01*
X0028046Y0302426D01*
X0028207Y0302687D01*
X0028375Y0302945D01*
X0028548Y0303198D01*
X0028728Y0303446D01*
X0028914Y0303690D01*
X0029105Y0303930D01*
X0029303Y0304165D01*
X0029506Y0304394D01*
X0029715Y0304619D01*
X0029929Y0304839D01*
X0030149Y0305053D01*
X0030374Y0305262D01*
X0030603Y0305465D01*
X0030838Y0305663D01*
X0031078Y0305854D01*
X0031322Y0306040D01*
X0031570Y0306220D01*
X0031823Y0306393D01*
X0032081Y0306561D01*
X0032342Y0306722D01*
X0032607Y0306876D01*
X0032876Y0307024D01*
X0033148Y0307165D01*
X0033424Y0307300D01*
X0033702Y0307428D01*
X0033984Y0307548D01*
X0034269Y0307662D01*
X0034557Y0307769D01*
X0034847Y0307869D01*
X0035139Y0307962D01*
X0035434Y0308047D01*
X0035731Y0308125D01*
X0036029Y0308196D01*
X0036329Y0308260D01*
X0036631Y0308316D01*
X0036934Y0308365D01*
X0037238Y0308406D01*
X0037543Y0308440D01*
X0037848Y0308466D01*
X0038155Y0308485D01*
X0038461Y0308496D01*
X0038768Y0308500D01*
X0039075Y0308496D01*
X0039381Y0308485D01*
X0039688Y0308466D01*
X0039993Y0308440D01*
X0040298Y0308406D01*
X0040602Y0308365D01*
X0040905Y0308316D01*
X0041207Y0308260D01*
X0041507Y0308196D01*
X0041805Y0308125D01*
X0042102Y0308047D01*
X0042397Y0307962D01*
X0042689Y0307869D01*
X0042979Y0307769D01*
X0043267Y0307662D01*
X0043552Y0307548D01*
X0043834Y0307428D01*
X0044112Y0307300D01*
X0044388Y0307165D01*
X0044660Y0307024D01*
X0044929Y0306876D01*
X0045194Y0306722D01*
X0045455Y0306561D01*
X0045713Y0306393D01*
X0045966Y0306220D01*
X0046214Y0306040D01*
X0046458Y0305854D01*
X0046698Y0305663D01*
X0046933Y0305465D01*
X0047162Y0305262D01*
X0047387Y0305053D01*
X0047607Y0304839D01*
X0047821Y0304619D01*
X0048030Y0304394D01*
X0048233Y0304165D01*
X0048431Y0303930D01*
X0048622Y0303690D01*
X0048808Y0303446D01*
X0048988Y0303198D01*
X0049161Y0302945D01*
X0049329Y0302687D01*
X0049490Y0302426D01*
X0049644Y0302161D01*
X0049792Y0301892D01*
X0049933Y0301620D01*
X0050068Y0301344D01*
X0050196Y0301066D01*
X0050316Y0300784D01*
X0050430Y0300499D01*
X0050537Y0300211D01*
X0050637Y0299921D01*
X0050730Y0299629D01*
X0050815Y0299334D01*
X0050893Y0299037D01*
X0050964Y0298739D01*
X0051028Y0298439D01*
X0051084Y0298137D01*
X0051133Y0297834D01*
X0051174Y0297530D01*
X0051208Y0297225D01*
X0051234Y0296920D01*
X0051253Y0296613D01*
X0051264Y0296307D01*
X0051268Y0296000D01*
X0051264Y0295693D01*
X0051253Y0295387D01*
X0051234Y0295080D01*
X0051208Y0294775D01*
X0051174Y0294470D01*
X0051133Y0294166D01*
X0051084Y0293863D01*
X0051028Y0293561D01*
X0050964Y0293261D01*
X0050893Y0292963D01*
X0050815Y0292666D01*
X0050730Y0292371D01*
X0050637Y0292079D01*
X0050537Y0291789D01*
X0050430Y0291501D01*
X0050316Y0291216D01*
X0050196Y0290934D01*
X0050068Y0290656D01*
X0049933Y0290380D01*
X0049792Y0290108D01*
X0049644Y0289839D01*
X0049490Y0289574D01*
X0049329Y0289313D01*
X0049161Y0289055D01*
X0048988Y0288802D01*
X0048808Y0288554D01*
X0048622Y0288310D01*
X0048431Y0288070D01*
X0048233Y0287835D01*
X0048030Y0287606D01*
X0047821Y0287381D01*
X0047607Y0287161D01*
X0047387Y0286947D01*
X0047162Y0286738D01*
X0046933Y0286535D01*
X0046698Y0286337D01*
X0046458Y0286146D01*
X0046214Y0285960D01*
X0045966Y0285780D01*
X0045713Y0285607D01*
X0045455Y0285439D01*
X0045194Y0285278D01*
X0044929Y0285124D01*
X0044660Y0284976D01*
X0044388Y0284835D01*
X0044112Y0284700D01*
X0043834Y0284572D01*
X0043552Y0284452D01*
X0043267Y0284338D01*
X0042979Y0284231D01*
X0042689Y0284131D01*
X0042397Y0284038D01*
X0042102Y0283953D01*
X0041805Y0283875D01*
X0041507Y0283804D01*
X0041207Y0283740D01*
X0040905Y0283684D01*
X0040602Y0283635D01*
X0040298Y0283594D01*
X0039993Y0283560D01*
X0039688Y0283534D01*
X0039381Y0283515D01*
X0039075Y0283504D01*
X0038768Y0283500D01*
X0038461Y0283504D01*
X0038155Y0283515D01*
X0037848Y0283534D01*
X0037543Y0283560D01*
X0037238Y0283594D01*
X0036934Y0283635D01*
X0036631Y0283684D01*
X0036329Y0283740D01*
X0036029Y0283804D01*
X0035731Y0283875D01*
X0035434Y0283953D01*
X0035139Y0284038D01*
X0034847Y0284131D01*
X0034557Y0284231D01*
X0034269Y0284338D01*
X0033984Y0284452D01*
X0033702Y0284572D01*
X0033424Y0284700D01*
X0033148Y0284835D01*
X0032876Y0284976D01*
X0032607Y0285124D01*
X0032342Y0285278D01*
X0032081Y0285439D01*
X0031823Y0285607D01*
X0031570Y0285780D01*
X0031322Y0285960D01*
X0031078Y0286146D01*
X0030838Y0286337D01*
X0030603Y0286535D01*
X0030374Y0286738D01*
X0030149Y0286947D01*
X0029929Y0287161D01*
X0029715Y0287381D01*
X0029506Y0287606D01*
X0029303Y0287835D01*
X0029105Y0288070D01*
X0028914Y0288310D01*
X0028728Y0288554D01*
X0028548Y0288802D01*
X0028375Y0289055D01*
X0028207Y0289313D01*
X0028046Y0289574D01*
X0027892Y0289839D01*
X0027744Y0290108D01*
X0027603Y0290380D01*
X0027468Y0290656D01*
X0027340Y0290934D01*
X0027220Y0291216D01*
X0027106Y0291501D01*
X0026999Y0291789D01*
X0026899Y0292079D01*
X0026806Y0292371D01*
X0026721Y0292666D01*
X0026643Y0292963D01*
X0026572Y0293261D01*
X0026508Y0293561D01*
X0026452Y0293863D01*
X0026403Y0294166D01*
X0026362Y0294470D01*
X0026328Y0294775D01*
X0026302Y0295080D01*
X0026283Y0295387D01*
X0026272Y0295693D01*
X0026268Y0296000D01*
X0031268Y0288500D02*
X0046268Y0303500D01*
X0048768Y0313500D02*
X0048770Y0313599D01*
X0048776Y0313699D01*
X0048786Y0313798D01*
X0048800Y0313896D01*
X0048817Y0313994D01*
X0048839Y0314091D01*
X0048864Y0314187D01*
X0048893Y0314282D01*
X0048926Y0314376D01*
X0048963Y0314468D01*
X0049003Y0314559D01*
X0049047Y0314648D01*
X0049095Y0314736D01*
X0049146Y0314821D01*
X0049200Y0314904D01*
X0049257Y0314986D01*
X0049318Y0315064D01*
X0049382Y0315141D01*
X0049448Y0315214D01*
X0049518Y0315285D01*
X0049590Y0315353D01*
X0049665Y0315419D01*
X0049743Y0315481D01*
X0049823Y0315540D01*
X0049905Y0315596D01*
X0049989Y0315648D01*
X0050076Y0315697D01*
X0050164Y0315743D01*
X0050254Y0315785D01*
X0050346Y0315824D01*
X0050439Y0315859D01*
X0050533Y0315890D01*
X0050629Y0315917D01*
X0050726Y0315940D01*
X0050823Y0315960D01*
X0050921Y0315976D01*
X0051020Y0315988D01*
X0051119Y0315996D01*
X0051218Y0316000D01*
X0051318Y0316000D01*
X0051417Y0315996D01*
X0051516Y0315988D01*
X0051615Y0315976D01*
X0051713Y0315960D01*
X0051810Y0315940D01*
X0051907Y0315917D01*
X0052003Y0315890D01*
X0052097Y0315859D01*
X0052190Y0315824D01*
X0052282Y0315785D01*
X0052372Y0315743D01*
X0052460Y0315697D01*
X0052547Y0315648D01*
X0052631Y0315596D01*
X0052713Y0315540D01*
X0052793Y0315481D01*
X0052871Y0315419D01*
X0052946Y0315353D01*
X0053018Y0315285D01*
X0053088Y0315214D01*
X0053154Y0315141D01*
X0053218Y0315064D01*
X0053279Y0314986D01*
X0053336Y0314904D01*
X0053390Y0314821D01*
X0053441Y0314736D01*
X0053489Y0314648D01*
X0053533Y0314559D01*
X0053573Y0314468D01*
X0053610Y0314376D01*
X0053643Y0314282D01*
X0053672Y0314187D01*
X0053697Y0314091D01*
X0053719Y0313994D01*
X0053736Y0313896D01*
X0053750Y0313798D01*
X0053760Y0313699D01*
X0053766Y0313599D01*
X0053768Y0313500D01*
X0053766Y0313401D01*
X0053760Y0313301D01*
X0053750Y0313202D01*
X0053736Y0313104D01*
X0053719Y0313006D01*
X0053697Y0312909D01*
X0053672Y0312813D01*
X0053643Y0312718D01*
X0053610Y0312624D01*
X0053573Y0312532D01*
X0053533Y0312441D01*
X0053489Y0312352D01*
X0053441Y0312264D01*
X0053390Y0312179D01*
X0053336Y0312096D01*
X0053279Y0312014D01*
X0053218Y0311936D01*
X0053154Y0311859D01*
X0053088Y0311786D01*
X0053018Y0311715D01*
X0052946Y0311647D01*
X0052871Y0311581D01*
X0052793Y0311519D01*
X0052713Y0311460D01*
X0052631Y0311404D01*
X0052547Y0311352D01*
X0052460Y0311303D01*
X0052372Y0311257D01*
X0052282Y0311215D01*
X0052190Y0311176D01*
X0052097Y0311141D01*
X0052003Y0311110D01*
X0051907Y0311083D01*
X0051810Y0311060D01*
X0051713Y0311040D01*
X0051615Y0311024D01*
X0051516Y0311012D01*
X0051417Y0311004D01*
X0051318Y0311000D01*
X0051218Y0311000D01*
X0051119Y0311004D01*
X0051020Y0311012D01*
X0050921Y0311024D01*
X0050823Y0311040D01*
X0050726Y0311060D01*
X0050629Y0311083D01*
X0050533Y0311110D01*
X0050439Y0311141D01*
X0050346Y0311176D01*
X0050254Y0311215D01*
X0050164Y0311257D01*
X0050076Y0311303D01*
X0049989Y0311352D01*
X0049905Y0311404D01*
X0049823Y0311460D01*
X0049743Y0311519D01*
X0049665Y0311581D01*
X0049590Y0311647D01*
X0049518Y0311715D01*
X0049448Y0311786D01*
X0049382Y0311859D01*
X0049318Y0311936D01*
X0049257Y0312014D01*
X0049200Y0312096D01*
X0049146Y0312179D01*
X0049095Y0312264D01*
X0049047Y0312352D01*
X0049003Y0312441D01*
X0048963Y0312532D01*
X0048926Y0312624D01*
X0048893Y0312718D01*
X0048864Y0312813D01*
X0048839Y0312909D01*
X0048817Y0313006D01*
X0048800Y0313104D01*
X0048786Y0313202D01*
X0048776Y0313301D01*
X0048770Y0313401D01*
X0048768Y0313500D01*
X0023768Y0313500D02*
X0023770Y0313599D01*
X0023776Y0313699D01*
X0023786Y0313798D01*
X0023800Y0313896D01*
X0023817Y0313994D01*
X0023839Y0314091D01*
X0023864Y0314187D01*
X0023893Y0314282D01*
X0023926Y0314376D01*
X0023963Y0314468D01*
X0024003Y0314559D01*
X0024047Y0314648D01*
X0024095Y0314736D01*
X0024146Y0314821D01*
X0024200Y0314904D01*
X0024257Y0314986D01*
X0024318Y0315064D01*
X0024382Y0315141D01*
X0024448Y0315214D01*
X0024518Y0315285D01*
X0024590Y0315353D01*
X0024665Y0315419D01*
X0024743Y0315481D01*
X0024823Y0315540D01*
X0024905Y0315596D01*
X0024989Y0315648D01*
X0025076Y0315697D01*
X0025164Y0315743D01*
X0025254Y0315785D01*
X0025346Y0315824D01*
X0025439Y0315859D01*
X0025533Y0315890D01*
X0025629Y0315917D01*
X0025726Y0315940D01*
X0025823Y0315960D01*
X0025921Y0315976D01*
X0026020Y0315988D01*
X0026119Y0315996D01*
X0026218Y0316000D01*
X0026318Y0316000D01*
X0026417Y0315996D01*
X0026516Y0315988D01*
X0026615Y0315976D01*
X0026713Y0315960D01*
X0026810Y0315940D01*
X0026907Y0315917D01*
X0027003Y0315890D01*
X0027097Y0315859D01*
X0027190Y0315824D01*
X0027282Y0315785D01*
X0027372Y0315743D01*
X0027460Y0315697D01*
X0027547Y0315648D01*
X0027631Y0315596D01*
X0027713Y0315540D01*
X0027793Y0315481D01*
X0027871Y0315419D01*
X0027946Y0315353D01*
X0028018Y0315285D01*
X0028088Y0315214D01*
X0028154Y0315141D01*
X0028218Y0315064D01*
X0028279Y0314986D01*
X0028336Y0314904D01*
X0028390Y0314821D01*
X0028441Y0314736D01*
X0028489Y0314648D01*
X0028533Y0314559D01*
X0028573Y0314468D01*
X0028610Y0314376D01*
X0028643Y0314282D01*
X0028672Y0314187D01*
X0028697Y0314091D01*
X0028719Y0313994D01*
X0028736Y0313896D01*
X0028750Y0313798D01*
X0028760Y0313699D01*
X0028766Y0313599D01*
X0028768Y0313500D01*
X0028766Y0313401D01*
X0028760Y0313301D01*
X0028750Y0313202D01*
X0028736Y0313104D01*
X0028719Y0313006D01*
X0028697Y0312909D01*
X0028672Y0312813D01*
X0028643Y0312718D01*
X0028610Y0312624D01*
X0028573Y0312532D01*
X0028533Y0312441D01*
X0028489Y0312352D01*
X0028441Y0312264D01*
X0028390Y0312179D01*
X0028336Y0312096D01*
X0028279Y0312014D01*
X0028218Y0311936D01*
X0028154Y0311859D01*
X0028088Y0311786D01*
X0028018Y0311715D01*
X0027946Y0311647D01*
X0027871Y0311581D01*
X0027793Y0311519D01*
X0027713Y0311460D01*
X0027631Y0311404D01*
X0027547Y0311352D01*
X0027460Y0311303D01*
X0027372Y0311257D01*
X0027282Y0311215D01*
X0027190Y0311176D01*
X0027097Y0311141D01*
X0027003Y0311110D01*
X0026907Y0311083D01*
X0026810Y0311060D01*
X0026713Y0311040D01*
X0026615Y0311024D01*
X0026516Y0311012D01*
X0026417Y0311004D01*
X0026318Y0311000D01*
X0026218Y0311000D01*
X0026119Y0311004D01*
X0026020Y0311012D01*
X0025921Y0311024D01*
X0025823Y0311040D01*
X0025726Y0311060D01*
X0025629Y0311083D01*
X0025533Y0311110D01*
X0025439Y0311141D01*
X0025346Y0311176D01*
X0025254Y0311215D01*
X0025164Y0311257D01*
X0025076Y0311303D01*
X0024989Y0311352D01*
X0024905Y0311404D01*
X0024823Y0311460D01*
X0024743Y0311519D01*
X0024665Y0311581D01*
X0024590Y0311647D01*
X0024518Y0311715D01*
X0024448Y0311786D01*
X0024382Y0311859D01*
X0024318Y0311936D01*
X0024257Y0312014D01*
X0024200Y0312096D01*
X0024146Y0312179D01*
X0024095Y0312264D01*
X0024047Y0312352D01*
X0024003Y0312441D01*
X0023963Y0312532D01*
X0023926Y0312624D01*
X0023893Y0312718D01*
X0023864Y0312813D01*
X0023839Y0312909D01*
X0023817Y0313006D01*
X0023800Y0313104D01*
X0023786Y0313202D01*
X0023776Y0313301D01*
X0023770Y0313401D01*
X0023768Y0313500D01*
X0023768Y0278500D02*
X0023770Y0278599D01*
X0023776Y0278699D01*
X0023786Y0278798D01*
X0023800Y0278896D01*
X0023817Y0278994D01*
X0023839Y0279091D01*
X0023864Y0279187D01*
X0023893Y0279282D01*
X0023926Y0279376D01*
X0023963Y0279468D01*
X0024003Y0279559D01*
X0024047Y0279648D01*
X0024095Y0279736D01*
X0024146Y0279821D01*
X0024200Y0279904D01*
X0024257Y0279986D01*
X0024318Y0280064D01*
X0024382Y0280141D01*
X0024448Y0280214D01*
X0024518Y0280285D01*
X0024590Y0280353D01*
X0024665Y0280419D01*
X0024743Y0280481D01*
X0024823Y0280540D01*
X0024905Y0280596D01*
X0024989Y0280648D01*
X0025076Y0280697D01*
X0025164Y0280743D01*
X0025254Y0280785D01*
X0025346Y0280824D01*
X0025439Y0280859D01*
X0025533Y0280890D01*
X0025629Y0280917D01*
X0025726Y0280940D01*
X0025823Y0280960D01*
X0025921Y0280976D01*
X0026020Y0280988D01*
X0026119Y0280996D01*
X0026218Y0281000D01*
X0026318Y0281000D01*
X0026417Y0280996D01*
X0026516Y0280988D01*
X0026615Y0280976D01*
X0026713Y0280960D01*
X0026810Y0280940D01*
X0026907Y0280917D01*
X0027003Y0280890D01*
X0027097Y0280859D01*
X0027190Y0280824D01*
X0027282Y0280785D01*
X0027372Y0280743D01*
X0027460Y0280697D01*
X0027547Y0280648D01*
X0027631Y0280596D01*
X0027713Y0280540D01*
X0027793Y0280481D01*
X0027871Y0280419D01*
X0027946Y0280353D01*
X0028018Y0280285D01*
X0028088Y0280214D01*
X0028154Y0280141D01*
X0028218Y0280064D01*
X0028279Y0279986D01*
X0028336Y0279904D01*
X0028390Y0279821D01*
X0028441Y0279736D01*
X0028489Y0279648D01*
X0028533Y0279559D01*
X0028573Y0279468D01*
X0028610Y0279376D01*
X0028643Y0279282D01*
X0028672Y0279187D01*
X0028697Y0279091D01*
X0028719Y0278994D01*
X0028736Y0278896D01*
X0028750Y0278798D01*
X0028760Y0278699D01*
X0028766Y0278599D01*
X0028768Y0278500D01*
X0028766Y0278401D01*
X0028760Y0278301D01*
X0028750Y0278202D01*
X0028736Y0278104D01*
X0028719Y0278006D01*
X0028697Y0277909D01*
X0028672Y0277813D01*
X0028643Y0277718D01*
X0028610Y0277624D01*
X0028573Y0277532D01*
X0028533Y0277441D01*
X0028489Y0277352D01*
X0028441Y0277264D01*
X0028390Y0277179D01*
X0028336Y0277096D01*
X0028279Y0277014D01*
X0028218Y0276936D01*
X0028154Y0276859D01*
X0028088Y0276786D01*
X0028018Y0276715D01*
X0027946Y0276647D01*
X0027871Y0276581D01*
X0027793Y0276519D01*
X0027713Y0276460D01*
X0027631Y0276404D01*
X0027547Y0276352D01*
X0027460Y0276303D01*
X0027372Y0276257D01*
X0027282Y0276215D01*
X0027190Y0276176D01*
X0027097Y0276141D01*
X0027003Y0276110D01*
X0026907Y0276083D01*
X0026810Y0276060D01*
X0026713Y0276040D01*
X0026615Y0276024D01*
X0026516Y0276012D01*
X0026417Y0276004D01*
X0026318Y0276000D01*
X0026218Y0276000D01*
X0026119Y0276004D01*
X0026020Y0276012D01*
X0025921Y0276024D01*
X0025823Y0276040D01*
X0025726Y0276060D01*
X0025629Y0276083D01*
X0025533Y0276110D01*
X0025439Y0276141D01*
X0025346Y0276176D01*
X0025254Y0276215D01*
X0025164Y0276257D01*
X0025076Y0276303D01*
X0024989Y0276352D01*
X0024905Y0276404D01*
X0024823Y0276460D01*
X0024743Y0276519D01*
X0024665Y0276581D01*
X0024590Y0276647D01*
X0024518Y0276715D01*
X0024448Y0276786D01*
X0024382Y0276859D01*
X0024318Y0276936D01*
X0024257Y0277014D01*
X0024200Y0277096D01*
X0024146Y0277179D01*
X0024095Y0277264D01*
X0024047Y0277352D01*
X0024003Y0277441D01*
X0023963Y0277532D01*
X0023926Y0277624D01*
X0023893Y0277718D01*
X0023864Y0277813D01*
X0023839Y0277909D01*
X0023817Y0278006D01*
X0023800Y0278104D01*
X0023786Y0278202D01*
X0023776Y0278301D01*
X0023770Y0278401D01*
X0023768Y0278500D01*
M02*
